{"glyphs":{"0":{"ha":932,"x_min":93,"x_max":839,"o":"m 93 454 q 113 601 93 521 q 178 751 133 681 q 294 867 222 821 q 471 914 367 914 q 644 866 574 914 q 758 748 715 818 q 820 597 801 678 q 839 450 839 517 q 808 270 839 354 q 726 124 778 186 q 606 26 675 61 q 461 -10 538 -10 q 317 27 385 -10 q 200 126 250 64 q 122 273 150 189 q 93 454 93 357 m 114 456 q 143 272 114 354 q 221 132 172 190 q 333 42 269 74 q 464 10 397 10 q 594 40 531 10 q 708 128 658 71 q 789 267 758 185 q 819 449 819 349 q 793 633 819 550 q 719 773 767 715 q 608 863 672 831 q 469 894 544 894 q 330 865 394 894 q 217 777 265 835 q 142 638 169 719 q 114 456 114 557 z "},"1":{"ha":396,"x_min":47,"x_max":224,"o":"m 47 883 l 47 903 l 224 903 l 224 0 l 204 0 l 204 883 l 47 883 z "},"2":{"ha":703,"x_min":89,"x_max":643,"o":"m 143 19 l 643 19 l 643 0 l 93 0 q 267 170 182 86 q 416 334 351 254 q 520 488 481 414 q 560 628 560 563 q 538 757 560 706 q 482 839 515 808 q 410 882 449 869 q 336 894 371 894 q 223 870 267 894 q 153 809 179 846 q 118 730 128 772 q 108 651 108 688 q 164 493 108 553 q 158 488 161 490 q 151 482 154 485 q 106 555 122 515 q 89 651 89 594 q 105 755 89 707 q 152 838 121 803 q 230 894 183 874 q 336 914 276 914 q 435 894 390 914 q 512 838 479 874 q 562 752 544 801 q 579 644 579 703 q 538 484 579 564 q 433 326 497 404 q 292 172 369 249 q 143 19 215 94 z "},"3":{"ha":671,"x_min":89,"x_max":579,"o":"m 207 501 q 354 692 282 597 q 501 883 426 788 l 103 883 l 103 903 l 546 903 q 408 728 476 815 q 269 553 339 640 q 388 535 332 556 q 487 478 444 515 q 554 387 529 440 q 579 271 579 333 q 557 161 579 213 q 496 72 535 110 q 406 11 457 33 q 296 -11 354 -11 q 181 14 233 -11 q 89 81 128 39 q 96 90 92 85 q 103 99 100 94 q 185 33 136 58 q 292 8 233 8 q 395 29 346 8 q 481 86 444 50 q 538 170 517 122 q 560 271 560 218 q 538 373 560 325 q 481 456 517 421 q 395 513 444 492 q 292 533 346 533 q 248 525 269 533 q 207 501 226 517 z "},"4":{"ha":735,"x_min":33,"x_max":676,"o":"m 522 857 q 299 565 410 710 q 75 274 188 421 l 522 274 l 522 857 m 33 254 q 288 584 161 419 q 542 914 414 749 l 542 274 l 676 274 l 676 254 l 542 254 l 542 0 l 522 0 l 522 254 l 33 254 z "},"5":{"ha":658,"x_min":93,"x_max":572,"o":"m 132 474 l 132 903 l 531 903 l 531 883 l 151 883 l 151 517 q 217 540 183 532 q 288 549 251 549 q 398 527 346 549 q 488 468 450 506 q 549 380 526 431 q 572 271 572 329 q 549 161 572 213 q 488 72 526 110 q 398 11 450 33 q 288 -11 346 -11 q 181 10 231 -11 q 93 67 132 31 q 101 74 97 69 q 108 81 104 78 q 187 27 142 46 q 285 8 232 8 q 389 29 340 8 q 474 86 438 50 q 531 170 510 122 q 553 271 553 218 q 531 372 553 325 q 474 453 510 418 q 389 509 438 489 q 285 529 340 529 q 196 513 236 529 q 132 474 156 497 z "},"6":{"ha":736,"x_min":88,"x_max":654,"o":"m 106 268 q 126 167 106 214 q 183 84 147 119 q 267 28 218 49 q 369 8 315 8 q 472 28 424 8 q 557 84 521 49 q 614 167 593 119 q 635 268 635 214 q 614 369 635 322 q 557 452 593 417 q 472 508 521 488 q 369 529 424 529 q 267 508 315 529 q 183 452 218 488 q 126 369 147 417 q 106 268 106 322 m 88 268 q 131 456 88 369 q 240 618 174 543 q 389 758 307 693 q 549 879 471 822 q 556 870 551 875 q 563 861 560 865 q 399 740 469 800 q 277 626 328 681 q 194 523 226 571 q 144 436 161 475 q 242 518 183 488 q 371 549 300 549 q 481 526 429 549 q 572 466 533 504 q 632 377 610 428 q 654 268 654 326 q 632 159 654 210 q 572 71 610 108 q 481 11 533 33 q 371 -11 429 -11 q 260 11 313 -11 q 170 71 208 33 q 110 159 132 108 q 88 268 88 210 z "},"7":{"ha":638,"x_min":54,"x_max":611,"o":"m 54 883 l 54 903 l 611 903 q 408 451 510 675 q 206 0 307 228 l 181 0 q 380 442 281 222 q 579 883 479 661 l 54 883 z "},"8":{"ha":740,"x_min":89,"x_max":654,"o":"m 185 710 q 199 646 185 675 q 238 595 213 617 q 296 562 263 574 q 368 550 329 550 q 438 562 406 550 q 495 595 471 574 q 533 646 519 617 q 546 710 546 675 q 533 781 546 747 q 495 839 519 814 q 438 879 471 864 q 368 894 406 894 q 296 879 329 894 q 238 839 263 864 q 199 781 213 814 q 185 710 185 747 m 108 271 q 128 170 108 218 q 183 86 149 122 q 265 28 218 50 q 367 7 313 7 q 471 28 422 7 q 556 86 519 50 q 613 170 592 122 q 635 271 635 218 q 613 372 635 325 q 556 453 592 418 q 471 509 519 489 q 367 529 422 529 q 265 509 313 529 q 183 453 218 489 q 128 372 149 418 q 108 271 108 325 m 89 271 q 105 363 89 319 q 149 442 121 407 q 215 503 176 478 q 299 540 253 529 q 203 608 240 560 q 165 719 165 656 q 181 795 165 760 q 224 857 197 831 q 288 899 251 883 q 365 914 324 914 q 443 898 407 914 q 506 855 479 882 q 549 792 533 828 q 565 714 565 756 q 530 606 565 653 q 438 540 494 560 q 523 504 483 529 q 592 444 563 479 q 638 365 621 408 q 654 271 654 321 q 631 161 654 213 q 570 72 608 110 q 480 11 532 33 q 369 -11 428 -11 q 260 11 311 -11 q 172 72 210 33 q 111 161 133 110 q 89 271 89 213 z "},"9":{"ha":736,"x_min":82,"x_max":649,"o":"m 631 600 q 610 701 631 654 q 553 784 589 749 q 469 840 518 819 q 367 860 421 860 q 264 840 313 860 q 179 784 215 819 q 122 701 143 749 q 101 600 101 654 q 122 498 101 546 q 179 415 143 450 q 264 359 215 379 q 367 339 313 339 q 469 359 421 339 q 553 415 518 379 q 610 498 589 450 q 631 600 631 546 m 649 600 q 606 412 649 499 q 496 250 563 325 q 347 110 429 175 q 188 -11 265 46 q 181 -2 185 -7 q 174 7 176 3 q 338 128 267 68 q 459 242 408 188 q 542 345 510 297 q 592 432 575 393 q 494 350 553 381 q 365 319 436 319 q 255 342 307 319 q 165 402 203 364 q 104 491 126 440 q 82 600 82 542 q 104 709 82 658 q 165 797 126 760 q 255 857 203 835 q 365 879 307 879 q 476 857 424 879 q 566 797 528 835 q 626 709 604 760 q 649 600 649 658 z "},"\u0000":{"ha":0,"x_min":0,"x_max":0,"o":""},"\r":{"ha":417,"x_min":0,"x_max":0,"o":""}," ":{"ha":364,"x_min":0,"x_max":0,"o":""},"t":{"ha":364,"x_min":25,"x_max":344,"o":"m 149 749 l 168 749 l 168 510 l 344 510 l 344 490 l 168 490 l 168 0 l 149 0 l 149 490 l 25 490 l 25 510 l 149 510 l 149 749 z "},"b":{"ha":708,"x_min":106,"x_max":646,"o":"m 626 261 q 607 358 626 313 q 553 439 588 404 q 474 493 519 474 q 376 513 428 513 q 278 493 324 513 q 199 439 233 474 q 144 358 164 404 q 125 261 125 313 q 144 163 125 208 q 199 84 164 118 q 278 31 233 50 q 376 11 324 11 q 474 31 428 11 q 553 84 519 50 q 607 163 588 118 q 626 261 626 208 m 646 261 q 625 156 646 204 q 567 70 604 107 q 481 13 531 33 q 376 -8 432 -8 q 294 4 333 -8 q 222 40 254 17 q 163 94 189 63 q 124 163 138 125 q 124 119 124 140 q 125 75 125 97 l 125 0 l 106 0 l 106 1042 l 125 1042 l 125 361 q 223 484 156 436 q 376 532 290 532 q 481 510 432 532 q 567 453 531 489 q 625 367 604 417 q 646 261 646 317 z "},"l":{"ha":242,"x_min":111,"x_max":131,"o":"m 131 0 l 111 0 l 111 1042 l 131 1042 l 131 0 z "},"m":{"ha":997,"x_min":106,"x_max":897,"o":"m 106 521 l 119 521 l 121 385 q 210 490 149 450 q 350 531 271 531 q 460 492 418 531 q 510 392 503 454 q 599 492 539 454 q 736 531 660 531 q 852 488 810 531 q 897 375 894 444 l 897 0 l 878 0 l 878 385 q 841 472 875 435 q 746 511 807 508 q 658 497 700 511 q 585 456 617 482 q 533 393 553 429 q 511 314 513 357 l 511 0 l 492 0 l 492 385 q 455 472 489 435 q 360 511 421 508 q 270 496 313 511 q 195 453 228 481 q 144 388 163 426 q 125 306 125 350 l 125 0 l 106 0 l 106 521 z "},"i":{"ha":231,"x_min":88,"x_max":143,"o":"m 88 694 q 96 714 88 706 q 115 722 104 722 q 135 714 126 722 q 143 694 143 706 q 135 675 143 683 q 115 667 126 667 q 96 675 104 667 q 88 694 88 683 m 125 0 l 106 0 l 106 521 l 125 521 l 125 0 z "},"h":{"ha":611,"x_min":106,"x_max":511,"o":"m 106 1042 l 125 1042 l 125 393 q 210 491 150 451 q 350 531 271 531 q 466 488 424 531 q 511 375 508 444 l 511 0 l 492 0 l 492 385 q 455 472 489 435 q 360 511 421 508 q 270 496 313 511 q 195 453 228 481 q 144 388 163 426 q 125 306 125 350 l 125 0 l 106 0 l 106 1042 z "},"c":{"ha":560,"x_min":63,"x_max":503,"o":"m 489 65 l 503 51 q 424 8 467 24 q 332 -8 381 -8 q 226 13 275 -8 q 141 70 178 33 q 83 156 104 107 q 63 261 63 204 q 83 367 63 317 q 141 453 104 417 q 226 510 178 489 q 332 532 275 532 q 424 516 381 532 q 503 472 468 500 q 496 465 500 468 q 489 457 492 461 q 417 498 457 483 q 332 513 376 513 q 234 493 279 513 q 155 439 189 474 q 101 358 121 404 q 82 261 82 313 q 101 163 82 208 q 155 84 121 118 q 234 31 189 50 q 332 11 279 11 q 417 26 376 11 q 489 65 457 40 z "},"q":{"ha":708,"x_min":63,"x_max":603,"o":"m 82 261 q 101 163 82 208 q 155 84 121 118 q 234 31 189 50 q 332 11 279 11 q 429 31 383 11 q 510 84 475 50 q 564 163 544 118 q 583 261 583 208 q 564 358 583 313 q 510 439 544 404 q 429 493 475 474 q 332 513 383 513 q 234 493 279 513 q 155 439 189 474 q 101 358 121 404 q 82 261 82 313 m 63 261 q 83 367 63 317 q 141 453 104 417 q 226 510 178 489 q 332 532 275 532 q 485 484 418 532 q 583 361 553 436 l 583 521 l 603 521 l 603 -250 l 583 -250 l 583 75 q 584 119 583 97 q 585 163 585 140 q 544 94 569 125 q 487 40 519 63 q 415 4 454 17 q 332 -8 375 -8 q 226 13 275 -8 q 141 70 178 33 q 83 156 104 107 q 63 261 63 204 z "},"u":{"ha":611,"x_min":100,"x_max":506,"o":"m 506 0 l 492 0 l 490 136 q 401 30 463 69 q 261 -10 339 -10 q 145 33 188 -10 q 100 146 103 76 l 100 521 l 119 521 l 119 136 q 156 49 122 86 q 251 10 190 13 q 341 25 299 10 q 415 67 383 40 q 467 133 447 94 q 486 215 486 171 l 486 521 l 506 521 l 506 0 z "},"r":{"ha":363,"x_min":106,"x_max":351,"o":"m 351 511 q 265 494 306 510 q 192 451 224 478 q 143 386 161 424 q 125 306 125 349 l 125 0 l 106 0 l 106 521 l 119 521 l 121 385 q 211 490 150 451 q 351 531 272 528 l 351 511 z "},"e":{"ha":607,"x_min":63,"x_max":567,"o":"m 518 64 q 434 11 482 31 q 332 -8 386 -8 q 226 13 275 -8 q 141 70 178 33 q 83 156 104 107 q 63 261 63 204 q 83 367 63 317 q 141 453 104 417 q 226 512 178 490 q 332 533 275 533 q 477 484 418 533 q 567 360 536 435 q 454 315 514 339 q 333 265 394 290 q 212 216 272 240 q 99 169 151 192 q 189 55 126 99 q 332 11 251 11 q 426 28 382 11 q 503 78 469 46 l 518 64 m 540 369 q 459 472 511 432 q 332 513 407 513 q 234 493 279 513 q 155 439 189 474 q 101 358 121 404 q 82 261 82 313 q 92 188 82 221 q 200 232 143 208 q 315 278 257 256 q 431 325 374 301 q 540 369 489 349 z "},"p":{"ha":708,"x_min":106,"x_max":646,"o":"m 626 261 q 607 358 626 313 q 553 439 588 404 q 474 493 519 474 q 376 513 428 513 q 278 493 324 513 q 199 439 233 474 q 144 358 164 404 q 125 261 125 313 q 144 163 125 208 q 199 84 164 118 q 278 31 233 50 q 376 11 324 11 q 474 31 428 11 q 553 84 519 50 q 607 163 588 118 q 626 261 626 208 m 646 261 q 625 156 646 204 q 567 70 604 107 q 481 13 531 33 q 376 -8 432 -8 q 294 4 333 -8 q 222 40 254 17 q 163 94 189 63 q 124 163 138 125 q 124 119 124 140 q 125 75 125 97 l 125 -250 l 106 -250 l 106 521 l 125 521 l 125 361 q 223 484 156 436 q 376 532 290 532 q 481 510 432 532 q 567 453 531 489 q 625 367 604 417 q 646 261 646 317 z "},"á":{"ha":708,"x_min":63,"x_max":603,"o":"m 82 261 q 101 163 82 208 q 155 84 121 118 q 234 31 189 50 q 332 11 279 11 q 429 31 383 11 q 510 84 475 50 q 564 163 544 118 q 583 261 583 208 q 564 358 583 313 q 510 439 544 404 q 429 493 475 474 q 332 513 383 513 q 234 493 279 513 q 155 439 189 474 q 101 358 121 404 q 82 261 82 313 m 63 261 q 83 367 63 317 q 141 453 104 417 q 226 510 178 489 q 332 532 275 532 q 485 484 418 532 q 583 361 553 436 q 585 441 583 401 q 589 521 586 481 l 603 521 l 603 0 l 583 0 l 583 75 q 584 119 583 97 q 585 163 585 140 q 544 94 569 125 q 487 40 519 63 q 415 4 454 17 q 332 -8 375 -8 q 226 13 275 -8 q 141 70 178 33 q 83 156 104 107 q 63 261 63 204 m 343 665 q 406 758 375 711 q 468 850 436 804 l 490 850 q 428 758 458 804 q 365 665 397 711 l 343 665 z "},"é":{"ha":607,"x_min":63,"x_max":567,"o":"m 518 64 q 434 11 482 31 q 332 -8 386 -8 q 226 13 275 -8 q 141 70 178 33 q 83 156 104 107 q 63 261 63 204 q 83 367 63 317 q 141 453 104 417 q 226 512 178 490 q 332 533 275 533 q 477 484 418 533 q 567 360 536 435 q 454 315 514 339 q 333 265 394 290 q 212 216 272 240 q 99 169 151 192 q 189 55 126 99 q 332 11 251 11 q 426 28 382 11 q 503 78 469 46 l 518 64 m 540 369 q 459 472 511 432 q 332 513 407 513 q 234 493 279 513 q 155 439 189 474 q 101 358 121 404 q 82 261 82 313 q 92 188 82 221 q 200 232 143 208 q 315 278 257 256 q 431 325 374 301 q 540 369 489 349 m 336 665 q 399 758 368 711 q 461 850 429 804 l 483 850 q 421 758 451 804 q 358 665 390 711 l 336 665 z "},"í":{"ha":231,"x_min":106,"x_max":253,"o":"m 125 0 l 106 0 l 106 521 l 125 521 l 125 0 m 106 665 q 168 758 138 711 q 231 850 199 804 l 253 850 q 190 758 221 804 q 128 665 160 711 l 106 665 z "},"ó":{"ha":667,"x_min":63,"x_max":604,"o":"m 63 261 q 83 367 63 317 q 141 453 104 417 q 226 512 178 490 q 332 533 275 533 q 438 512 388 533 q 524 453 488 490 q 583 367 561 417 q 604 261 604 317 q 583 156 604 204 q 524 70 561 107 q 438 13 488 33 q 332 -8 388 -8 q 226 13 275 -8 q 141 70 178 33 q 83 156 104 107 q 63 261 63 204 m 82 261 q 101 163 82 208 q 155 84 121 118 q 234 31 189 50 q 332 11 279 11 q 429 31 383 11 q 510 84 475 50 q 564 163 544 118 q 583 261 583 208 q 564 358 583 313 q 510 439 544 404 q 429 493 475 474 q 332 513 383 513 q 234 493 279 513 q 155 439 189 474 q 101 358 121 404 q 82 261 82 313 m 333 665 q 396 758 365 711 q 458 850 426 804 l 481 850 q 418 758 449 804 q 356 665 388 711 l 333 665 z "},"ú":{"ha":611,"x_min":100,"x_max":506,"o":"m 506 0 l 492 0 l 490 136 q 401 30 463 69 q 261 -10 339 -10 q 145 33 188 -10 q 100 146 103 76 l 100 521 l 119 521 l 119 136 q 156 49 122 86 q 251 10 190 13 q 341 25 299 10 q 415 67 383 40 q 467 133 447 94 q 486 215 486 171 l 486 521 l 506 521 l 506 0 m 338 665 q 400 758 369 711 q 463 850 431 804 l 485 850 q 422 758 453 804 q 360 665 392 711 l 338 665 z "},"ä":{"ha":708,"x_min":63,"x_max":603,"o":"m 82 261 q 101 163 82 208 q 155 84 121 118 q 234 31 189 50 q 332 11 279 11 q 429 31 383 11 q 510 84 475 50 q 564 163 544 118 q 583 261 583 208 q 564 358 583 313 q 510 439 544 404 q 429 493 475 474 q 332 513 383 513 q 234 493 279 513 q 155 439 189 474 q 101 358 121 404 q 82 261 82 313 m 63 261 q 83 367 63 317 q 141 453 104 417 q 226 510 178 489 q 332 532 275 532 q 485 484 418 532 q 583 361 553 436 q 585 441 583 401 q 589 521 586 481 l 603 521 l 603 0 l 583 0 l 583 75 q 584 119 583 97 q 585 163 585 140 q 544 94 569 125 q 487 40 519 63 q 415 4 454 17 q 332 -8 375 -8 q 226 13 275 -8 q 141 70 178 33 q 83 156 104 107 q 63 261 63 204 m 474 694 q 482 714 474 706 q 501 722 490 722 q 521 714 513 722 q 529 694 529 706 q 521 675 529 683 q 501 667 513 667 q 482 675 490 667 q 474 694 474 683 m 244 694 q 253 714 244 706 q 272 722 261 722 q 292 714 283 722 q 300 694 300 706 q 292 675 300 683 q 272 667 283 667 q 253 675 261 667 q 244 694 244 683 z "},"ë":{"ha":607,"x_min":63,"x_max":567,"o":"m 518 64 q 434 11 482 31 q 332 -8 386 -8 q 226 13 275 -8 q 141 70 178 33 q 83 156 104 107 q 63 261 63 204 q 83 367 63 317 q 141 453 104 417 q 226 512 178 490 q 332 533 275 533 q 477 484 418 533 q 567 360 536 435 q 454 315 514 339 q 333 265 394 290 q 212 216 272 240 q 99 169 151 192 q 189 55 126 99 q 332 11 251 11 q 426 28 382 11 q 503 78 469 46 l 518 64 m 540 369 q 459 472 511 432 q 332 513 407 513 q 234 493 279 513 q 155 439 189 474 q 101 358 121 404 q 82 261 82 313 q 92 188 82 221 q 200 232 143 208 q 315 278 257 256 q 431 325 374 301 q 540 369 489 349 m 418 694 q 426 714 418 706 q 446 722 435 722 q 465 714 457 722 q 474 694 474 706 q 465 675 474 683 q 446 667 457 667 q 426 675 435 667 q 418 694 418 683 m 189 694 q 197 714 189 706 q 217 722 206 722 q 236 714 228 722 q 244 694 244 706 q 236 675 244 683 q 217 667 228 667 q 197 675 206 667 q 189 694 189 683 z "},"ö":{"ha":667,"x_min":63,"x_max":604,"o":"m 63 261 q 83 367 63 317 q 141 453 104 417 q 226 512 178 490 q 332 533 275 533 q 438 512 388 533 q 524 453 488 490 q 583 367 561 417 q 604 261 604 317 q 583 156 604 204 q 524 70 561 107 q 438 13 488 33 q 332 -8 388 -8 q 226 13 275 -8 q 141 70 178 33 q 83 156 104 107 q 63 261 63 204 m 82 261 q 101 163 82 208 q 155 84 121 118 q 234 31 189 50 q 332 11 279 11 q 429 31 383 11 q 510 84 475 50 q 564 163 544 118 q 583 261 583 208 q 564 358 583 313 q 510 439 544 404 q 429 493 475 474 q 332 513 383 513 q 234 493 279 513 q 155 439 189 474 q 101 358 121 404 q 82 261 82 313 m 425 694 q 433 714 425 706 q 453 722 442 722 q 472 714 464 722 q 481 694 481 706 q 472 675 481 683 q 453 667 464 667 q 433 675 442 667 q 425 694 425 683 m 196 694 q 204 714 196 706 q 224 722 213 722 q 243 714 235 722 q 251 694 251 706 q 243 675 251 683 q 224 667 235 667 q 204 675 213 667 q 196 694 196 683 z "},"ü":{"ha":611,"x_min":100,"x_max":519,"o":"m 506 0 l 492 0 l 490 136 q 401 30 463 69 q 261 -10 339 -10 q 145 33 188 -10 q 100 146 103 76 l 100 521 l 119 521 l 119 136 q 156 49 122 86 q 251 10 190 13 q 341 25 299 10 q 415 67 383 40 q 467 133 447 94 q 486 215 486 171 l 486 521 l 506 521 l 506 0 m 464 694 q 472 714 464 706 q 492 722 481 722 q 511 714 503 722 q 519 694 519 706 q 511 675 519 683 q 492 667 503 667 q 472 675 481 667 q 464 694 464 683 m 235 694 q 243 714 235 706 q 263 722 251 722 q 282 714 274 722 q 290 694 290 706 q 282 675 290 683 q 263 667 274 667 q 243 675 251 667 q 235 694 235 683 z "},"à":{"ha":708,"x_min":63,"x_max":603,"o":"m 82 261 q 101 163 82 208 q 155 84 121 118 q 234 31 189 50 q 332 11 279 11 q 429 31 383 11 q 510 84 475 50 q 564 163 544 118 q 583 261 583 208 q 564 358 583 313 q 510 439 544 404 q 429 493 475 474 q 332 513 383 513 q 234 493 279 513 q 155 439 189 474 q 101 358 121 404 q 82 261 82 313 m 63 261 q 83 367 63 317 q 141 453 104 417 q 226 510 178 489 q 332 532 275 532 q 485 484 418 532 q 583 361 553 436 q 585 441 583 401 q 589 521 586 481 l 603 521 l 603 0 l 583 0 l 583 75 q 584 119 583 97 q 585 163 585 140 q 544 94 569 125 q 487 40 519 63 q 415 4 454 17 q 332 -8 375 -8 q 226 13 275 -8 q 141 70 178 33 q 83 156 104 107 q 63 261 63 204 m 257 850 q 319 758 289 804 q 382 665 350 711 l 360 665 q 297 758 328 711 q 235 850 267 804 l 257 850 z "},"è":{"ha":607,"x_min":63,"x_max":567,"o":"m 518 64 q 434 11 482 31 q 332 -8 386 -8 q 226 13 275 -8 q 141 70 178 33 q 83 156 104 107 q 63 261 63 204 q 83 367 63 317 q 141 453 104 417 q 226 512 178 490 q 332 533 275 533 q 477 484 418 533 q 567 360 536 435 q 454 315 514 339 q 333 265 394 290 q 212 216 272 240 q 99 169 151 192 q 189 55 126 99 q 332 11 251 11 q 426 28 382 11 q 503 78 469 46 l 518 64 m 540 369 q 459 472 511 432 q 332 513 407 513 q 234 493 279 513 q 155 439 189 474 q 101 358 121 404 q 82 261 82 313 q 92 188 82 221 q 200 232 143 208 q 315 278 257 256 q 431 325 374 301 q 540 369 489 349 m 210 850 q 272 758 242 804 q 335 665 303 711 l 313 665 q 250 758 281 711 q 188 850 219 804 l 210 850 z "},"ì":{"ha":231,"x_min":-6,"x_max":142,"o":"m 125 0 l 106 0 l 106 521 l 125 521 l 125 0 m 17 850 q 79 758 49 804 q 142 665 110 711 l 119 665 q 57 758 88 711 q -6 850 26 804 l 17 850 z "},"ò":{"ha":667,"x_min":63,"x_max":604,"o":"m 63 261 q 83 367 63 317 q 141 453 104 417 q 226 512 178 490 q 332 533 275 533 q 438 512 388 533 q 524 453 488 490 q 583 367 561 417 q 604 261 604 317 q 583 156 604 204 q 524 70 561 107 q 438 13 488 33 q 332 -8 388 -8 q 226 13 275 -8 q 141 70 178 33 q 83 156 104 107 q 63 261 63 204 m 82 261 q 101 163 82 208 q 155 84 121 118 q 234 31 189 50 q 332 11 279 11 q 429 31 383 11 q 510 84 475 50 q 564 163 544 118 q 583 261 583 208 q 564 358 583 313 q 510 439 544 404 q 429 493 475 474 q 332 513 383 513 q 234 493 279 513 q 155 439 189 474 q 101 358 121 404 q 82 261 82 313 m 207 850 q 269 758 239 804 q 332 665 300 711 l 310 665 q 247 758 278 711 q 185 850 217 804 l 207 850 z "},"ù":{"ha":611,"x_min":100,"x_max":506,"o":"m 506 0 l 492 0 l 490 136 q 401 30 463 69 q 261 -10 339 -10 q 145 33 188 -10 q 100 146 103 76 l 100 521 l 119 521 l 119 136 q 156 49 122 86 q 251 10 190 13 q 341 25 299 10 q 415 67 383 40 q 467 133 447 94 q 486 215 486 171 l 486 521 l 506 521 l 506 0 m 283 850 q 346 758 315 804 q 408 665 376 711 l 386 665 q 324 758 354 711 q 261 850 293 804 l 283 850 z "},",":{"ha":319,"x_min":63,"x_max":201,"o":"m 201 119 q 142 -24 171 47 q 82 -167 113 -94 l 63 -167 q 116 -24 90 -94 q 169 119 142 47 l 201 119 z "},".":{"ha":256,"x_min":100,"x_max":156,"o":"m 100 28 q 108 47 100 39 q 128 56 117 56 q 147 47 139 56 q 156 28 156 39 q 147 8 156 17 q 128 0 139 0 q 108 8 117 0 q 100 28 100 17 z "},"f":{"ha":349,"x_min":40,"x_max":388,"o":"m 40 497 l 40 517 l 131 517 l 131 719 q 151 856 131 796 q 206 956 171 915 q 288 1017 242 996 q 388 1042 335 1039 l 388 1022 q 297 1001 340 1022 q 222 942 254 981 q 169 848 189 903 q 150 725 150 793 l 150 517 l 331 517 l 331 497 l 150 497 l 150 0 l 131 0 l 131 497 l 40 497 z "},"å":{"ha":708,"x_min":63,"x_max":603,"o":"m 274 651 q 294 603 274 624 q 342 583 314 583 q 390 603 369 583 q 410 651 410 624 q 390 699 410 679 q 342 719 369 719 q 294 699 314 719 q 274 651 274 679 m 254 651 q 279 714 254 689 q 342 739 304 739 q 404 714 379 739 q 429 651 429 689 q 404 589 429 614 q 342 564 379 564 q 279 589 304 564 q 254 651 254 614 m 82 261 q 101 163 82 208 q 155 84 121 118 q 234 31 189 50 q 332 11 279 11 q 429 31 383 11 q 510 84 475 50 q 564 163 544 118 q 583 261 583 208 q 564 358 583 313 q 510 439 544 404 q 429 493 475 474 q 332 513 383 513 q 234 493 279 513 q 155 439 189 474 q 101 358 121 404 q 82 261 82 313 m 63 261 q 83 367 63 317 q 141 453 104 417 q 226 510 178 489 q 332 532 275 532 q 485 484 418 532 q 583 361 553 436 q 585 441 583 401 q 589 521 586 481 l 603 521 l 603 0 l 583 0 l 583 75 q 584 119 583 97 q 585 163 585 140 q 544 94 569 125 q 487 40 519 63 q 415 4 454 17 q 332 -8 375 -8 q 226 13 275 -8 q 141 70 178 33 q 83 156 104 107 q 63 261 63 204 z "},"v":{"ha":556,"x_min":31,"x_max":525,"o":"m 278 -32 q 213 106 243 38 q 154 244 183 175 q 95 383 125 314 q 31 521 65 451 l 51 521 q 165 267 115 394 q 278 11 214 139 q 391 266 342 139 q 504 521 440 393 l 525 521 q 460 383 490 451 q 401 244 431 314 q 342 106 372 175 q 278 -32 313 38 z "},"j":{"ha":231,"x_min":29,"x_max":143,"o":"m 88 694 q 96 714 88 706 q 115 722 104 722 q 135 714 126 722 q 143 694 143 706 q 135 675 143 683 q 115 667 126 667 q 96 675 104 667 q 88 694 88 683 m 46 -250 l 29 -237 q 85 -142 64 -199 q 106 -15 106 -86 l 106 521 l 125 521 l 125 -10 q 103 -149 125 -89 q 46 -250 82 -210 z "},"s":{"ha":439,"x_min":58,"x_max":376,"o":"m 356 467 l 342 453 q 281 494 318 481 q 217 507 244 507 q 178 501 199 507 q 139 482 157 494 q 109 449 121 469 q 97 399 97 428 q 118 338 97 360 q 169 301 139 315 q 237 275 200 286 q 304 248 274 264 q 356 207 335 232 q 376 139 376 182 q 366 83 376 110 q 335 35 356 56 q 285 1 315 14 q 217 -11 256 -11 q 133 3 179 -11 q 58 54 88 18 q 66 60 63 57 q 74 67 69 64 q 100 43 82 54 q 139 24 118 32 q 181 13 160 17 q 218 8 201 8 q 259 15 235 8 q 305 35 283 21 q 342 74 326 50 q 357 133 357 97 q 336 199 357 175 q 285 237 315 222 q 217 263 254 251 q 150 289 181 274 q 99 329 119 304 q 78 397 78 354 q 90 455 78 431 q 122 495 101 479 q 167 519 142 511 q 217 526 192 526 q 287 513 247 526 q 356 467 326 500 z "},"k":{"ha":508,"x_min":106,"x_max":483,"o":"m 435 533 q 441 526 438 531 q 447 519 444 522 q 346 423 394 469 q 244 326 297 376 q 364 163 304 244 q 483 0 424 82 l 458 0 q 343 156 400 79 q 228 313 286 233 q 176 264 201 289 q 125 215 151 239 l 125 0 l 106 0 l 106 1042 l 125 1042 l 125 244 q 280 389 204 319 q 435 533 356 458 z "},"y":{"ha":561,"x_min":33,"x_max":528,"o":"m 192 -250 l 167 -250 l 268 -17 l 33 521 l 54 521 l 281 11 l 507 521 l 528 521 l 192 -250 z "},"ø":{"ha":667,"x_min":63,"x_max":604,"o":"m 100 14 q 194 125 136 57 q 313 267 251 193 q 431 410 374 342 q 525 521 489 478 l 538 508 q 444 397 501 465 q 324 254 386 328 q 205 112 263 181 q 111 0 147 43 l 100 14 m 63 261 q 83 367 63 317 q 141 453 104 417 q 226 512 178 490 q 332 533 275 533 q 438 512 388 533 q 524 453 488 490 q 583 367 561 417 q 604 261 604 317 q 583 156 604 204 q 524 70 561 107 q 438 13 488 33 q 332 -8 388 -8 q 226 13 275 -8 q 141 70 178 33 q 83 156 104 107 q 63 261 63 204 m 82 261 q 101 163 82 208 q 155 84 121 118 q 234 31 189 50 q 332 11 279 11 q 429 31 383 11 q 510 84 475 50 q 564 163 544 118 q 583 261 583 208 q 564 358 583 313 q 510 439 544 404 q 429 493 475 474 q 332 513 383 513 q 234 493 279 513 q 155 439 189 474 q 101 358 121 404 q 82 261 82 313 z "},"w":{"ha":878,"x_min":31,"x_max":847,"o":"m 421 369 q 387 445 404 407 q 353 521 369 483 l 374 521 q 488 265 431 393 q 600 11 544 138 q 713 266 657 139 q 826 521 769 393 l 847 521 q 724 244 785 382 q 600 -32 663 107 q 516 158 558 64 q 432 349 474 253 q 355 158 393 253 q 278 -32 317 64 q 154 244 215 107 q 31 521 93 382 l 51 521 q 164 265 108 393 q 278 11 219 138 q 349 190 314 101 q 421 369 385 279 z "},"x":{"ha":488,"x_min":40,"x_max":446,"o":"m 232 260 q 136 390 183 326 q 40 521 89 454 l 65 521 l 244 275 q 332 397 289 338 q 419 519 375 457 l 443 519 q 349 389 396 453 q 256 258 303 325 q 351 129 304 193 q 446 0 397 65 l 424 0 q 334 122 379 61 q 244 243 289 182 q 158 122 200 182 q 71 0 115 61 l 46 0 q 139 130 93 65 q 232 260 185 194 z "},"z":{"ha":489,"x_min":40,"x_max":444,"o":"m 438 0 l 50 0 l 411 501 l 124 501 q 60 513 81 501 q 40 564 40 524 l 40 569 l 58 569 l 58 553 q 69 531 58 540 q 104 521 81 521 l 444 521 l 83 19 l 438 19 l 438 0 z "},"o":{"ha":667,"x_min":63,"x_max":604,"o":"m 63 261 q 83 367 63 317 q 141 453 104 417 q 226 512 178 490 q 332 533 275 533 q 438 512 388 533 q 524 453 488 490 q 583 367 561 417 q 604 261 604 317 q 583 156 604 204 q 524 70 561 107 q 438 13 488 33 q 332 -8 388 -8 q 226 13 275 -8 q 141 70 178 33 q 83 156 104 107 q 63 261 63 204 m 82 261 q 101 163 82 208 q 155 84 121 118 q 234 31 189 50 q 332 11 279 11 q 429 31 383 11 q 510 84 475 50 q 564 163 544 118 q 583 261 583 208 q 564 358 583 313 q 510 439 544 404 q 429 493 475 474 q 332 513 383 513 q 234 493 279 513 q 155 439 189 474 q 101 358 121 404 q 82 261 82 313 z "},"æ":{"ha":864,"x_min":60,"x_max":824,"o":"m 419 450 q 362 494 400 479 q 257 510 324 510 q 153 496 189 510 q 88 461 117 482 l 76 481 q 151 517 104 503 q 264 532 197 532 q 374 514 333 532 q 436 464 415 496 l 419 450 m 458 104 q 385 15 442 42 q 254 -11 328 -11 q 172 1 208 -11 q 111 35 136 14 q 73 85 86 57 q 60 144 60 114 q 74 200 60 176 q 113 240 89 224 q 167 263 138 256 q 225 271 196 271 l 333 271 l 332 247 l 249 247 q 168 238 200 247 q 117 213 136 228 q 91 181 99 199 q 83 146 83 163 q 99 83 83 108 q 141 41 115 57 q 199 18 167 25 q 264 11 232 11 q 391 47 346 11 q 443 129 436 82 l 458 104 m 775 64 q 691 11 739 31 q 589 -8 643 -8 q 483 13 532 -8 q 398 70 435 33 q 340 156 361 107 q 319 261 319 204 q 340 367 319 317 q 398 453 361 417 q 483 512 435 490 q 589 533 532 533 q 734 484 675 533 q 824 360 793 435 q 711 315 771 339 q 590 265 651 290 q 469 216 529 240 q 356 169 408 192 q 446 55 383 99 q 589 11 508 11 q 683 28 639 11 q 760 78 726 46 l 775 64 m 797 369 q 716 472 768 432 q 589 513 664 513 q 491 493 536 513 q 412 439 446 474 q 358 358 378 404 q 339 261 339 313 q 349 188 339 221 q 457 232 400 208 q 572 278 514 256 q 688 325 631 301 q 797 369 746 349 z "},"A":{"ha":889,"x_min":42,"x_max":847,"o":"m 231 442 l 660 442 l 660 461 l 231 461 l 231 442 m 826 0 q 642 469 728 235 q 457 938 556 703 q 451 955 454 946 q 444 972 447 964 q 438 955 442 964 q 432 938 435 946 q 247 469 333 703 q 63 0 161 235 l 42 0 q 243 508 149 254 q 444 1017 338 763 q 646 508 551 763 q 847 0 740 254 l 826 0 z "},"ï":{"ha":231,"x_min":-26,"x_max":258,"o":"m 125 0 l 106 0 l 106 521 l 125 521 l 125 0 m 203 694 q 211 714 203 706 q 231 722 219 722 q 250 714 242 722 q 258 694 258 706 q 250 675 258 683 q 231 667 242 667 q 211 675 219 667 q 203 694 203 683 m -26 694 q -18 714 -26 706 q 1 722 -10 722 q 21 714 13 722 q 29 694 29 706 q 21 675 29 683 q 1 667 13 667 q -18 675 -10 667 q -26 694 -26 683 z "},"ý":{"ha":560,"x_min":32,"x_max":526,"o":"m 192 -250 l 165 -250 q 191 -190 181 -217 q 212 -137 201 -164 q 234 -78 222 -110 q 264 -1 246 -46 q 148 259 200 129 q 32 521 96 389 l 53 521 q 166 267 117 394 q 279 11 215 139 q 392 266 343 139 q 506 521 442 393 l 526 521 l 192 -250 m 297 665 q 360 758 329 711 q 422 850 390 804 l 444 850 q 382 758 413 804 q 319 665 351 711 l 297 665 z "},"ÿ":{"ha":560,"x_min":32,"x_max":526,"o":"m 192 -250 l 165 -250 q 191 -190 181 -217 q 212 -137 201 -164 q 234 -78 222 -110 q 264 -1 246 -46 q 148 259 200 129 q 32 521 96 389 l 53 521 q 166 267 117 394 q 279 11 215 139 q 392 266 343 139 q 506 521 442 393 l 526 521 l 192 -250 m 404 694 q 413 714 404 706 q 432 722 421 722 q 451 714 443 722 q 460 694 460 706 q 451 675 460 683 q 432 667 443 667 q 413 675 421 667 q 404 694 404 683 m 175 694 q 183 714 175 706 q 203 722 192 722 q 222 714 214 722 q 231 694 231 706 q 222 675 231 683 q 203 667 214 667 q 183 675 192 667 q 175 694 175 683 z "},"B":{"ha":781,"x_min":165,"x_max":686,"o":"m 185 953 l 185 497 l 389 497 q 558 563 500 497 q 615 733 615 628 q 597 833 615 792 q 547 901 579 875 q 469 940 514 928 q 369 953 424 953 l 185 953 m 185 478 l 185 19 l 390 19 q 497 33 446 19 q 585 76 547 47 q 644 146 622 104 q 667 244 667 188 q 641 349 667 306 q 574 422 615 393 q 477 464 532 450 q 364 478 422 478 l 185 478 m 165 0 l 165 972 l 353 972 q 467 958 415 972 q 557 915 519 944 q 615 839 594 886 q 635 725 635 792 q 626 647 635 685 q 599 578 618 610 q 548 524 579 547 q 472 489 517 501 q 553 461 514 481 q 622 412 592 442 q 669 341 651 382 q 686 249 686 300 q 662 141 686 188 q 597 63 638 94 q 502 16 556 32 q 392 0 449 0 l 165 0 z "},"D":{"ha":988,"x_min":165,"x_max":900,"o":"m 165 972 l 364 972 q 613 927 511 972 q 779 811 715 882 q 872 654 843 740 q 900 486 900 568 q 861 285 900 375 q 756 131 822 194 q 600 34 689 68 q 411 0 511 0 l 165 0 l 165 972 m 419 19 q 597 52 513 19 q 744 145 681 85 q 845 292 808 206 q 882 486 882 379 q 855 647 882 565 q 767 797 828 729 q 610 908 707 865 q 376 951 514 951 l 185 951 l 185 19 l 419 19 z "},"E":{"ha":844,"x_min":165,"x_max":761,"o":"m 165 0 l 165 972 l 742 972 l 742 953 l 185 953 l 185 500 l 688 500 l 688 481 l 185 481 l 185 19 l 761 19 l 761 0 l 165 0 z "},"H":{"ha":1017,"x_min":165,"x_max":854,"o":"m 165 0 l 165 972 l 185 972 l 185 500 l 829 500 l 829 972 l 854 972 q 851 486 853 728 q 849 0 850 244 l 829 0 l 829 481 l 185 481 l 185 0 l 165 0 z "},"I":{"ha":350,"x_min":165,"x_max":185,"o":"m 165 972 l 185 972 l 185 0 l 165 0 l 165 972 z "},"J":{"ha":353,"x_min":-68,"x_max":189,"o":"m -68 -197 l -68 -178 q 26 -153 -17 -175 q 101 -92 69 -132 q 151 3 133 -53 q 169 129 169 58 l 169 972 l 189 972 l 189 125 q 169 -12 189 47 q 113 -111 149 -71 q 31 -174 78 -151 q -68 -197 -15 -196 z "},"K":{"ha":818,"x_min":165,"x_max":808,"o":"m 781 0 q 554 288 667 144 q 328 575 442 431 q 256 507 292 540 q 183 439 219 474 q 184 219 183 329 q 185 0 185 110 l 165 0 l 165 972 l 185 972 l 185 500 q 184 480 185 489 q 183 460 183 471 q 195 474 190 467 q 207 488 200 481 q 461 730 335 610 q 715 972 588 850 l 746 972 q 544 781 644 876 q 343 589 444 685 q 576 294 461 442 q 808 0 690 147 l 781 0 z "},"M":{"ha":1236,"x_min":165,"x_max":1071,"o":"m 165 1017 q 288 835 231 919 q 398 673 344 751 q 506 517 451 594 q 618 357 560 440 q 697 474 649 401 q 804 635 744 547 q 932 822 864 724 q 1071 1017 1000 921 l 1071 0 l 1051 0 l 1051 896 q 1052 927 1051 911 q 1053 958 1053 943 q 825 628 932 789 q 618 317 718 467 q 547 413 586 357 q 465 533 507 469 q 379 660 422 596 q 299 783 336 725 q 231 886 261 840 q 183 958 200 932 q 184 927 183 943 q 185 896 185 911 l 185 0 l 165 0 l 165 1017 z "},"N":{"ha":1124,"x_min":165,"x_max":958,"o":"m 958 972 l 958 -44 q 574 447 760 204 q 207 931 389 689 q 194 949 200 940 q 181 967 188 957 q 183 944 182 956 q 185 922 183 933 l 185 0 l 165 0 l 165 1017 q 360 767 265 890 q 546 523 454 644 q 729 281 638 401 q 917 39 821 161 q 930 21 924 29 q 943 3 936 13 q 941 25 942 14 q 939 47 940 36 l 939 972 l 958 972 z "},"P":{"ha":711,"x_min":165,"x_max":638,"o":"m 185 465 l 344 465 q 478 491 425 465 q 562 555 531 517 q 606 638 593 593 q 618 719 618 682 q 597 815 618 772 q 540 889 576 858 q 453 936 503 919 q 346 953 404 953 l 185 953 l 185 465 m 165 0 l 165 972 l 360 972 q 449 959 400 972 q 539 916 497 946 q 609 838 581 886 q 638 717 638 789 q 620 615 638 664 q 567 529 603 567 q 474 469 531 492 q 340 446 418 446 l 185 446 l 185 0 l 165 0 z "},"R":{"ha":788,"x_min":165,"x_max":740,"o":"m 460 468 l 740 0 l 715 0 l 438 468 l 460 468 m 185 465 l 344 465 q 478 492 425 465 q 562 558 531 518 q 606 642 593 597 q 618 722 618 686 q 597 816 618 774 q 540 889 576 858 q 453 936 503 919 q 346 953 404 953 l 185 953 l 185 465 m 165 0 l 165 972 l 360 972 q 449 959 400 972 q 539 916 497 946 q 609 838 581 886 q 638 717 638 789 q 620 615 638 664 q 567 529 603 567 q 474 469 531 492 q 340 446 418 446 l 185 446 l 185 0 l 165 0 z "},"U":{"ha":929,"x_min":153,"x_max":778,"o":"m 465 -11 q 341 10 399 -11 q 242 72 283 31 q 176 174 200 113 q 153 314 153 235 l 153 972 l 172 972 l 172 318 q 194 185 172 243 q 254 88 215 128 q 347 28 293 49 q 465 8 401 8 q 582 28 528 8 q 675 88 636 49 q 736 185 714 128 q 758 318 758 243 l 758 972 l 778 972 l 778 314 q 753 174 778 235 q 688 72 729 113 q 589 10 646 31 q 465 -11 532 -11 z "},"Y":{"ha":825,"x_min":38,"x_max":786,"o":"m 422 364 l 422 0 l 403 0 l 403 364 q 220 668 311 517 q 38 972 129 819 l 61 972 q 229 694 144 832 q 396 414 314 556 l 414 378 q 422 396 418 388 q 429 414 425 404 l 763 972 l 786 972 l 422 364 z "},"~":{"ha":656,"x_min":133,"x_max":528,"o":"m 318 690 q 279 724 296 715 q 243 732 263 732 q 217 728 232 732 q 189 717 203 725 q 165 694 175 708 q 151 656 154 679 q 142 657 147 657 q 133 658 138 657 q 146 701 135 683 q 173 731 157 719 q 208 747 189 742 q 247 751 228 751 q 298 737 275 751 q 343 699 321 722 q 382 665 365 674 q 418 657 399 657 q 444 660 429 657 q 472 672 458 664 q 497 695 486 681 q 510 733 507 710 q 519 732 514 732 q 528 731 524 732 q 515 688 526 706 q 488 658 504 669 q 453 642 472 647 q 414 638 433 638 q 363 652 386 638 q 318 690 340 667 z "},"ñ":{"ha":611,"x_min":106,"x_max":513,"o":"m 106 521 l 119 521 l 121 385 q 210 490 149 450 q 350 531 271 531 q 466 488 424 531 q 511 375 508 444 l 511 0 l 492 0 l 492 385 q 455 472 489 435 q 360 511 421 508 q 270 496 313 511 q 195 453 228 481 q 144 388 163 426 q 125 306 125 350 l 125 0 l 106 0 l 106 521 m 303 674 q 264 707 281 699 q 228 715 247 715 q 202 712 217 715 q 174 700 188 708 q 149 677 160 692 q 136 639 139 663 q 127 640 132 640 q 118 642 122 640 q 131 685 119 667 q 158 714 142 703 q 193 730 174 725 q 232 735 213 735 q 283 720 260 735 q 328 682 306 706 q 367 649 350 657 q 403 640 383 640 q 428 644 414 640 q 457 656 443 647 q 481 678 471 664 q 494 717 492 693 q 503 715 499 715 q 513 714 508 715 q 500 671 511 689 q 473 642 489 653 q 438 626 457 631 q 399 621 418 621 q 348 635 371 621 q 303 674 325 650 z "},"F":{"ha":756,"x_min":165,"x_max":686,"o":"m 165 0 l 165 972 l 686 972 l 686 953 l 185 953 l 185 486 l 632 486 l 632 467 l 185 467 l 185 0 l 165 0 z "},"L":{"ha":768,"x_min":165,"x_max":747,"o":"m 165 0 l 165 972 l 185 972 l 185 19 l 747 19 l 747 0 l 165 0 z "},"C":{"ha":901,"x_min":85,"x_max":835,"o":"m 833 58 q 715 8 778 26 q 576 -11 651 -11 q 375 28 465 -11 q 220 135 285 68 q 120 291 156 201 q 85 481 85 381 q 124 678 85 586 q 230 838 163 769 q 388 944 297 906 q 581 983 478 983 q 715 965 651 983 q 835 914 778 947 q 829 906 832 910 q 824 897 826 901 q 709 947 771 929 q 581 964 647 964 q 395 926 482 964 q 244 823 308 889 q 142 669 179 757 q 104 479 104 581 q 138 299 104 385 q 232 149 171 214 q 379 47 293 85 q 571 8 465 8 q 705 26 643 8 q 821 75 767 43 l 833 58 z "},"Q":{"ha":1168,"x_min":85,"x_max":1110,"o":"m 85 485 q 124 678 85 588 q 230 837 163 769 q 388 944 297 904 q 581 983 478 983 q 774 944 683 983 q 933 837 865 904 q 1040 678 1000 769 q 1079 485 1079 588 q 1055 331 1079 404 q 988 198 1031 258 q 884 92 944 138 q 753 19 824 46 l 1110 19 l 1110 0 l 683 0 q 581 -11 631 -11 q 388 28 478 -11 q 230 134 297 67 q 124 292 163 201 q 85 485 85 382 m 104 483 q 142 299 104 385 q 243 148 179 213 q 393 46 307 83 q 576 8 479 8 q 763 46 675 8 q 917 148 851 83 q 1022 299 983 213 q 1060 485 1060 386 q 1022 670 1060 583 q 918 822 983 757 q 766 926 853 888 q 581 964 679 964 q 395 926 482 964 q 244 822 308 888 q 142 669 179 757 q 104 483 104 582 z "},"T":{"ha":692,"x_min":58,"x_max":633,"o":"m 633 972 l 633 953 l 356 953 l 356 0 l 336 0 l 336 953 l 58 953 l 58 972 l 633 972 z "},"‹":{"ha":397,"x_min":69,"x_max":307,"o":"m 307 107 l 69 332 q 188 444 129 389 q 307 556 247 499 l 307 532 q 208 432 258 482 q 110 332 158 382 q 208 231 158 281 q 307 129 258 181 l 307 107 z "},">":{"ha":778,"x_min":118,"x_max":726,"o":"m 118 -21 l 118 1 q 404 166 261 85 q 690 331 547 247 q 404 495 547 414 q 118 660 261 576 l 118 682 q 422 506 271 594 q 726 331 574 418 q 422 155 574 243 q 118 -21 271 67 z "},"<":{"ha":778,"x_min":51,"x_max":660,"o":"m 660 1 l 660 -21 q 356 155 507 67 q 51 331 204 243 q 356 506 204 418 q 660 682 507 594 l 660 660 q 374 495 517 576 q 88 331 231 414 q 374 166 231 247 q 660 1 517 85 z "},"=":{"ha":931,"x_min":114,"x_max":817,"o":"m 817 228 l 817 208 l 114 208 l 114 228 l 817 228 m 817 497 l 817 478 l 114 478 l 114 497 l 817 497 z "},"@":{"ha":1279,"x_min":81,"x_max":1179,"o":"m 872 18 l 1000 18 q 1117 76 1075 18 q 1160 261 1160 135 q 1118 468 1160 371 q 1004 638 1076 565 q 835 751 932 710 q 629 793 739 793 q 423 751 519 793 q 255 638 326 710 q 142 468 183 565 q 100 261 100 371 q 142 55 100 151 q 255 -113 183 -42 q 423 -226 326 -185 q 629 -268 519 -268 q 792 -242 715 -268 q 933 -171 868 -215 q 940 -178 936 -175 q 946 -186 943 -182 q 799 -260 876 -233 q 629 -287 721 -287 q 415 -244 515 -287 q 241 -126 315 -201 q 124 49 167 -51 q 81 263 81 149 q 124 476 81 376 q 241 651 167 576 q 415 769 315 726 q 629 813 515 813 q 843 769 743 813 q 1018 651 943 726 q 1136 476 1093 576 q 1179 261 1179 375 q 1163 128 1179 179 q 1119 48 1146 76 q 1059 10 1093 19 q 990 0 1025 0 l 872 0 l 872 18 m 358 261 q 378 163 358 208 q 431 84 397 118 q 510 31 465 50 q 608 11 556 11 q 706 31 660 11 q 786 84 751 50 q 840 163 821 118 q 860 261 860 208 q 840 358 860 313 q 786 439 821 404 q 706 493 751 474 q 608 513 660 513 q 510 493 556 513 q 431 439 465 474 q 378 358 397 404 q 358 261 358 313 m 339 261 q 360 367 339 317 q 417 453 381 417 q 503 510 454 489 q 608 532 551 532 q 762 484 694 532 q 860 361 829 436 q 861 441 860 401 q 865 521 863 481 l 879 521 l 879 0 l 860 0 l 860 75 q 860 119 860 97 q 861 163 861 140 q 821 94 846 125 q 763 40 796 63 q 691 4 731 17 q 608 -8 651 -8 q 503 13 551 -8 q 417 70 454 33 q 360 156 381 107 q 339 261 339 204 z "},"?":{"ha":669,"x_min":56,"x_max":585,"o":"m 74 828 q 65 830 69 829 q 56 832 60 831 q 153 965 83 913 q 313 1017 222 1017 q 419 995 369 1017 q 506 937 469 974 q 564 851 543 900 q 585 746 585 801 q 548 615 585 671 q 449 514 511 558 q 398 481 421 494 q 358 451 375 468 q 331 408 340 435 q 321 336 321 382 l 321 228 l 301 228 l 301 363 q 317 431 301 406 q 359 477 333 457 q 417 517 385 497 q 483 567 450 538 q 546 649 526 604 q 565 746 565 694 q 546 846 565 800 q 492 926 526 892 q 412 978 458 960 q 313 997 365 997 q 233 985 271 997 q 164 950 196 972 q 109 897 132 928 q 74 828 86 865 m 311 35 q 293 43 301 35 q 285 63 285 51 q 293 83 285 75 q 311 90 301 90 q 331 83 322 90 q 339 63 339 75 q 331 43 339 51 q 311 35 322 35 z "},"!":{"ha":314,"x_min":131,"x_max":185,"o":"m 157 50 q 139 58 147 50 q 131 78 131 67 q 139 98 131 90 q 157 106 147 106 q 176 98 168 106 q 185 78 185 90 q 176 58 185 67 q 157 50 168 50 m 147 1042 l 167 1042 l 167 231 l 147 231 l 147 1042 z "},":":{"ha":256,"x_min":100,"x_max":156,"o":"m 100 375 q 108 394 100 386 q 128 403 117 403 q 147 394 139 403 q 156 375 156 386 q 147 356 156 364 q 128 347 139 347 q 108 356 117 347 q 100 375 100 364 m 100 28 q 108 47 100 39 q 128 56 117 56 q 147 47 139 56 q 156 28 156 39 q 147 8 156 17 q 128 0 139 0 q 108 8 117 0 q 100 28 100 17 z "},";":{"ha":313,"x_min":50,"x_max":211,"o":"m 156 375 q 164 394 156 386 q 183 403 172 403 q 203 394 194 403 q 211 375 211 386 q 203 356 211 364 q 183 347 194 347 q 164 356 172 347 q 156 375 156 364 m 189 119 q 129 -24 158 47 q 69 -167 100 -94 l 50 -167 q 103 -24 78 -94 q 157 119 129 47 l 189 119 z "},"\"":{"ha":433,"x_min":114,"x_max":324,"o":"m 299 656 l 299 1000 l 324 1000 q 321 828 322 913 q 318 656 319 743 l 299 656 m 114 656 l 114 1000 l 139 1000 q 136 828 138 913 q 133 656 135 743 l 114 656 z "},"#":{"ha":799,"x_min":69,"x_max":729,"o":"m 282 565 q 268 449 275 507 q 254 332 261 390 l 490 332 q 504 449 497 390 q 518 565 511 507 l 282 565 m 451 0 q 469 156 461 79 q 488 313 478 233 l 251 313 q 233 156 242 233 q 215 0 225 79 l 196 0 q 214 156 206 79 q 232 313 222 233 l 69 313 q 70 322 69 318 q 71 332 71 326 l 235 332 q 249 449 242 390 q 263 565 256 507 l 101 565 q 102 575 101 571 q 103 585 103 579 l 265 585 l 303 893 l 322 893 l 285 585 l 521 585 l 558 893 l 578 893 l 540 585 l 729 585 q 728 575 729 579 q 728 565 728 571 l 538 565 q 524 449 531 507 q 510 332 517 390 l 697 332 q 697 322 697 326 q 696 313 696 318 l 507 313 q 489 156 497 233 q 471 0 481 79 l 451 0 z "},"%":{"ha":875,"x_min":76,"x_max":804,"o":"m 518 156 q 528 104 518 128 q 557 63 539 81 q 599 35 575 46 q 651 25 624 25 q 703 35 679 25 q 746 63 728 46 q 774 104 764 81 q 785 156 785 128 q 774 206 785 182 q 746 249 764 231 q 703 277 728 267 q 651 288 679 288 q 599 277 624 288 q 557 249 575 267 q 528 206 539 231 q 518 156 518 182 m 651 6 q 592 17 619 6 q 543 49 564 29 q 510 97 522 69 q 499 157 499 125 q 510 215 499 188 q 543 263 522 243 q 592 295 564 283 q 651 307 619 307 q 710 295 682 307 q 758 263 738 283 q 792 215 779 243 q 804 157 804 188 q 792 97 804 125 q 758 49 779 69 q 710 17 738 29 q 651 6 682 6 m 96 539 q 106 488 96 511 q 135 447 117 464 q 177 419 153 429 q 229 408 201 408 q 281 419 257 408 q 324 447 306 429 q 352 488 342 464 q 363 539 363 511 q 352 590 363 565 q 324 632 342 614 q 281 660 306 650 q 229 671 257 671 q 177 660 201 671 q 135 632 153 650 q 106 590 117 614 q 96 539 96 565 m 229 389 q 169 401 197 389 q 121 433 142 413 q 88 481 100 453 q 76 540 76 508 q 88 599 76 571 q 121 647 100 626 q 169 678 142 667 q 229 690 197 690 q 288 678 260 690 q 336 647 315 667 q 369 599 357 626 q 382 540 382 571 q 369 481 382 508 q 336 433 357 453 q 288 401 315 413 q 229 389 260 389 m 215 0 q 422 347 319 175 q 629 694 525 519 l 651 694 q 444 347 547 519 q 238 0 342 175 l 215 0 z "},"’":{"ha":256,"x_min":92,"x_max":175,"o":"m 100 794 l 92 819 q 134 888 121 847 q 138 978 147 929 q 151 983 144 981 q 164 988 157 985 q 158 881 175 932 q 100 794 140 831 z "},"(":{"ha":350,"x_min":74,"x_max":307,"o":"m 74 406 q 93 604 74 510 q 144 779 113 699 q 217 926 176 860 q 303 1038 258 992 q 305 1022 304 1029 q 307 1006 306 1014 q 228 897 267 960 q 160 758 190 835 q 111 593 129 682 q 93 406 93 504 q 111 218 93 307 q 160 53 129 129 q 228 -86 190 -24 q 307 -194 267 -149 q 305 -210 306 -203 q 303 -226 304 -218 q 217 -115 258 -181 q 144 32 176 -49 q 93 207 113 113 q 74 406 74 301 z "},")":{"ha":350,"x_min":43,"x_max":276,"o":"m 276 406 q 257 207 276 301 q 206 32 238 113 q 132 -115 174 -49 q 47 -226 90 -181 q 45 -210 46 -218 q 43 -194 44 -203 q 122 -86 83 -149 q 190 53 160 -24 q 239 218 221 129 q 257 406 257 307 q 239 593 257 504 q 190 758 221 682 q 122 897 160 835 q 43 1006 83 960 q 45 1022 44 1014 q 47 1038 46 1029 q 132 926 90 992 q 206 779 174 860 q 257 604 238 699 q 276 406 276 510 z "},"*":{"ha":589,"x_min":117,"x_max":472,"o":"m 315 799 q 393 754 354 776 q 471 710 432 732 l 458 689 l 304 781 q 303 692 303 736 q 301 603 303 647 l 282 603 l 282 779 q 206 735 243 757 q 129 692 168 714 l 117 713 l 271 800 l 117 892 q 122 900 119 896 q 126 908 124 904 q 204 863 165 885 q 282 818 243 842 l 282 1000 l 307 1000 q 306 909 306 954 q 304 818 306 864 q 383 863 344 840 q 463 907 422 885 q 467 899 465 903 q 472 890 469 894 q 394 844 432 867 q 315 799 356 822 z "},"+":{"ha":667,"x_min":83,"x_max":583,"o":"m 324 71 l 324 313 l 83 313 l 83 332 l 324 332 l 324 571 l 343 571 l 343 332 l 583 332 l 583 313 l 343 313 l 343 71 l 324 71 z "},"|":{"ha":306,"x_min":143,"x_max":163,"o":"m 143 -322 l 143 972 l 163 972 l 163 -322 l 143 -322 z "},"{":{"ha":376,"x_min":51,"x_max":332,"o":"m 51 399 l 51 432 q 106 452 85 433 q 140 499 128 471 q 157 559 153 526 q 161 619 161 592 l 161 872 q 172 969 161 935 q 199 1017 182 1003 q 237 1034 215 1032 q 281 1036 258 1036 l 332 1036 l 332 1017 l 253 1017 q 195 981 210 1017 q 181 861 181 944 l 181 653 q 173 546 181 588 q 153 478 165 504 q 124 439 140 453 q 89 415 107 425 q 124 390 107 404 q 153 350 140 376 q 173 283 165 324 q 181 178 181 242 l 181 -31 q 195 -150 181 -114 q 253 -186 210 -186 l 332 -186 l 332 -206 l 281 -206 q 231 -203 253 -206 q 193 -181 208 -200 q 169 -117 178 -161 q 161 8 161 -74 l 161 211 q 157 272 161 239 q 140 332 153 304 q 106 378 128 360 q 51 399 85 397 z "},"}":{"ha":376,"x_min":44,"x_max":325,"o":"m 325 432 l 325 399 q 258 367 281 396 q 226 301 236 339 q 216 224 217 263 q 215 161 215 185 l 215 -42 q 205 -140 215 -106 q 178 -188 194 -174 q 140 -204 161 -203 q 96 -206 118 -206 l 44 -206 l 44 -186 l 124 -186 q 181 -150 167 -186 q 196 -31 196 -114 l 196 229 q 206 308 196 276 q 229 362 215 340 q 259 396 243 383 q 288 415 275 408 q 253 439 269 425 q 224 478 236 453 q 203 546 211 504 q 196 653 196 588 l 196 861 q 181 981 196 944 q 124 1017 167 1017 l 44 1017 l 44 1036 l 96 1036 q 140 1034 118 1036 q 178 1017 161 1032 q 205 969 194 1003 q 215 872 215 936 l 215 669 q 215 630 215 653 q 218 581 215 607 q 226 528 221 554 q 244 482 232 503 q 276 447 257 461 q 325 432 296 433 z "},"-":{"ha":456,"x_min":100,"x_max":356,"o":"m 100 256 l 100 275 l 356 275 l 356 256 l 100 256 z "},"/":{"ha":536,"x_min":65,"x_max":471,"o":"m 65 -26 q 258 498 163 238 q 451 1022 354 758 l 471 1022 q 278 498 374 758 q 85 -26 182 238 l 65 -26 z "},"\\":{"ha":536,"x_min":65,"x_max":471,"o":"m 85 1022 q 278 498 182 758 q 471 -26 374 238 l 451 -26 q 258 498 354 238 q 65 1022 163 758 l 85 1022 z "},"G":{"ha":942,"x_min":85,"x_max":835,"o":"m 833 417 l 833 58 q 715 8 778 26 q 581 -11 651 -11 q 376 28 468 -11 q 220 134 285 67 q 120 292 156 201 q 85 485 85 382 q 124 678 85 588 q 230 837 163 769 q 388 944 297 904 q 581 983 478 983 q 715 965 651 983 q 835 914 778 947 l 824 897 q 709 947 771 929 q 581 964 647 964 q 395 926 482 964 q 244 822 308 888 q 142 669 179 757 q 104 483 104 582 q 138 299 104 385 q 233 148 171 213 q 381 46 294 83 q 576 8 468 8 q 701 24 642 8 q 814 71 761 40 l 814 397 l 575 397 l 575 417 l 833 417 z "},"V":{"ha":886,"x_min":40,"x_max":846,"o":"m 61 972 q 246 503 160 738 q 431 35 332 269 q 437 17 433 26 q 443 0 440 8 q 449 17 446 8 q 456 35 453 26 q 640 503 554 269 q 825 972 726 738 l 846 972 q 644 464 739 718 q 443 -44 550 210 q 242 464 336 210 q 40 972 147 718 l 61 972 z "},"S":{"ha":738,"x_min":71,"x_max":661,"o":"m 611 926 l 603 911 q 558 928 583 919 q 503 944 532 936 q 442 956 474 951 q 381 960 411 960 q 278 944 324 960 q 200 900 232 928 q 151 835 168 872 q 133 758 133 799 q 172 656 133 693 q 270 592 211 618 q 397 542 329 565 q 524 486 465 519 q 622 400 583 453 q 661 261 661 347 q 638 147 661 197 q 575 62 615 97 q 480 8 535 26 q 360 -11 425 -11 q 255 1 303 -11 q 170 31 207 14 q 108 64 133 47 q 71 88 83 81 l 82 106 q 133 74 103 90 q 201 42 164 57 q 279 18 238 28 q 364 8 321 8 q 465 24 415 8 q 554 70 515 39 q 617 149 593 101 q 642 260 642 196 q 603 392 642 342 q 505 474 564 442 q 378 528 446 506 q 251 577 310 550 q 153 645 192 604 q 114 754 114 686 q 134 842 114 801 q 189 914 154 883 q 271 961 224 944 q 372 978 318 978 q 428 974 397 978 q 492 964 460 971 q 555 947 524 957 q 611 926 586 938 z "},"Z":{"ha":871,"x_min":33,"x_max":833,"o":"m 128 972 l 788 972 l 68 19 l 833 19 l 833 0 l 33 0 q 391 484 211 250 q 749 953 571 718 l 147 953 q 84 964 104 953 q 64 1015 64 975 l 64 1021 l 86 1021 l 86 1004 q 95 982 86 992 q 128 972 104 972 z "},"W":{"ha":1292,"x_min":42,"x_max":1253,"o":"m 1253 972 q 1194 831 1225 908 q 1129 669 1163 753 q 1062 501 1096 586 q 997 336 1028 415 q 850 -44 924 149 l 644 510 l 635 539 l 625 510 q 557 301 590 403 q 528 212 543 258 q 498 119 513 165 q 469 32 483 74 q 444 -44 456 -10 q 243 464 338 210 q 42 972 149 718 l 63 972 q 116 842 88 914 q 175 694 144 771 q 236 538 206 617 q 296 386 267 460 q 432 35 363 214 l 444 0 l 454 35 l 626 567 l 475 972 l 496 972 q 629 617 565 789 q 685 464 656 543 q 741 308 714 385 q 793 162 768 232 q 838 35 818 92 q 844 17 840 26 q 850 0 847 8 q 853 10 851 4 q 858 21 856 15 q 863 35 861 26 q 997 386 931 214 q 1057 538 1026 460 q 1118 694 1088 617 q 1178 842 1149 771 q 1232 972 1207 914 l 1253 972 z "},"X":{"ha":750,"x_min":42,"x_max":711,"o":"m 361 500 q 208 736 285 618 q 56 972 132 854 l 78 972 q 222 751 150 861 q 367 529 294 640 q 372 520 369 525 q 378 511 375 515 q 383 520 381 515 q 389 529 386 525 q 531 751 460 640 q 672 972 601 861 l 689 972 q 538 735 613 851 q 386 499 463 619 q 549 249 467 374 q 711 0 631 125 l 688 0 l 433 388 q 402 438 418 411 q 369 488 386 465 q 364 478 367 483 q 358 469 361 474 q 208 235 283 351 q 58 0 133 118 l 42 0 q 201 250 122 126 q 361 500 281 374 z "},"Æ":{"ha":868,"x_min":43,"x_max":801,"o":"m 232 461 l 439 461 l 439 442 l 232 442 l 232 461 m 446 972 q 440 955 443 964 q 433 938 436 946 q 249 469 335 703 q 64 0 163 235 l 43 0 q 144 247 97 126 q 235 485 190 367 q 327 724 281 604 q 428 972 374 844 l 446 972 m 428 0 l 428 972 l 782 972 l 782 953 l 447 953 l 447 500 l 728 500 l 728 481 l 447 481 l 447 19 l 801 19 l 801 0 l 428 0 z "},"Ñ":{"ha":1122,"x_min":164,"x_max":957,"o":"m 957 972 l 957 -44 q 573 447 758 204 q 206 931 388 689 q 192 949 199 940 q 179 967 186 957 q 181 944 181 956 q 183 922 182 933 l 183 0 l 164 0 l 164 1017 q 358 767 264 890 q 544 523 453 644 q 728 281 636 401 q 915 39 819 161 q 928 21 922 29 q 942 3 935 13 q 940 25 940 14 q 938 47 939 36 l 938 972 l 957 972 m 569 1097 q 531 1131 547 1122 q 494 1139 514 1139 q 469 1135 483 1139 q 440 1124 454 1132 q 416 1101 426 1115 q 403 1063 406 1086 q 394 1064 399 1064 q 385 1065 389 1064 q 397 1108 386 1090 q 424 1138 408 1126 q 460 1153 440 1149 q 499 1158 479 1158 q 549 1144 526 1158 q 594 1106 572 1129 q 633 1072 617 1081 q 669 1064 650 1064 q 695 1067 681 1064 q 724 1079 710 1071 q 748 1102 738 1088 q 761 1140 758 1117 q 770 1139 765 1139 q 779 1138 775 1139 q 767 1094 778 1113 q 740 1065 756 1076 q 704 1049 724 1054 q 665 1044 685 1044 q 615 1059 638 1044 q 569 1097 592 1074 z "},"Å":{"ha":889,"x_min":42,"x_max":847,"o":"m 378 1158 q 398 1110 378 1131 q 446 1090 418 1090 q 494 1110 474 1090 q 514 1158 514 1131 q 494 1206 514 1186 q 446 1226 474 1226 q 398 1206 418 1226 q 378 1158 378 1186 m 358 1158 q 383 1221 358 1196 q 446 1246 408 1246 q 508 1221 483 1246 q 533 1158 533 1196 q 508 1096 533 1121 q 446 1071 483 1071 q 383 1096 408 1071 q 358 1158 358 1121 m 231 442 l 660 442 l 660 461 l 231 461 l 231 442 m 826 0 q 642 469 728 235 q 457 938 556 703 q 451 955 454 946 q 444 972 447 964 q 438 955 442 964 q 432 938 435 946 q 247 469 333 703 q 63 0 161 235 l 42 0 q 243 508 149 254 q 444 1017 338 763 q 646 508 551 763 q 847 0 740 254 l 826 0 z "},"Á":{"ha":889,"x_min":42,"x_max":847,"o":"m 231 442 l 660 442 l 660 461 l 231 461 l 231 442 m 847 0 q 646 508 740 254 q 444 1017 551 763 q 243 508 338 763 q 42 0 149 254 l 63 0 q 247 469 161 235 q 432 938 333 703 q 438 955 435 946 q 444 972 442 964 q 451 955 447 964 q 457 938 454 946 q 642 469 556 703 q 826 0 728 235 l 847 0 m 433 1042 q 496 1134 465 1088 q 558 1226 526 1181 l 581 1226 q 518 1134 549 1181 q 456 1042 488 1088 l 433 1042 z "},"É":{"ha":844,"x_min":165,"x_max":761,"o":"m 165 0 l 165 972 l 742 972 l 742 953 l 185 953 l 185 500 l 688 500 l 688 481 l 185 481 l 185 19 l 761 19 l 761 0 l 165 0 m 439 1042 q 501 1134 471 1088 q 564 1226 532 1181 l 586 1226 q 524 1134 554 1181 q 461 1042 493 1088 l 439 1042 z "},"Í":{"ha":350,"x_min":144,"x_max":292,"o":"m 165 972 l 185 972 l 185 0 l 165 0 l 165 972 m 144 1042 q 207 1134 176 1088 q 269 1226 238 1181 l 292 1226 q 229 1134 260 1181 q 167 1042 199 1088 l 144 1042 z "},"Ó":{"ha":1164,"x_min":85,"x_max":1079,"o":"m 85 485 q 124 678 85 588 q 230 837 163 769 q 388 944 297 904 q 581 983 478 983 q 774 944 683 983 q 933 837 865 904 q 1040 678 1000 769 q 1079 485 1079 588 q 1040 292 1079 382 q 933 134 1000 201 q 774 28 865 67 q 581 -11 683 -11 q 388 28 478 -11 q 230 134 297 67 q 124 292 163 201 q 85 485 85 382 m 104 483 q 142 299 104 385 q 243 148 179 213 q 393 46 307 83 q 576 8 479 8 q 763 46 675 8 q 917 148 851 83 q 1022 299 983 213 q 1060 485 1060 386 q 1022 670 1060 583 q 918 822 983 757 q 766 926 853 888 q 581 964 679 964 q 395 926 482 964 q 244 822 308 888 q 142 669 179 757 q 104 483 104 582 m 542 1042 q 604 1134 574 1088 q 667 1226 635 1181 l 689 1226 q 626 1134 657 1181 q 564 1042 596 1088 l 542 1042 z "},"Ú":{"ha":928,"x_min":151,"x_max":776,"o":"m 464 -11 q 340 10 397 -11 q 240 72 282 31 q 175 174 199 113 q 151 314 151 235 l 151 972 l 171 972 l 171 318 q 192 185 171 243 q 253 88 214 128 q 346 28 292 49 q 464 8 400 8 q 581 28 526 8 q 674 88 635 49 q 735 185 713 128 q 757 318 757 243 l 757 972 l 776 972 l 776 314 q 752 174 776 235 q 686 72 728 113 q 588 10 644 31 q 464 -11 531 -11 m 440 1042 q 503 1134 472 1088 q 565 1226 533 1181 l 588 1226 q 525 1134 556 1181 q 463 1042 494 1088 l 440 1042 z "},"Ä":{"ha":889,"x_min":42,"x_max":847,"o":"m 231 442 l 660 442 l 660 461 l 231 461 l 231 442 m 847 0 q 646 508 740 254 q 444 1017 551 763 q 243 508 338 763 q 42 0 149 254 l 63 0 q 247 469 161 235 q 432 938 333 703 q 438 955 435 946 q 444 972 442 964 q 451 955 447 964 q 457 938 454 946 q 642 469 556 703 q 826 0 728 235 l 847 0 m 533 1097 q 542 1117 533 1108 q 561 1125 550 1125 q 581 1117 572 1125 q 589 1097 589 1108 q 581 1078 589 1086 q 561 1069 572 1069 q 542 1078 550 1069 q 533 1097 533 1086 m 304 1097 q 313 1117 304 1108 q 332 1125 321 1125 q 351 1117 343 1125 q 360 1097 360 1108 q 351 1078 360 1086 q 332 1069 343 1069 q 313 1078 321 1069 q 304 1097 304 1086 z "},"Ë":{"ha":844,"x_min":165,"x_max":761,"o":"m 165 0 l 165 972 l 742 972 l 742 953 l 185 953 l 185 500 l 688 500 l 688 481 l 185 481 l 185 19 l 761 19 l 761 0 l 165 0 m 553 1097 q 561 1117 553 1108 q 581 1125 569 1125 q 600 1117 592 1125 q 608 1097 608 1108 q 600 1078 608 1086 q 581 1069 592 1069 q 561 1078 569 1069 q 553 1097 553 1086 m 324 1097 q 332 1117 324 1108 q 351 1125 340 1125 q 371 1117 363 1125 q 379 1097 379 1108 q 371 1078 379 1086 q 351 1069 363 1069 q 332 1078 340 1069 q 324 1097 324 1086 z "},"Ï":{"ha":350,"x_min":33,"x_max":318,"o":"m 165 972 l 185 972 l 185 0 l 165 0 l 165 972 m 263 1097 q 271 1117 263 1108 q 290 1125 279 1125 q 310 1117 301 1125 q 318 1097 318 1108 q 310 1078 318 1086 q 290 1069 301 1069 q 271 1078 279 1069 q 263 1097 263 1086 m 33 1097 q 42 1117 33 1108 q 61 1125 50 1125 q 81 1117 72 1125 q 89 1097 89 1108 q 81 1078 89 1086 q 61 1069 72 1069 q 42 1078 50 1069 q 33 1097 33 1086 z "},"Ö":{"ha":1164,"x_min":85,"x_max":1079,"o":"m 85 485 q 124 678 85 588 q 230 837 163 769 q 388 944 297 904 q 581 983 478 983 q 774 944 683 983 q 933 837 865 904 q 1040 678 1000 769 q 1079 485 1079 588 q 1040 292 1079 382 q 933 134 1000 201 q 774 28 865 67 q 581 -11 683 -11 q 388 28 478 -11 q 230 134 297 67 q 124 292 163 201 q 85 485 85 382 m 104 483 q 142 299 104 385 q 243 148 179 213 q 393 46 307 83 q 576 8 479 8 q 763 46 675 8 q 917 148 851 83 q 1022 299 983 213 q 1060 485 1060 386 q 1022 670 1060 583 q 918 822 983 757 q 766 926 853 888 q 581 964 679 964 q 395 926 482 964 q 244 822 308 888 q 142 669 179 757 q 104 483 104 582 m 656 1097 q 664 1117 656 1108 q 683 1125 672 1125 q 703 1117 694 1125 q 711 1097 711 1108 q 703 1078 711 1086 q 683 1069 694 1069 q 664 1078 672 1069 q 656 1097 656 1086 m 426 1097 q 435 1117 426 1108 q 454 1125 443 1125 q 474 1117 465 1125 q 482 1097 482 1108 q 474 1078 482 1086 q 454 1069 465 1069 q 435 1078 443 1069 q 426 1097 426 1086 z "},"Ü":{"ha":928,"x_min":151,"x_max":776,"o":"m 464 -11 q 340 10 397 -11 q 240 72 282 31 q 175 174 199 113 q 151 314 151 235 l 151 972 l 171 972 l 171 318 q 192 185 171 243 q 253 88 214 128 q 346 28 292 49 q 464 8 400 8 q 581 28 526 8 q 674 88 635 49 q 735 185 713 128 q 757 318 757 243 l 757 972 l 776 972 l 776 314 q 752 174 776 235 q 686 72 728 113 q 588 10 644 31 q 464 -11 531 -11 m 568 1097 q 576 1117 568 1108 q 596 1125 585 1125 q 615 1117 607 1125 q 624 1097 624 1108 q 615 1078 624 1086 q 596 1069 607 1069 q 576 1078 585 1069 q 568 1097 568 1086 m 339 1097 q 347 1117 339 1108 q 367 1125 356 1125 q 386 1117 378 1125 q 394 1097 394 1108 q 386 1078 394 1086 q 367 1069 378 1069 q 347 1078 356 1069 q 339 1097 339 1086 z "},"À":{"ha":889,"x_min":42,"x_max":847,"o":"m 231 442 l 660 442 l 660 461 l 231 461 l 231 442 m 847 0 q 646 508 740 254 q 444 1017 551 763 q 243 508 338 763 q 42 0 149 254 l 63 0 q 247 469 161 235 q 432 938 333 703 q 438 955 435 946 q 444 972 442 964 q 451 955 447 964 q 457 938 454 946 q 642 469 556 703 q 826 0 728 235 l 847 0 m 331 1226 q 393 1134 363 1181 q 456 1042 424 1088 l 433 1042 q 371 1134 401 1088 q 308 1226 340 1181 l 331 1226 z "},"È":{"ha":844,"x_min":165,"x_max":761,"o":"m 165 0 l 165 972 l 742 972 l 742 953 l 185 953 l 185 500 l 688 500 l 688 481 l 185 481 l 185 19 l 761 19 l 761 0 l 165 0 m 394 1226 q 457 1134 426 1181 q 519 1042 488 1088 l 497 1042 q 435 1134 465 1088 q 372 1226 404 1181 l 394 1226 z "},"Ì":{"ha":350,"x_min":57,"x_max":204,"o":"m 165 972 l 185 972 l 185 0 l 165 0 l 165 972 m 79 1226 q 142 1134 111 1181 q 204 1042 172 1088 l 182 1042 q 119 1134 150 1088 q 57 1226 89 1181 l 79 1226 z "},"Ò":{"ha":1164,"x_min":85,"x_max":1079,"o":"m 85 485 q 124 678 85 588 q 230 837 163 769 q 388 944 297 904 q 581 983 478 983 q 774 944 683 983 q 933 837 865 904 q 1040 678 1000 769 q 1079 485 1079 588 q 1040 292 1079 382 q 933 134 1000 201 q 774 28 865 67 q 581 -11 683 -11 q 388 28 478 -11 q 230 134 297 67 q 124 292 163 201 q 85 485 85 382 m 104 483 q 142 299 104 385 q 243 148 179 213 q 393 46 307 83 q 576 8 479 8 q 763 46 675 8 q 917 148 851 83 q 1022 299 983 213 q 1060 485 1060 386 q 1022 670 1060 583 q 918 822 983 757 q 766 926 853 888 q 581 964 679 964 q 395 926 482 964 q 244 822 308 888 q 142 669 179 757 q 104 483 104 582 m 464 1226 q 526 1134 496 1181 q 589 1042 557 1088 l 567 1042 q 504 1134 535 1088 q 442 1226 474 1181 l 464 1226 z "},"Ù":{"ha":928,"x_min":151,"x_max":776,"o":"m 464 -11 q 340 10 397 -11 q 240 72 282 31 q 175 174 199 113 q 151 314 151 235 l 151 972 l 171 972 l 171 318 q 192 185 171 243 q 253 88 214 128 q 346 28 292 49 q 464 8 400 8 q 581 28 526 8 q 674 88 635 49 q 735 185 713 128 q 757 318 757 243 l 757 972 l 776 972 l 776 314 q 752 174 776 235 q 686 72 728 113 q 588 10 644 31 q 464 -11 531 -11 m 369 1226 q 432 1134 401 1181 q 494 1042 463 1088 l 472 1042 q 410 1134 440 1088 q 347 1226 379 1181 l 369 1226 z "},"Ý":{"ha":825,"x_min":38,"x_max":786,"o":"m 422 364 l 422 0 l 403 0 l 403 364 q 220 668 311 517 q 38 972 129 819 l 61 972 q 229 694 144 832 q 396 414 314 556 l 414 378 q 422 396 418 388 q 429 414 425 404 l 763 972 l 786 972 l 422 364 m 404 1042 q 467 1134 436 1088 q 529 1226 497 1181 l 551 1226 q 489 1134 519 1181 q 426 1042 458 1088 l 404 1042 z "},"¡":{"ha":308,"x_min":128,"x_max":182,"o":"m 154 700 q 174 692 165 700 q 182 672 182 683 q 174 652 182 660 q 154 644 165 644 q 136 652 144 644 q 128 672 128 660 q 136 692 128 683 q 154 700 144 700 m 144 519 l 164 519 l 164 -292 l 144 -292 l 144 519 z "},"Ø":{"ha":1163,"x_min":82,"x_max":1076,"o":"m 140 11 q 255 149 189 69 q 397 317 321 228 q 551 502 472 407 q 706 687 631 597 q 848 856 782 776 q 963 994 914 936 l 974 983 q 859 846 925 925 q 717 676 793 767 q 563 492 642 586 q 408 307 483 397 q 266 138 332 217 q 151 0 200 58 l 140 11 m 82 485 q 121 678 82 588 q 227 837 160 769 q 385 944 294 904 q 578 983 475 983 q 772 944 681 983 q 930 837 863 904 q 1037 678 997 769 q 1076 485 1076 588 q 1037 292 1076 382 q 930 134 997 201 q 772 28 863 67 q 578 -11 681 -11 q 385 28 475 -11 q 227 134 294 67 q 121 292 160 201 q 82 485 82 382 m 101 483 q 139 299 101 385 q 240 148 176 213 q 390 46 304 83 q 574 8 476 8 q 760 46 672 8 q 915 148 849 83 q 1019 299 981 213 q 1057 485 1057 386 q 1019 670 1057 583 q 915 822 981 757 q 763 926 850 888 q 578 964 676 964 q 392 926 479 964 q 241 822 306 888 q 139 669 176 757 q 101 483 101 582 z "},"¿":{"ha":671,"x_min":88,"x_max":617,"o":"m 599 -79 q 608 -81 603 -81 q 617 -83 613 -82 q 519 -216 589 -164 q 360 -268 450 -268 q 253 -247 303 -268 q 166 -188 203 -225 q 108 -102 129 -151 q 88 3 88 -53 q 124 134 88 78 q 224 235 161 190 q 274 267 250 254 q 315 297 297 281 q 342 340 332 314 q 351 413 351 367 l 351 521 l 371 521 l 371 386 q 355 317 371 343 q 313 272 339 292 q 255 231 288 251 q 189 182 222 211 q 126 99 146 144 q 107 3 107 54 q 126 -97 107 -51 q 180 -177 146 -143 q 260 -230 214 -211 q 360 -249 307 -249 q 439 -236 401 -249 q 508 -201 476 -224 q 563 -148 540 -179 q 599 -79 586 -117 m 361 714 q 379 706 371 714 q 388 686 388 697 q 379 666 388 674 q 361 658 371 658 q 342 666 350 658 q 333 686 333 674 q 342 706 333 697 q 361 714 350 714 z "},"Ã":{"ha":889,"x_min":42,"x_max":847,"o":"m 231 442 l 660 442 l 660 461 l 231 461 l 231 442 m 847 0 q 646 508 740 254 q 444 1017 551 763 q 243 508 338 763 q 42 0 149 254 l 63 0 q 247 469 161 235 q 432 938 333 703 q 438 955 435 946 q 444 972 442 964 q 451 955 447 964 q 457 938 454 946 q 642 469 556 703 q 826 0 728 235 l 847 0 m 433 1090 q 394 1124 411 1115 q 358 1132 378 1132 q 333 1128 347 1132 q 304 1117 318 1125 q 280 1094 290 1108 q 267 1056 269 1079 q 258 1057 263 1057 q 249 1058 253 1057 q 261 1101 250 1083 q 288 1131 272 1119 q 324 1147 304 1142 q 363 1151 343 1151 q 413 1137 390 1151 q 458 1099 436 1122 q 497 1065 481 1074 q 533 1057 514 1057 q 559 1060 544 1057 q 588 1072 574 1064 q 612 1095 601 1081 q 625 1133 622 1110 q 634 1132 629 1132 q 643 1131 639 1132 q 631 1088 642 1106 q 603 1058 619 1069 q 568 1042 588 1047 q 529 1038 549 1038 q 478 1052 501 1038 q 433 1090 456 1067 z "},"Õ":{"ha":1164,"x_min":85,"x_max":1079,"o":"m 85 485 q 124 678 85 588 q 230 837 163 769 q 388 944 297 904 q 581 983 478 983 q 774 944 683 983 q 933 837 865 904 q 1040 678 1000 769 q 1079 485 1079 588 q 1040 292 1079 382 q 933 134 1000 201 q 774 28 865 67 q 581 -11 683 -11 q 388 28 478 -11 q 230 134 297 67 q 124 292 163 201 q 85 485 85 382 m 104 483 q 142 299 104 385 q 243 148 179 213 q 393 46 307 83 q 576 8 479 8 q 763 46 675 8 q 917 148 851 83 q 1022 299 983 213 q 1060 485 1060 386 q 1022 670 1060 583 q 918 822 983 757 q 766 926 853 888 q 581 964 679 964 q 395 926 482 964 q 244 822 308 888 q 142 669 179 757 q 104 483 104 582 m 550 1144 q 511 1178 528 1169 q 475 1186 494 1186 q 449 1183 464 1186 q 421 1171 435 1179 q 397 1148 407 1163 q 383 1110 386 1133 q 374 1111 379 1111 q 365 1113 369 1111 q 378 1156 367 1138 q 405 1185 389 1174 q 440 1201 421 1196 q 479 1206 460 1206 q 530 1191 507 1206 q 575 1153 553 1176 q 614 1119 597 1128 q 650 1111 631 1111 q 676 1115 661 1111 q 704 1126 690 1118 q 728 1149 718 1135 q 742 1188 739 1164 q 751 1186 746 1186 q 760 1185 756 1186 q 747 1142 758 1160 q 720 1113 736 1124 q 685 1097 704 1101 q 646 1092 665 1092 q 595 1106 618 1092 q 550 1144 572 1121 z "},"â":{"ha":708,"x_min":63,"x_max":603,"o":"m 82 261 q 101 163 82 208 q 155 84 121 118 q 234 31 189 50 q 332 11 279 11 q 429 31 383 11 q 510 84 475 50 q 564 163 544 118 q 583 261 583 208 q 564 358 583 313 q 510 439 544 404 q 429 493 475 474 q 332 513 383 513 q 234 493 279 513 q 155 439 189 474 q 101 358 121 404 q 82 261 82 313 m 63 261 q 83 367 63 317 q 141 453 104 417 q 226 510 178 489 q 332 532 275 532 q 485 484 418 532 q 583 361 553 436 q 585 441 583 401 q 589 521 586 481 l 603 521 l 603 0 l 583 0 l 583 75 q 584 119 583 97 q 585 163 585 140 q 544 94 569 125 q 487 40 519 63 q 415 4 454 17 q 332 -8 375 -8 q 226 13 275 -8 q 141 70 178 33 q 83 156 104 107 q 63 261 63 204 m 383 915 q 467 790 425 853 q 550 664 508 726 l 528 664 q 456 771 492 717 q 383 878 419 825 q 311 771 347 825 q 239 664 275 717 l 217 664 q 300 790 258 726 q 383 915 342 853 z "},"ê":{"ha":607,"x_min":63,"x_max":567,"o":"m 518 64 q 434 11 482 31 q 332 -8 386 -8 q 226 13 275 -8 q 141 70 178 33 q 83 156 104 107 q 63 261 63 204 q 83 367 63 317 q 141 453 104 417 q 226 512 178 490 q 332 533 275 533 q 477 484 418 533 q 567 360 536 435 q 454 315 514 339 q 333 265 394 290 q 212 216 272 240 q 99 169 151 192 q 189 55 126 99 q 332 11 251 11 q 426 28 382 11 q 503 78 469 46 l 518 64 m 540 369 q 459 472 511 432 q 332 513 407 513 q 234 493 279 513 q 155 439 189 474 q 101 358 121 404 q 82 261 82 313 q 92 188 82 221 q 200 232 143 208 q 315 278 257 256 q 431 325 374 301 q 540 369 489 349 m 335 917 q 418 791 376 854 q 501 665 460 728 l 479 665 q 407 772 443 718 q 335 879 371 826 q 263 772 299 826 q 190 665 226 718 l 168 665 q 251 791 210 728 q 335 917 293 854 z "},"î":{"ha":231,"x_min":-50,"x_max":283,"o":"m 125 0 l 106 0 l 106 521 l 125 521 l 125 0 m 117 917 q 200 791 158 854 q 283 665 242 728 l 261 665 q 189 772 225 718 q 117 879 153 826 q 44 772 81 826 q -28 665 8 718 l -50 665 q 33 791 -8 728 q 117 917 75 854 z "},"ô":{"ha":667,"x_min":63,"x_max":604,"o":"m 63 261 q 83 367 63 317 q 141 453 104 417 q 226 512 178 490 q 332 533 275 533 q 438 512 388 533 q 524 453 488 490 q 583 367 561 417 q 604 261 604 317 q 583 156 604 204 q 524 70 561 107 q 438 13 488 33 q 332 -8 388 -8 q 226 13 275 -8 q 141 70 178 33 q 83 156 104 107 q 63 261 63 204 m 82 261 q 101 163 82 208 q 155 84 121 118 q 234 31 189 50 q 332 11 279 11 q 429 31 383 11 q 510 84 475 50 q 564 163 544 118 q 583 261 583 208 q 564 358 583 313 q 510 439 544 404 q 429 493 475 474 q 332 513 383 513 q 234 493 279 513 q 155 439 189 474 q 101 358 121 404 q 82 261 82 313 m 332 917 q 415 791 374 854 q 499 665 457 728 l 476 665 q 404 772 440 718 q 332 879 368 826 q 260 772 296 826 q 188 665 224 718 l 165 665 q 249 791 207 728 q 332 917 290 854 z "},"û":{"ha":611,"x_min":100,"x_max":553,"o":"m 506 0 l 492 0 l 490 136 q 401 30 463 69 q 261 -10 339 -10 q 145 33 188 -10 q 100 146 103 76 l 100 521 l 119 521 l 119 136 q 156 49 122 86 q 251 10 190 13 q 341 25 299 10 q 415 67 383 40 q 467 133 447 94 q 486 215 486 171 l 486 521 l 506 521 l 506 0 m 386 917 q 469 791 428 854 q 553 665 511 728 l 531 665 q 458 772 494 718 q 386 879 422 826 q 314 772 350 826 q 242 665 278 718 l 219 665 q 303 791 261 728 q 386 917 344 854 z "},"ã":{"ha":708,"x_min":63,"x_max":603,"o":"m 82 261 q 101 163 82 208 q 155 84 121 118 q 234 31 189 50 q 332 11 279 11 q 429 31 383 11 q 510 84 475 50 q 564 163 544 118 q 583 261 583 208 q 564 358 583 313 q 510 439 544 404 q 429 493 475 474 q 332 513 383 513 q 234 493 279 513 q 155 439 189 474 q 101 358 121 404 q 82 261 82 313 m 63 261 q 83 367 63 317 q 141 453 104 417 q 226 510 178 489 q 332 532 275 532 q 485 484 418 532 q 583 361 553 436 q 585 441 583 401 q 589 521 586 481 l 603 521 l 603 0 l 583 0 l 583 75 q 584 119 583 97 q 585 163 585 140 q 544 94 569 125 q 487 40 519 63 q 415 4 454 17 q 332 -8 375 -8 q 226 13 275 -8 q 141 70 178 33 q 83 156 104 107 q 63 261 63 204 m 381 690 q 342 724 358 715 q 306 732 325 732 q 280 728 294 732 q 251 717 265 725 q 227 694 238 708 q 214 656 217 679 q 205 657 210 657 q 196 658 200 657 q 208 701 197 683 q 235 731 219 719 q 271 747 251 742 q 310 751 290 751 q 360 737 338 751 q 406 699 383 722 q 444 665 428 674 q 481 657 461 657 q 506 660 492 657 q 535 672 521 664 q 559 695 549 681 q 572 733 569 710 q 581 732 576 732 q 590 731 586 732 q 578 688 589 706 q 551 658 567 669 q 515 642 535 647 q 476 638 496 638 q 426 652 449 638 q 381 690 403 667 z "},"`":{"ha":278,"x_min":-19,"x_max":128,"o":"m 3 850 q 65 758 35 804 q 128 665 96 711 l 106 665 q 43 758 74 711 q -19 850 13 804 l 3 850 z "},"^":{"ha":572,"x_min":119,"x_max":453,"o":"m 286 917 q 369 791 328 854 q 453 665 411 728 l 431 665 q 358 772 394 718 q 286 879 322 826 q 214 772 250 826 q 142 665 178 718 l 119 665 q 203 791 161 728 q 286 917 244 854 z "},"õ":{"ha":667,"x_min":63,"x_max":604,"o":"m 63 261 q 83 367 63 317 q 141 453 104 417 q 226 512 178 490 q 332 533 275 533 q 438 512 388 533 q 524 453 488 490 q 583 367 561 417 q 604 261 604 317 q 583 156 604 204 q 524 70 561 107 q 438 13 488 33 q 332 -8 388 -8 q 226 13 275 -8 q 141 70 178 33 q 83 156 104 107 q 63 261 63 204 m 82 261 q 101 163 82 208 q 155 84 121 118 q 234 31 189 50 q 332 11 279 11 q 429 31 383 11 q 510 84 475 50 q 564 163 544 118 q 583 261 583 208 q 564 358 583 313 q 510 439 544 404 q 429 493 475 474 q 332 513 383 513 q 234 493 279 513 q 155 439 189 474 q 101 358 121 404 q 82 261 82 313 m 324 690 q 285 724 301 715 q 249 732 268 732 q 223 728 238 732 q 194 717 208 725 q 170 694 181 708 q 157 656 160 679 q 148 657 153 657 q 139 658 143 657 q 151 701 140 683 q 178 731 163 719 q 214 747 194 742 q 253 751 233 751 q 303 737 281 751 q 349 699 326 722 q 388 665 371 674 q 424 657 404 657 q 449 660 435 657 q 478 672 464 664 q 502 695 492 681 q 515 733 513 710 q 524 732 519 732 q 533 731 529 732 q 521 688 532 706 q 494 658 510 669 q 458 642 478 647 q 419 638 439 638 q 369 652 392 638 q 324 690 346 667 z "},"'":{"ha":249,"x_min":114,"x_max":139,"o":"m 114 656 l 114 1000 l 139 1000 q 136 828 138 913 q 133 656 135 743 l 114 656 z "},"_":{"ha":756,"x_min":100,"x_max":656,"o":"m 656 0 l 100 0 l 100 19 l 656 19 l 656 0 z "},"[":{"ha":413,"x_min":143,"x_max":369,"o":"m 143 -207 l 143 1036 l 369 1036 l 369 1017 l 165 1017 l 165 -187 l 369 -187 l 369 -207 l 143 -207 z "},"]":{"ha":413,"x_min":43,"x_max":269,"o":"m 269 1036 l 269 -207 l 43 -207 l 43 -187 l 247 -187 l 247 1017 l 43 1017 l 43 1036 l 269 1036 z "},"°":{"ha":401,"x_min":94,"x_max":307,"o":"m 201 692 q 263 717 238 692 q 288 778 288 742 q 263 839 288 814 q 201 864 238 864 q 140 839 165 864 q 114 778 114 814 q 140 717 114 742 q 201 692 165 692 m 94 776 q 125 853 94 822 q 201 883 156 883 q 276 853 246 883 q 307 776 307 822 q 276 702 307 732 q 201 672 246 672 q 125 702 156 672 q 94 776 94 732 z "},"ç":{"ha":560,"x_min":63,"x_max":503,"o":"m 489 65 l 503 51 q 424 8 467 24 q 332 -8 381 -8 q 226 13 275 -8 q 141 70 178 33 q 83 156 104 107 q 63 261 63 204 q 83 367 63 317 q 141 453 104 417 q 226 510 178 489 q 332 532 275 532 q 424 516 381 532 q 503 472 468 500 q 496 465 500 468 q 489 457 492 461 q 417 498 457 483 q 332 513 376 513 q 234 493 279 513 q 155 439 189 474 q 101 358 121 404 q 82 261 82 313 q 101 163 82 208 q 155 84 121 118 q 234 31 189 50 q 332 11 279 11 q 417 26 376 11 q 489 65 457 40 m 308 0 l 328 0 l 328 -8 q 347 -59 328 -44 q 385 -85 367 -74 q 430 -131 417 -106 q 443 -176 443 -157 q 408 -278 443 -247 q 326 -310 372 -310 q 259 -290 290 -310 q 214 -229 228 -269 q 224 -226 219 -228 q 235 -224 229 -225 q 267 -272 243 -253 q 326 -290 292 -290 q 397 -262 369 -290 q 424 -190 424 -233 q 406 -131 424 -151 q 366 -95 388 -110 q 326 -65 344 -81 q 308 -22 308 -50 l 308 0 z "},"Ç":{"ha":901,"x_min":85,"x_max":835,"o":"m 833 58 q 715 8 778 26 q 576 -11 651 -11 q 375 28 465 -11 q 220 135 285 68 q 120 291 156 201 q 85 481 85 381 q 124 678 85 586 q 230 838 163 769 q 388 944 297 906 q 581 983 478 983 q 715 965 651 983 q 835 914 778 947 q 829 906 832 910 q 824 897 826 901 q 709 947 771 929 q 581 964 647 964 q 395 926 482 964 q 244 823 308 889 q 142 669 179 757 q 104 479 104 581 q 138 299 104 385 q 232 149 171 214 q 379 47 293 85 q 571 8 465 8 q 705 26 643 8 q 821 75 767 43 l 833 58 m 561 0 l 581 0 l 581 -8 q 600 -59 581 -44 q 638 -85 619 -74 q 683 -131 669 -106 q 696 -176 696 -157 q 660 -278 696 -247 q 579 -310 625 -310 q 512 -290 543 -310 q 467 -229 481 -269 q 477 -226 472 -228 q 488 -224 482 -225 q 520 -272 496 -253 q 579 -290 544 -290 q 649 -262 622 -290 q 676 -190 676 -233 q 658 -131 676 -151 q 619 -95 640 -110 q 579 -65 597 -81 q 561 -22 561 -50 l 561 0 z "},"–":{"ha":604,"x_min":93,"x_max":511,"o":"m 93 249 l 93 268 l 511 268 l 511 249 l 93 249 z "},"—":{"ha":883,"x_min":93,"x_max":790,"o":"m 93 249 l 93 268 l 790 268 l 790 249 l 93 249 z "},"¸":{"ha":628,"x_min":174,"x_max":403,"o":"m 268 0 l 288 0 l 288 -8 q 307 -59 288 -44 q 344 -85 326 -74 q 390 -131 376 -106 q 403 -176 403 -157 q 367 -278 403 -247 q 286 -310 332 -310 q 219 -290 250 -310 q 174 -229 188 -269 q 184 -226 179 -228 q 194 -224 189 -225 q 227 -272 203 -253 q 286 -290 251 -290 q 356 -262 329 -290 q 383 -190 383 -233 q 365 -131 383 -151 q 326 -95 347 -110 q 286 -65 304 -81 q 268 -22 268 -50 l 268 0 z "},"´":{"ha":303,"x_min":139,"x_max":286,"o":"m 139 665 q 201 758 171 711 q 264 850 232 804 l 286 850 q 224 758 254 804 q 161 665 193 711 l 139 665 z "},"¨":{"ha":514,"x_min":114,"x_max":399,"o":"m 343 694 q 351 714 343 706 q 371 722 360 722 q 390 714 382 722 q 399 694 399 706 q 390 675 399 683 q 371 667 382 667 q 351 675 360 667 q 343 694 343 683 m 114 694 q 122 714 114 706 q 142 722 131 722 q 161 714 153 722 q 169 694 169 706 q 161 675 169 683 q 142 667 153 667 q 122 675 131 667 q 114 694 114 683 z "},"Ð":{"ha":997,"x_min":94,"x_max":910,"o":"m 94 500 l 485 500 l 485 481 l 94 481 l 94 500 m 175 972 l 374 972 q 623 927 521 972 q 789 811 725 882 q 881 654 853 740 q 910 486 910 568 q 871 285 910 375 q 765 131 832 194 q 610 34 699 68 q 421 0 521 0 l 175 0 l 175 972 m 429 19 q 606 52 522 19 q 754 145 690 85 q 855 292 818 206 q 892 486 892 379 q 865 647 892 565 q 777 797 838 729 q 620 908 717 865 q 386 951 524 951 l 194 951 l 194 19 l 429 19 z "},"þ":{"ha":708,"x_min":106,"x_max":646,"o":"m 626 261 q 607 358 626 313 q 553 439 588 404 q 474 493 519 474 q 376 513 428 513 q 278 493 324 513 q 199 439 233 474 q 144 358 164 404 q 125 261 125 313 q 144 163 125 208 q 199 84 164 118 q 278 31 233 50 q 376 11 324 11 q 474 31 428 11 q 553 84 519 50 q 607 163 588 118 q 626 261 626 208 m 646 261 q 625 156 646 204 q 567 70 604 107 q 481 13 531 33 q 376 -8 432 -8 q 294 4 333 -8 q 222 40 254 17 q 163 94 189 63 q 124 163 138 125 q 124 119 124 140 q 125 75 125 97 l 125 -250 l 106 -250 l 106 1042 l 125 1042 l 125 361 q 223 484 156 436 q 376 532 290 532 q 481 510 432 532 q 567 453 531 489 q 625 367 604 417 q 646 261 646 317 z "},"ð":{"ha":678,"x_min":63,"x_max":607,"o":"m 197 760 q 250 817 224 788 q 303 874 276 846 q 240 937 272 906 q 172 996 208 968 l 181 1008 q 314 885 247 958 q 363 938 338 913 q 411 992 388 964 q 417 987 414 989 q 422 982 419 985 q 373 928 397 954 q 324 874 349 901 q 432 731 381 807 q 522 575 483 654 q 584 416 561 496 q 607 261 607 336 q 603 225 607 224 q 594 253 600 226 q 580 322 588 279 q 563 410 572 365 q 535 499 554 449 q 486 608 517 550 q 413 731 456 667 q 313 861 371 794 l 208 749 l 197 760 m 63 261 q 83 367 63 317 q 141 453 104 417 q 226 512 178 490 q 332 533 275 533 q 438 512 388 533 q 524 453 488 490 q 583 367 561 417 q 604 261 604 317 q 583 156 604 204 q 524 70 561 107 q 438 13 488 33 q 332 -8 388 -8 q 226 13 275 -8 q 141 70 178 33 q 83 156 104 107 q 63 261 63 204 m 82 261 q 101 163 82 208 q 155 84 121 118 q 234 31 189 50 q 332 11 279 11 q 429 31 383 11 q 510 84 475 50 q 564 163 544 118 q 583 261 583 208 q 564 358 583 313 q 510 439 544 404 q 429 493 475 474 q 332 513 383 513 q 234 493 279 513 q 155 439 189 474 q 101 358 121 404 q 82 261 82 313 z "},"Þ":{"ha":694,"x_min":165,"x_max":638,"o":"m 165 0 l 165 972 l 185 972 l 185 743 l 360 743 q 449 730 400 743 q 539 687 497 717 q 609 608 581 657 q 638 488 638 560 q 620 386 638 435 q 567 300 603 338 q 474 240 531 263 q 340 217 418 217 l 185 217 l 185 0 l 165 0 m 185 236 l 344 236 q 478 262 425 236 q 562 326 531 288 q 606 408 593 364 q 618 490 618 453 q 597 586 618 543 q 540 660 576 629 q 453 707 503 690 q 346 724 404 724 l 185 724 l 185 236 z "},"Â":{"ha":889,"x_min":42,"x_max":847,"o":"m 231 442 l 660 442 l 660 461 l 231 461 l 231 442 m 847 0 q 646 508 740 254 q 444 1017 551 763 q 243 508 338 763 q 42 0 149 254 l 63 0 q 247 469 161 235 q 432 938 333 703 q 438 955 435 946 q 444 972 442 964 q 451 955 447 964 q 457 938 454 946 q 642 469 556 703 q 826 0 728 235 l 847 0 m 501 1293 q 585 1167 543 1231 q 668 1042 626 1104 l 646 1042 q 574 1149 610 1094 q 501 1256 538 1203 q 429 1149 465 1203 q 357 1042 393 1094 l 335 1042 q 418 1167 376 1104 q 501 1293 460 1231 z "},"Ê":{"ha":844,"x_min":165,"x_max":761,"o":"m 165 0 l 165 972 l 742 972 l 742 953 l 185 953 l 185 500 l 688 500 l 688 481 l 185 481 l 185 19 l 761 19 l 761 0 l 165 0 m 457 1293 q 540 1167 499 1231 q 624 1042 582 1104 l 601 1042 q 529 1149 565 1094 q 457 1256 493 1203 q 385 1149 421 1203 q 313 1042 349 1094 l 290 1042 q 374 1167 332 1104 q 457 1293 415 1231 z "},"Î":{"ha":350,"x_min":10,"x_max":343,"o":"m 165 972 l 185 972 l 185 0 l 165 0 l 165 972 m 176 1293 q 260 1167 218 1231 q 343 1042 301 1104 l 321 1042 q 249 1149 285 1094 q 176 1256 213 1203 q 104 1149 140 1203 q 32 1042 68 1094 l 10 1042 q 93 1167 51 1104 q 176 1293 135 1231 z "},"Ô":{"ha":1164,"x_min":85,"x_max":1079,"o":"m 85 485 q 124 678 85 588 q 230 837 163 769 q 388 944 297 904 q 581 983 478 983 q 774 944 683 983 q 933 837 865 904 q 1040 678 1000 769 q 1079 485 1079 588 q 1040 292 1079 382 q 933 134 1000 201 q 774 28 865 67 q 581 -11 683 -11 q 388 28 478 -11 q 230 134 297 67 q 124 292 163 201 q 85 485 85 382 m 104 483 q 142 299 104 385 q 243 148 179 213 q 393 46 307 83 q 576 8 479 8 q 763 46 675 8 q 917 148 851 83 q 1022 299 983 213 q 1060 485 1060 386 q 1022 670 1060 583 q 918 822 983 757 q 766 926 853 888 q 581 964 679 964 q 395 926 482 964 q 244 822 308 888 q 142 669 179 757 q 104 483 104 582 m 564 1293 q 647 1167 606 1231 q 731 1042 689 1104 l 708 1042 q 636 1149 672 1094 q 564 1256 600 1203 q 492 1149 528 1203 q 419 1042 456 1094 l 397 1042 q 481 1167 439 1104 q 564 1293 522 1231 z "},"Û":{"ha":928,"x_min":151,"x_max":776,"o":"m 464 -11 q 340 10 397 -11 q 240 72 282 31 q 175 174 199 113 q 151 314 151 235 l 151 972 l 171 972 l 171 318 q 192 185 171 243 q 253 88 214 128 q 346 28 292 49 q 464 8 400 8 q 581 28 526 8 q 674 88 635 49 q 735 185 713 128 q 757 318 757 243 l 757 972 l 776 972 l 776 314 q 752 174 776 235 q 686 72 728 113 q 588 10 644 31 q 464 -11 531 -11 m 476 1293 q 560 1167 518 1231 q 643 1042 601 1104 l 621 1042 q 549 1149 585 1094 q 476 1256 513 1203 q 404 1149 440 1203 q 332 1042 368 1094 l 310 1042 q 393 1167 351 1104 q 476 1293 435 1231 z "},"±":{"ha":786,"x_min":143,"x_max":643,"o":"m 383 293 l 383 535 l 143 535 l 143 554 l 383 554 l 383 793 l 403 793 l 403 554 l 643 554 l 643 535 l 403 535 l 403 293 l 383 293 m 643 189 l 143 189 l 143 208 l 643 208 l 643 189 z "},"$":{"ha":725,"x_min":63,"x_max":653,"o":"m 360 1061 l 360 -94 l 340 -94 l 340 1061 l 360 1061 m 603 926 l 594 911 q 549 928 575 919 q 494 944 524 936 q 434 956 465 951 q 372 960 403 960 q 269 944 315 960 q 192 900 224 928 q 142 835 160 872 q 125 758 125 799 q 164 656 125 693 q 262 592 203 618 q 389 542 321 565 q 516 486 457 519 q 614 400 575 453 q 653 261 653 347 q 630 147 653 197 q 567 62 607 97 q 472 8 526 26 q 351 -11 417 -11 q 247 1 294 -11 q 162 31 199 14 q 100 64 125 47 q 63 88 75 81 l 74 106 q 125 74 94 90 q 192 42 156 57 q 271 18 229 28 q 356 8 313 8 q 457 24 407 8 q 546 70 507 39 q 609 149 585 101 q 633 260 633 196 q 594 392 633 342 q 497 474 556 442 q 369 528 438 506 q 242 577 301 550 q 144 645 183 604 q 106 754 106 686 q 126 842 106 801 q 181 914 146 883 q 263 961 215 944 q 364 978 310 978 q 420 974 389 978 q 483 964 451 971 q 547 947 515 957 q 603 926 578 938 z "},"¢":{"ha":593,"x_min":71,"x_max":511,"o":"m 319 -94 l 319 608 l 339 608 l 339 -94 l 319 -94 m 497 65 l 511 51 q 432 8 475 24 q 340 -8 389 -8 q 235 13 283 -8 q 149 70 186 33 q 92 156 113 107 q 71 261 71 204 q 92 367 71 317 q 149 453 113 417 q 235 510 186 489 q 340 532 283 532 q 433 516 389 532 q 511 472 476 500 q 504 465 508 468 q 497 457 500 461 q 425 498 465 483 q 340 513 385 513 q 242 493 288 513 q 163 439 197 474 q 110 358 129 404 q 90 261 90 313 q 110 163 90 208 q 163 84 129 118 q 242 31 197 50 q 340 11 288 11 q 425 26 385 11 q 497 65 465 40 z "},"•":{"ha":465,"x_min":142,"x_max":324,"o":"m 142 417 q 168 482 142 456 q 232 508 194 508 q 297 482 271 508 q 324 417 324 456 q 297 353 324 379 q 232 326 271 326 q 168 353 194 326 q 142 417 142 379 z "},"“":{"ha":401,"x_min":81,"x_max":308,"o":"m 308 819 l 300 794 q 242 881 260 831 q 236 988 225 932 q 249 983 243 985 q 263 978 256 981 q 266 888 253 929 q 308 819 279 847 m 164 819 l 156 794 q 98 881 115 831 q 92 988 81 932 q 105 983 99 985 q 118 978 111 981 q 122 888 108 929 q 164 819 135 847 z "},"”":{"ha":403,"x_min":93,"x_max":321,"o":"m 101 794 l 93 819 q 135 888 122 847 q 139 978 149 929 q 152 983 146 981 q 165 988 158 985 q 159 881 176 932 q 101 794 142 831 m 246 794 l 238 819 q 280 888 267 847 q 283 978 293 929 q 297 983 290 981 q 310 988 303 985 q 303 881 321 932 q 246 794 286 831 z "},"‘":{"ha":257,"x_min":82,"x_max":165,"o":"m 165 819 l 157 794 q 99 881 117 831 q 93 988 82 932 q 106 983 100 985 q 119 978 113 981 q 123 888 110 929 q 165 819 136 847 z "},"„":{"ha":442,"x_min":94,"x_max":322,"o":"m 103 -65 l 94 -40 q 137 28 124 -12 q 140 118 150 69 q 153 123 147 121 q 167 128 160 125 q 160 22 178 72 q 103 -65 143 -29 m 247 -65 l 239 -40 q 281 28 268 -12 q 285 118 294 69 q 298 123 292 121 q 311 128 304 125 q 305 22 322 72 q 247 -65 288 -29 z "},"‚":{"ha":297,"x_min":94,"x_max":178,"o":"m 103 -65 l 94 -40 q 137 28 124 -12 q 140 118 150 69 q 153 123 147 121 q 167 128 160 125 q 160 22 178 72 q 103 -65 143 -29 z "},"›":{"ha":399,"x_min":90,"x_max":328,"o":"m 90 129 q 189 231 139 181 q 288 332 239 281 q 189 432 239 382 q 90 532 139 482 l 90 556 q 209 444 150 499 q 328 332 268 389 l 90 107 l 90 129 z "},"«":{"ha":635,"x_min":69,"x_max":544,"o":"m 544 107 l 307 332 q 426 444 367 389 q 544 556 485 499 l 544 532 q 446 432 496 482 q 347 332 396 382 q 446 231 396 281 q 544 129 496 181 l 544 107 m 307 107 l 69 332 q 188 444 129 389 q 307 556 247 499 l 307 532 q 208 432 258 482 q 110 332 158 382 q 208 231 158 281 q 307 129 258 181 l 307 107 z "},"»":{"ha":636,"x_min":90,"x_max":565,"o":"m 90 129 q 189 231 139 181 q 288 332 239 281 q 189 432 239 382 q 90 532 139 482 l 90 556 q 209 444 150 499 q 328 332 268 389 l 90 107 l 90 129 m 328 129 q 426 231 376 181 q 525 332 476 281 q 426 432 476 382 q 328 532 376 482 l 328 556 q 447 444 388 499 q 565 332 506 389 l 328 107 l 328 129 z "},"¥":{"ha":850,"x_min":50,"x_max":799,"o":"m 433 385 l 665 385 l 665 365 l 431 365 l 433 385 m 425 158 l 665 158 l 665 139 l 425 139 l 425 158 m 418 365 l 203 365 l 203 385 l 411 385 l 418 365 m 419 139 l 203 139 l 203 158 l 419 158 l 419 139 m 435 364 l 435 0 l 415 0 l 415 364 q 233 668 324 517 q 50 972 142 819 l 74 972 q 242 694 157 832 q 408 414 326 556 l 426 378 q 434 396 431 388 q 442 414 438 404 l 775 972 l 799 972 l 435 364 z "},"©":{"ha":922,"x_min":107,"x_max":815,"o":"m 460 183 q 590 208 529 183 q 697 278 651 233 q 769 384 743 324 q 796 515 796 444 q 769 649 796 588 q 697 756 743 711 q 590 826 651 801 q 460 851 529 851 q 331 826 392 851 q 225 756 271 801 q 153 649 179 711 q 126 515 126 588 q 153 384 126 444 q 225 278 179 324 q 331 208 271 233 q 460 183 392 183 m 461 164 q 322 190 386 164 q 209 264 257 217 q 134 376 161 311 q 107 517 107 440 q 134 658 107 593 q 209 771 161 724 q 322 844 257 818 q 461 871 386 871 q 601 844 536 871 q 713 771 665 818 q 788 658 761 724 q 815 517 815 593 q 788 376 815 440 q 713 264 761 311 q 601 190 665 217 q 461 164 536 164 m 588 328 q 534 304 563 313 q 472 296 506 296 q 381 314 422 296 q 311 363 340 332 q 266 433 282 393 q 250 519 250 474 q 267 608 250 567 q 315 681 285 650 q 387 728 346 711 q 474 746 428 746 q 589 715 535 746 q 583 707 586 713 q 474 738 533 738 q 390 720 429 738 q 322 674 351 703 q 276 604 293 644 q 258 518 258 564 q 274 437 258 475 q 316 369 289 399 q 382 323 343 340 q 469 306 421 306 q 530 313 501 306 q 582 335 558 321 l 588 328 z "},"®":{"ha":922,"x_min":107,"x_max":815,"o":"m 460 183 q 590 208 529 183 q 697 278 651 233 q 769 384 743 324 q 796 515 796 444 q 769 649 796 588 q 697 756 743 711 q 590 826 651 801 q 460 851 529 851 q 331 826 392 851 q 225 756 271 801 q 153 649 179 711 q 126 515 126 588 q 153 384 126 444 q 225 278 179 324 q 331 208 271 233 q 460 183 392 183 m 461 164 q 322 190 386 164 q 209 264 257 217 q 134 376 161 311 q 107 517 107 440 q 134 658 107 593 q 209 771 161 724 q 322 844 257 818 q 461 871 386 871 q 601 844 536 871 q 713 771 665 818 q 788 658 761 724 q 815 517 815 593 q 788 376 815 440 q 713 264 761 311 q 601 190 665 217 q 461 164 536 164 m 511 513 l 644 292 l 632 292 l 501 513 l 511 513 m 382 511 l 457 511 q 519 524 494 511 q 559 555 544 536 q 580 595 574 574 q 586 633 586 617 q 549 712 586 682 q 458 742 513 742 l 382 742 l 382 511 m 372 292 l 372 751 l 465 751 q 506 745 483 751 q 549 725 529 739 q 583 688 569 711 q 596 631 596 664 q 588 583 596 606 q 562 542 579 560 q 518 514 544 525 q 456 503 492 503 l 382 503 l 382 292 l 372 292 z "},"÷":{"ha":726,"x_min":114,"x_max":614,"o":"m 614 292 l 114 292 l 114 311 l 614 311 l 614 292 m 340 474 q 349 493 340 485 q 368 501 357 501 q 388 493 379 501 q 396 474 396 485 q 388 454 396 463 q 368 446 379 446 q 349 454 357 446 q 340 474 340 463 m 340 126 q 349 146 340 138 q 368 154 357 154 q 388 146 379 154 q 396 126 396 138 q 388 107 396 115 q 368 99 379 99 q 349 107 357 99 q 340 126 340 115 z "},"½":{"ha":1154,"x_min":53,"x_max":1093,"o":"m 53 951 l 53 965 l 178 965 l 178 325 l 164 325 l 164 951 l 53 951 m 740 14 l 1093 14 l 1093 0 l 704 0 q 828 120 768 61 q 933 235 888 179 q 1007 344 979 292 q 1035 443 1035 397 q 1019 535 1035 499 q 981 592 1004 571 q 929 623 957 614 q 876 632 901 632 q 797 615 828 632 q 747 572 765 597 q 722 515 729 546 q 715 460 715 485 q 756 349 715 392 q 746 340 751 346 q 713 392 725 364 q 701 460 701 419 q 747 592 701 539 q 876 646 792 646 q 1001 592 954 646 q 1049 456 1049 539 q 1019 342 1049 399 q 945 231 990 286 q 846 121 900 175 q 740 14 792 67 m 294 -26 q 488 497 392 238 q 681 1021 583 757 l 700 1021 q 507 497 603 757 q 314 -26 411 238 l 294 -26 z "},"¼":{"ha":1093,"x_min":53,"x_max":1035,"o":"m 271 -26 q 464 497 368 238 q 657 1021 560 757 l 676 1021 q 483 497 579 757 q 290 -26 388 238 l 271 -26 m 921 638 q 755 421 838 529 q 589 204 672 313 l 921 204 l 921 638 m 557 189 q 747 435 653 313 q 935 681 840 557 l 935 204 l 1035 204 l 1035 189 l 935 189 l 935 0 l 921 0 l 921 189 l 557 189 m 53 951 l 53 965 l 178 965 l 178 325 l 164 325 l 164 951 l 53 951 z "},"ª":{"ha":589,"x_min":83,"x_max":472,"o":"m 97 614 q 111 543 97 576 q 149 485 125 510 q 207 447 174 461 q 278 433 240 433 q 348 447 315 433 q 406 485 381 461 q 444 543 431 510 q 458 614 458 576 q 444 684 458 651 q 406 742 431 717 q 348 781 381 767 q 278 794 315 794 q 207 781 240 794 q 149 742 174 767 q 111 684 125 717 q 97 614 97 651 m 83 614 q 99 690 83 654 q 140 751 114 725 q 202 793 167 778 q 278 808 238 808 q 388 774 340 808 q 458 686 436 739 q 460 743 458 714 q 463 800 461 772 l 472 800 l 472 425 l 458 425 l 458 479 q 459 510 458 494 q 460 542 460 526 q 390 453 439 488 q 278 419 340 419 q 202 435 238 419 q 140 476 167 450 q 99 538 114 503 q 83 614 83 574 z "},"£":{"ha":781,"x_min":63,"x_max":701,"o":"m 183 19 l 469 19 l 526 19 q 646 34 610 19 q 682 92 682 49 l 682 171 l 701 171 l 701 119 q 699 76 701 97 q 683 38 697 54 q 635 10 668 21 q 538 0 601 0 l 63 0 l 63 19 l 124 19 q 163 30 149 19 q 185 64 178 40 q 194 128 192 88 q 196 228 196 168 l 196 432 l 106 432 l 106 451 l 196 451 l 196 694 q 256 836 196 792 q 417 881 317 881 q 558 847 510 881 q 633 757 606 813 q 626 753 631 754 q 619 749 622 751 q 583 803 601 782 q 542 838 565 825 q 488 856 518 850 q 417 861 458 861 q 319 848 358 861 q 258 813 281 835 q 225 761 235 790 q 215 700 215 732 l 215 451 l 394 451 l 394 432 l 215 432 l 215 207 l 215 151 q 209 75 215 111 q 183 19 203 39 z "},"¹":{"ha":260,"x_min":65,"x_max":146,"o":"m 65 964 l 65 972 l 146 972 l 146 557 l 136 557 l 136 964 l 65 964 z "},"¾":{"ha":1374,"x_min":81,"x_max":1318,"o":"m 171 674 q 285 821 229 749 q 399 968 340 893 l 90 968 l 90 983 l 432 983 l 219 713 q 311 700 268 715 q 387 656 354 685 q 439 585 419 626 q 458 496 458 544 q 441 410 458 450 q 394 342 424 371 q 324 295 364 313 q 239 278 285 278 q 150 297 190 278 q 81 349 110 317 q 85 356 83 351 q 90 363 88 360 q 154 312 117 331 q 236 293 192 293 q 316 309 278 293 q 382 353 354 325 q 426 417 410 381 q 443 496 443 454 q 426 574 443 538 q 382 638 410 611 q 316 681 354 665 q 236 697 278 697 q 171 674 201 697 m 506 -26 q 699 498 603 238 q 892 1022 794 758 l 911 1022 q 718 498 814 758 q 525 -26 622 238 l 506 -26 m 1203 638 l 869 204 l 1203 204 l 1203 638 m 839 189 q 1027 435 933 313 q 1217 681 1121 557 l 1217 204 l 1318 204 l 1318 189 l 1217 189 l 1217 0 l 1203 0 l 1203 189 l 839 189 z "},"²":{"ha":479,"x_min":107,"x_max":381,"o":"m 133 531 l 381 531 l 381 521 l 108 521 q 194 604 153 563 q 269 685 236 646 q 321 762 301 725 q 340 831 340 799 q 329 894 340 869 q 301 935 318 919 q 265 956 285 950 q 229 963 246 963 q 174 951 196 963 q 139 921 151 939 q 122 882 126 903 q 117 843 117 861 q 144 764 117 794 q 138 758 142 763 q 115 795 122 775 q 107 843 107 815 q 138 935 107 897 q 229 972 169 972 q 316 935 282 972 q 350 839 350 897 q 330 760 350 799 q 278 682 310 721 q 208 606 246 643 q 133 531 169 568 z "},"¶":{"ha":700,"x_min":57,"x_max":529,"o":"m 303 0 l 283 0 l 283 588 q 194 605 236 588 q 122 653 153 622 q 74 725 92 683 q 57 814 57 767 q 74 903 57 861 q 122 975 92 944 q 194 1024 153 1006 q 283 1042 236 1042 l 529 1042 l 529 0 l 510 0 l 510 1022 l 303 1022 l 303 0 z "},"¬":{"ha":771,"x_min":157,"x_max":657,"o":"m 638 206 l 638 315 l 157 315 l 157 335 l 657 335 l 657 206 l 638 206 z "},"³":{"ha":421,"x_min":94,"x_max":336,"o":"m 153 775 q 225 869 189 822 q 297 963 261 915 l 101 963 l 101 972 l 319 972 q 251 886 285 929 q 183 800 217 843 q 242 792 214 801 q 290 763 269 782 q 324 718 311 744 q 336 661 336 692 q 325 607 336 632 q 294 563 314 582 q 250 533 275 544 q 196 522 225 522 q 140 535 165 522 q 94 568 114 547 q 101 576 96 571 q 142 544 118 557 q 194 532 167 532 q 245 542 221 532 q 288 570 269 553 q 316 611 306 588 q 326 661 326 635 q 316 711 326 688 q 288 753 306 735 q 245 781 269 771 q 194 790 221 790 q 153 775 172 790 z "},"¦":{"ha":311,"x_min":146,"x_max":165,"o":"m 165 -324 l 146 -324 l 146 163 l 165 163 l 165 -324 m 165 486 l 146 486 l 146 972 l 165 972 l 165 486 z "},"&":{"ha":890,"x_min":75,"x_max":835,"o":"m 803 0 l 778 0 l 243 690 q 213 752 226 719 q 200 829 200 785 q 217 915 200 876 q 264 982 235 954 q 333 1024 293 1010 q 417 1039 372 1039 q 518 1020 471 1039 q 600 981 565 1001 q 596 974 597 976 q 592 968 594 972 q 506 1007 550 992 q 418 1022 463 1022 q 340 1008 376 1022 q 278 969 304 994 q 236 910 251 944 q 221 835 221 876 q 227 782 221 807 q 240 739 233 757 q 261 700 249 717 l 803 0 m 686 143 q 638 82 668 110 q 569 34 608 54 q 483 3 529 14 q 388 -8 438 -8 q 261 13 318 -8 q 163 70 204 33 q 98 156 121 107 q 75 258 75 204 q 101 366 75 317 q 169 452 126 415 q 266 510 211 489 q 379 533 321 531 l 385 513 q 285 494 336 513 q 193 442 235 475 q 125 361 151 408 q 99 256 99 314 q 122 156 99 201 q 184 78 144 111 q 276 28 224 46 q 388 11 329 11 q 482 24 436 11 q 565 57 528 36 q 631 106 603 78 q 674 164 660 133 l 686 143 m 674 164 l 811 533 l 835 533 l 688 144 l 674 164 z "},"ß":{"ha":733,"x_min":40,"x_max":671,"o":"m 239 31 q 243 38 242 35 q 247 46 244 42 q 383 7 308 7 q 488 28 439 7 q 572 86 536 50 q 630 170 608 122 q 651 271 651 218 q 631 370 651 324 q 574 452 610 417 q 490 508 539 488 q 388 529 442 529 l 388 539 l 388 550 q 456 562 424 550 q 511 595 488 574 q 549 647 535 617 q 563 715 563 678 q 551 781 563 749 q 516 839 539 814 q 457 879 493 864 q 374 894 421 894 q 206 813 263 894 q 150 597 150 732 l 150 0 l 131 0 l 131 514 l 40 514 l 40 533 l 131 533 l 131 592 q 192 828 131 747 q 360 914 254 910 q 468 896 425 913 q 536 852 511 879 q 572 791 561 825 q 582 722 582 757 q 547 607 582 651 q 454 540 513 563 q 540 504 500 529 q 608 444 579 479 q 654 365 638 408 q 671 271 671 321 q 648 161 671 213 q 587 72 625 110 q 497 11 549 33 q 386 -11 444 -11 q 308 0 346 -11 q 239 31 271 11 z "},"¤":{"ha":639,"x_min":128,"x_max":511,"o":"m 156 501 q 169 437 156 467 q 204 385 182 407 q 256 349 226 363 q 319 336 286 336 q 383 349 353 336 q 435 385 413 363 q 470 437 457 407 q 483 501 483 467 q 470 566 483 536 q 435 618 457 596 q 383 653 413 640 q 319 667 353 667 q 256 653 286 667 q 204 618 226 640 q 169 566 182 596 q 156 501 156 536 m 136 501 q 148 567 136 536 q 181 622 160 597 l 128 675 l 142 689 l 194 636 q 251 673 218 660 q 319 686 283 686 q 388 672 356 686 q 444 635 421 658 l 497 688 l 511 674 l 458 621 q 491 567 479 597 q 503 501 503 536 q 490 433 503 465 q 454 376 476 401 l 511 319 l 497 306 l 440 363 q 319 317 390 317 q 253 328 285 317 q 199 361 222 340 l 142 304 l 128 318 l 185 375 q 136 501 136 428 z "},"§":{"ha":496,"x_min":90,"x_max":406,"o":"m 132 432 q 190 378 153 394 q 267 364 226 361 q 319 381 296 367 q 357 417 342 396 q 380 464 372 438 q 383 515 388 490 q 365 569 379 546 q 328 609 350 593 q 281 632 307 625 q 231 638 256 639 q 164 612 190 633 q 124 560 138 590 q 113 496 111 531 q 132 432 115 461 m 236 214 l 115 422 q 94 481 99 450 q 98 542 90 513 q 124 596 106 571 q 169 638 142 621 q 249 656 207 658 q 326 633 290 654 q 282 709 303 671 q 239 786 261 747 q 196 889 200 854 q 206 946 192 924 q 251 985 219 968 q 306 1014 282 1001 q 310 1006 308 1010 q 315 997 313 1001 q 281 977 297 986 q 246 957 264 968 q 215 897 210 936 q 261 786 219 858 q 322 681 292 733 q 382 576 351 629 q 402 518 399 549 q 398 458 406 488 q 372 405 390 429 q 326 364 354 381 q 247 343 289 342 q 169 367 206 344 q 214 290 192 328 q 258 214 236 253 q 288 155 278 181 q 301 110 297 129 q 301 78 304 92 q 292 54 297 65 q 247 14 278 31 q 192 -14 215 -3 q 187 -6 189 -10 q 182 3 185 -1 q 217 23 200 14 q 251 43 233 32 q 283 103 288 64 q 236 214 278 142 z "},"·":{"ha":256,"x_min":100,"x_max":156,"o":"m 100 389 q 108 408 100 400 q 128 417 117 417 q 147 408 139 417 q 156 389 156 400 q 147 369 156 378 q 128 361 139 361 q 108 369 117 361 q 100 389 100 378 z "},"º":{"ha":557,"x_min":83,"x_max":474,"o":"m 83 614 q 99 690 83 654 q 140 752 114 725 q 202 794 167 779 q 278 810 238 810 q 354 794 318 810 q 417 752 390 779 q 458 690 443 725 q 474 614 474 654 q 458 538 474 574 q 417 476 443 503 q 354 435 390 450 q 278 419 318 419 q 202 435 238 419 q 140 476 167 450 q 99 538 114 503 q 83 614 83 574 m 97 614 q 111 543 97 576 q 150 485 125 510 q 208 447 175 461 q 278 433 240 433 q 348 447 315 433 q 406 485 381 461 q 444 543 431 510 q 458 614 458 576 q 444 684 458 651 q 406 742 431 717 q 348 781 381 767 q 278 794 315 794 q 208 781 240 794 q 150 742 175 767 q 111 684 125 717 q 97 614 97 651 z "},"¯":{"ha":554,"x_min":118,"x_max":438,"o":"m 118 683 l 118 703 l 438 703 l 438 683 l 118 683 z "},"µ":{"ha":693,"x_min":138,"x_max":543,"o":"m 157 150 l 157 -279 l 139 -279 l 139 150 l 157 150 m 543 0 l 529 0 l 528 136 q 438 30 500 69 q 299 -10 376 -10 q 183 33 225 -10 q 138 146 140 76 l 138 521 l 157 521 l 157 136 q 194 49 160 86 q 289 10 228 13 q 378 25 336 10 q 453 67 421 40 q 504 133 485 94 q 524 215 524 171 l 524 521 l 543 521 l 543 0 z "},"×":{"ha":592,"x_min":111,"x_max":479,"o":"m 465 0 l 294 171 q 210 85 251 128 q 125 0 168 43 l 111 14 q 196 99 154 57 q 281 185 238 142 l 113 353 l 126 367 l 294 199 q 380 283 338 242 q 465 368 422 325 l 479 354 q 394 269 436 311 q 308 185 351 228 l 479 14 l 465 0 z "},"O":{"ha":1164,"x_min":85,"x_max":1079,"o":"m 85 485 q 124 678 85 588 q 230 837 163 769 q 388 944 297 904 q 581 983 478 983 q 774 944 683 983 q 933 837 865 904 q 1040 678 1000 769 q 1079 485 1079 588 q 1040 292 1079 382 q 933 134 1000 201 q 774 28 865 67 q 581 -11 683 -11 q 388 28 478 -11 q 230 134 297 67 q 124 292 163 201 q 85 485 85 382 m 104 483 q 142 299 104 385 q 243 148 179 213 q 393 46 307 83 q 576 8 479 8 q 763 46 675 8 q 917 148 851 83 q 1022 299 983 213 q 1060 485 1060 386 q 1022 670 1060 583 q 918 822 983 757 q 766 926 853 888 q 581 964 679 964 q 395 926 482 964 q 244 822 308 888 q 142 669 179 757 q 104 483 104 582 z "},"g":{"ha":708,"x_min":63,"x_max":603,"o":"m 63 261 q 83 367 63 317 q 141 453 104 417 q 226 510 178 489 q 332 532 275 532 q 485 484 418 532 q 583 361 553 436 q 585 441 583 401 q 589 521 586 481 l 603 521 l 603 -11 q 591 -99 603 -56 q 549 -175 579 -142 q 466 -229 518 -208 q 333 -250 414 -250 q 283 -247 308 -250 q 228 -231 257 -243 q 167 -199 199 -219 q 100 -143 135 -178 l 113 -129 q 178 -183 147 -162 q 235 -213 208 -203 q 287 -227 263 -224 q 332 -231 311 -231 q 453 -212 406 -231 q 529 -162 501 -194 q 569 -87 557 -131 q 582 8 581 -43 q 582 19 582 15 q 582 28 582 22 q 583 45 582 35 q 583 75 583 56 q 583 90 583 76 q 584 118 583 103 q 585 147 585 133 q 585 163 585 160 q 544 94 569 125 q 487 40 519 63 q 415 4 454 17 q 332 -8 375 -8 q 226 13 275 -8 q 141 70 178 33 q 83 156 104 107 q 63 261 63 204 m 82 261 q 101 163 82 208 q 155 84 121 118 q 234 31 189 50 q 332 11 279 11 q 429 31 383 11 q 510 84 475 50 q 564 163 544 118 q 583 261 583 208 q 564 358 583 313 q 510 439 544 404 q 429 493 475 474 q 332 513 383 513 q 234 493 279 513 q 155 439 189 474 q 101 358 121 404 q 82 261 82 313 z "},"d":{"ha":708,"x_min":63,"x_max":603,"o":"m 82 261 q 101 163 82 208 q 155 84 121 118 q 234 31 189 50 q 332 11 279 11 q 429 31 383 11 q 510 84 475 50 q 564 163 544 118 q 583 261 583 208 q 564 358 583 313 q 510 439 544 404 q 429 493 475 474 q 332 513 383 513 q 234 493 279 513 q 155 439 189 474 q 101 358 121 404 q 82 261 82 313 m 63 261 q 83 367 63 317 q 141 453 104 417 q 226 510 178 489 q 332 532 275 532 q 485 484 418 532 q 583 361 553 436 l 583 1042 l 603 1042 l 603 0 l 583 0 l 583 75 q 584 119 583 97 q 585 163 585 140 q 544 94 569 125 q 487 40 519 63 q 415 4 454 17 q 332 -8 375 -8 q 226 13 275 -8 q 141 70 178 33 q 83 156 104 107 q 63 261 63 204 z "},"a":{"ha":708,"x_min":63,"x_max":603,"o":"m 82 261 q 101 163 82 208 q 155 84 121 118 q 234 31 189 50 q 332 11 279 11 q 429 31 383 11 q 510 84 475 50 q 564 163 544 118 q 583 261 583 208 q 564 358 583 313 q 510 439 544 404 q 429 493 475 474 q 332 513 383 513 q 234 493 279 513 q 155 439 189 474 q 101 358 121 404 q 82 261 82 313 m 63 261 q 83 367 63 317 q 141 453 104 417 q 226 510 178 489 q 332 532 275 532 q 485 484 418 532 q 583 361 553 436 q 585 441 583 401 q 589 521 586 481 l 603 521 l 603 0 l 583 0 l 583 75 q 584 119 583 97 q 585 163 585 140 q 544 94 569 125 q 487 40 519 63 q 415 4 454 17 q 332 -8 375 -8 q 226 13 275 -8 q 141 70 178 33 q 83 156 104 107 q 63 261 63 204 z "},"n":{"ha":611,"x_min":106,"x_max":511,"o":"m 106 521 l 119 521 l 121 385 q 210 490 149 450 q 350 531 271 531 q 466 488 424 531 q 511 375 508 444 l 511 0 l 492 0 l 492 385 q 455 472 489 435 q 360 511 421 508 q 270 496 313 511 q 195 453 228 481 q 144 388 163 426 q 125 306 125 350 l 125 0 l 106 0 l 106 521 z "},"˛":{"ha":1157,"x_min":174,"x_max":403,"o":"m 308 -22 q 290 -65 308 -50 q 251 -95 272 -81 q 211 -131 229 -110 q 193 -190 193 -151 q 220 -262 193 -233 q 290 -290 247 -290 q 349 -272 325 -290 q 382 -224 374 -253 q 392 -226 388 -225 q 403 -229 397 -228 q 358 -290 389 -269 q 290 -310 326 -310 q 209 -278 244 -310 q 174 -176 174 -247 q 187 -131 174 -157 q 232 -85 200 -106 q 269 -59 250 -74 q 289 -8 289 -44 l 289 0 l 308 0 l 308 -22 z "},"ˇ":{"ha":618,"x_min":156,"x_max":489,"o":"m 322 665 q 239 791 281 728 q 156 917 197 854 l 178 917 q 250 810 214 864 q 322 703 286 756 q 394 810 358 756 q 467 917 431 864 l 489 917 q 406 791 447 854 q 322 665 364 728 z "},"˝":{"ha":606,"x_min":139,"x_max":589,"o":"m 139 665 q 201 758 171 711 q 264 850 232 804 l 286 850 q 224 758 254 804 q 161 665 193 711 l 139 665 m 442 665 q 504 758 474 711 q 567 850 535 804 l 589 850 q 526 758 557 804 q 464 665 496 711 l 442 665 z "},"˙":{"ha":257,"x_min":93,"x_max":149,"o":"m 93 694 q 101 714 93 706 q 121 722 110 722 q 140 714 132 722 q 149 694 149 706 q 140 675 149 683 q 121 667 132 667 q 101 675 110 667 q 93 694 93 683 z "},"˘":{"ha":707,"x_min":139,"x_max":589,"o":"m 365 694 q 278 711 319 694 q 207 757 238 728 q 158 826 176 786 q 139 913 140 867 l 160 913 q 177 837 161 872 q 220 774 193 801 q 284 730 247 746 q 365 714 321 714 q 447 730 410 714 q 510 774 483 746 q 551 837 536 801 q 567 913 565 872 l 589 913 q 571 826 589 867 q 522 757 553 786 q 451 711 492 728 q 365 694 411 694 z "},"Ą":{"ha":889,"x_min":42,"x_max":940,"o":"m 231 442 l 660 442 l 660 461 l 231 461 l 231 442 m 826 0 q 642 469 728 235 q 457 938 556 703 q 451 955 454 946 q 444 972 447 964 q 438 955 442 964 q 432 938 435 946 q 247 469 333 703 q 63 0 161 235 l 42 0 q 243 508 149 254 q 444 1017 338 763 q 646 508 551 763 q 847 0 740 254 l 826 0 m 846 -22 q 828 -65 846 -50 q 788 -95 810 -81 q 749 -131 767 -110 q 731 -190 731 -151 q 758 -262 731 -233 q 828 -290 785 -290 q 887 -272 863 -290 q 919 -224 911 -253 q 930 -226 925 -225 q 940 -229 935 -228 q 895 -290 926 -269 q 828 -310 864 -310 q 747 -278 782 -310 q 711 -176 711 -247 q 724 -131 711 -157 q 769 -85 738 -106 q 807 -59 788 -74 q 826 -8 826 -44 l 826 0 l 846 0 l 846 -22 z "},"Ł":{"ha":779,"x_min":83,"x_max":758,"o":"m 83 388 l 83 407 l 519 567 l 519 547 l 83 388 m 176 0 l 176 972 l 196 972 l 196 19 l 758 19 l 758 0 l 176 0 z "},"Ľ":{"ha":768,"x_min":165,"x_max":747,"o":"m 165 0 l 165 972 l 185 972 l 185 19 l 747 19 l 747 0 l 165 0 m 386 794 l 378 819 q 420 888 407 847 q 424 978 433 929 q 437 983 431 981 q 450 988 443 985 q 444 881 461 932 q 386 794 426 831 z "},"Ś":{"ha":738,"x_min":71,"x_max":661,"o":"m 611 926 l 603 911 q 558 928 583 919 q 503 944 532 936 q 442 956 474 951 q 381 960 411 960 q 278 944 324 960 q 200 900 232 928 q 151 835 168 872 q 133 758 133 799 q 172 656 133 693 q 270 592 211 618 q 397 542 329 565 q 524 486 465 519 q 622 400 583 453 q 661 261 661 347 q 638 147 661 197 q 575 62 615 97 q 480 8 535 26 q 360 -11 425 -11 q 255 1 303 -11 q 170 31 207 14 q 108 64 133 47 q 71 88 83 81 l 82 106 q 133 74 103 90 q 201 42 164 57 q 279 18 238 28 q 364 8 321 8 q 465 24 415 8 q 554 70 515 39 q 617 149 593 101 q 642 260 642 196 q 603 392 642 342 q 505 474 564 442 q 378 528 446 506 q 251 577 310 550 q 153 645 192 604 q 114 754 114 686 q 134 842 114 801 q 189 914 154 883 q 271 961 224 944 q 372 978 318 978 q 428 974 397 978 q 492 964 460 971 q 555 947 524 957 q 611 926 586 938 m 318 1042 q 381 1134 350 1088 q 443 1226 411 1181 l 465 1226 q 403 1134 433 1181 q 340 1042 372 1088 l 318 1042 z "},"Š":{"ha":738,"x_min":71,"x_max":661,"o":"m 611 926 l 603 911 q 558 928 583 919 q 503 944 532 936 q 442 956 474 951 q 381 960 411 960 q 278 944 324 960 q 200 900 232 928 q 151 835 168 872 q 133 758 133 799 q 172 656 133 693 q 270 592 211 618 q 397 542 329 565 q 524 486 465 519 q 622 400 583 453 q 661 261 661 347 q 638 147 661 197 q 575 62 615 97 q 480 8 535 26 q 360 -11 425 -11 q 255 1 303 -11 q 170 31 207 14 q 108 64 133 47 q 71 88 83 81 l 82 106 q 133 74 103 90 q 201 42 164 57 q 279 18 238 28 q 364 8 321 8 q 465 24 415 8 q 554 70 515 39 q 617 149 593 101 q 642 260 642 196 q 603 392 642 342 q 505 474 564 442 q 378 528 446 506 q 251 577 310 550 q 153 645 192 604 q 114 754 114 686 q 134 842 114 801 q 189 914 154 883 q 271 961 224 944 q 372 978 318 978 q 428 974 397 978 q 492 964 460 971 q 555 947 524 957 q 611 926 586 938 m 367 1013 q 283 1138 325 1075 q 200 1264 242 1201 l 222 1264 q 294 1157 258 1211 q 367 1050 331 1103 q 439 1157 403 1103 q 511 1264 475 1211 l 533 1264 q 450 1138 492 1201 q 367 1013 408 1075 z "},"Ş":{"ha":738,"x_min":71,"x_max":661,"o":"m 611 926 l 603 911 q 558 928 583 919 q 503 944 532 936 q 442 956 474 951 q 381 960 411 960 q 278 944 324 960 q 200 900 232 928 q 151 835 168 872 q 133 758 133 799 q 172 656 133 693 q 270 592 211 618 q 397 542 329 565 q 524 486 465 519 q 622 400 583 453 q 661 261 661 347 q 638 147 661 197 q 575 62 615 97 q 480 8 535 26 q 360 -11 425 -11 q 255 1 303 -11 q 170 31 207 14 q 108 64 133 47 q 71 88 83 81 l 82 106 q 133 74 103 90 q 201 42 164 57 q 279 18 238 28 q 364 8 321 8 q 465 24 415 8 q 554 70 515 39 q 617 149 593 101 q 642 260 642 196 q 603 392 642 342 q 505 474 564 442 q 378 528 446 506 q 251 577 310 550 q 153 645 192 604 q 114 754 114 686 q 134 842 114 801 q 189 914 154 883 q 271 961 224 944 q 372 978 318 978 q 428 974 397 978 q 492 964 460 971 q 555 947 524 957 q 611 926 586 938 m 347 0 l 367 0 l 367 -8 q 386 -59 367 -44 q 424 -85 406 -74 q 469 -131 456 -106 q 482 -176 482 -157 q 447 -278 482 -247 q 365 -310 411 -310 q 298 -290 329 -310 q 253 -229 267 -269 q 263 -226 258 -228 q 274 -224 268 -225 q 306 -272 282 -253 q 365 -290 331 -290 q 435 -262 408 -290 q 463 -190 463 -233 q 444 -131 463 -151 q 405 -95 426 -110 q 365 -65 383 -81 q 347 -22 347 -50 l 347 0 z "},"Ť":{"ha":692,"x_min":58,"x_max":633,"o":"m 633 972 l 633 953 l 356 953 l 356 0 l 336 0 l 336 953 l 58 953 l 58 972 l 633 972 m 344 1013 q 428 1138 386 1075 q 511 1264 469 1201 l 489 1264 q 417 1157 453 1211 q 344 1050 381 1103 q 272 1157 308 1103 q 200 1264 236 1211 l 178 1264 q 261 1138 219 1201 q 344 1013 303 1075 z "},"Ź":{"ha":871,"x_min":33,"x_max":833,"o":"m 128 972 l 788 972 l 68 19 l 833 19 l 833 0 l 33 0 q 391 484 211 250 q 749 953 571 718 l 147 953 q 84 964 104 953 q 64 1015 64 975 l 64 1021 l 86 1021 l 86 1004 q 95 982 86 992 q 128 972 104 972 m 432 1042 q 494 1134 464 1088 q 557 1226 525 1181 l 579 1226 q 517 1134 547 1181 q 454 1042 486 1088 l 432 1042 z "},"Ž":{"ha":871,"x_min":33,"x_max":833,"o":"m 128 972 l 788 972 l 68 19 l 833 19 l 833 0 l 33 0 q 391 484 211 250 q 749 953 571 718 l 147 953 q 84 964 104 953 q 64 1015 64 975 l 64 1021 l 86 1021 l 86 1004 q 95 982 86 992 q 128 972 104 972 m 439 1013 q 356 1138 397 1075 q 272 1264 314 1201 l 294 1264 q 367 1157 331 1211 q 439 1050 403 1103 q 511 1157 475 1103 q 583 1264 547 1211 l 606 1264 q 522 1138 564 1201 q 439 1013 481 1075 z "},"Ż":{"ha":871,"x_min":33,"x_max":833,"o":"m 128 972 l 788 972 l 68 19 l 833 19 l 833 0 l 33 0 q 391 484 211 250 q 749 953 571 718 l 147 953 q 84 964 104 953 q 64 1015 64 975 l 64 1021 l 86 1021 l 86 1004 q 95 982 86 992 q 128 972 104 972 m 417 1051 q 425 1071 417 1063 q 444 1079 433 1079 q 464 1071 456 1079 q 472 1051 472 1063 q 464 1032 472 1040 q 444 1024 456 1024 q 425 1032 433 1024 q 417 1051 417 1040 z "},"ą":{"ha":708,"x_min":63,"x_max":699,"o":"m 82 261 q 101 163 82 208 q 155 84 121 118 q 234 31 189 50 q 332 11 279 11 q 429 31 383 11 q 510 84 475 50 q 564 163 544 118 q 583 261 583 208 q 564 358 583 313 q 510 439 544 404 q 429 493 475 474 q 332 513 383 513 q 234 493 279 513 q 155 439 189 474 q 101 358 121 404 q 82 261 82 313 m 63 261 q 83 367 63 317 q 141 453 104 417 q 226 510 178 489 q 332 532 275 532 q 485 484 418 532 q 583 361 553 436 q 585 441 583 401 q 589 521 586 481 l 603 521 l 603 0 l 583 0 l 583 75 q 584 119 583 97 q 585 163 585 140 q 544 94 569 125 q 487 40 519 63 q 415 4 454 17 q 332 -8 375 -8 q 226 13 275 -8 q 141 70 178 33 q 83 156 104 107 q 63 261 63 204 m 604 0 l 585 0 l 585 -8 q 565 -59 585 -44 q 528 -85 546 -74 q 483 -131 496 -106 q 469 -176 469 -157 q 505 -278 469 -247 q 586 -310 540 -310 q 653 -290 622 -310 q 699 -229 685 -269 q 688 -226 693 -228 q 678 -224 683 -225 q 645 -272 669 -253 q 586 -290 621 -290 q 516 -262 543 -290 q 489 -190 489 -233 q 507 -131 489 -151 q 547 -95 525 -110 q 586 -65 568 -81 q 604 -22 604 -50 l 604 0 z "},"ł":{"ha":263,"x_min":40,"x_max":250,"o":"m 40 388 l 40 407 l 250 485 l 250 465 l 40 388 m 139 0 l 119 0 l 119 1042 l 139 1042 l 139 0 z "},"ľ":{"ha":242,"x_min":111,"x_max":297,"o":"m 131 0 l 111 0 l 111 1042 l 131 1042 l 131 0 m 222 794 l 214 819 q 256 888 243 847 q 260 978 269 929 q 273 983 267 981 q 286 988 279 985 q 280 881 297 932 q 222 794 263 831 z "},"ś":{"ha":439,"x_min":58,"x_max":376,"o":"m 356 467 l 342 453 q 281 494 318 481 q 217 507 244 507 q 178 501 199 507 q 139 482 157 494 q 109 449 121 469 q 97 399 97 428 q 118 338 97 360 q 169 301 139 315 q 237 275 200 286 q 304 248 274 264 q 356 207 335 232 q 376 139 376 182 q 366 83 376 110 q 335 35 356 56 q 285 1 315 14 q 217 -11 256 -11 q 133 3 179 -11 q 58 54 88 18 q 66 60 63 57 q 74 67 69 64 q 100 43 82 54 q 139 24 118 32 q 181 13 160 17 q 218 8 201 8 q 259 15 235 8 q 305 35 283 21 q 342 74 326 50 q 357 133 357 97 q 336 199 357 175 q 285 237 315 222 q 217 263 254 251 q 150 289 181 274 q 99 329 119 304 q 78 397 78 354 q 90 455 78 431 q 122 495 101 479 q 167 519 142 511 q 217 526 192 526 q 287 513 247 526 q 356 467 326 500 m 215 665 q 278 758 247 711 q 340 850 308 804 l 363 850 q 300 758 331 804 q 238 665 269 711 l 215 665 z "},"š":{"ha":439,"x_min":51,"x_max":385,"o":"m 356 467 l 342 453 q 281 494 318 481 q 217 507 244 507 q 178 501 199 507 q 139 482 157 494 q 109 449 121 469 q 97 399 97 428 q 118 338 97 360 q 169 301 139 315 q 237 275 200 286 q 304 248 274 264 q 356 207 335 232 q 376 139 376 182 q 366 83 376 110 q 335 35 356 56 q 285 1 315 14 q 217 -11 256 -11 q 133 3 179 -11 q 58 54 88 18 q 66 60 63 57 q 74 67 69 64 q 100 43 82 54 q 139 24 118 32 q 181 13 160 17 q 218 8 201 8 q 259 15 235 8 q 305 35 283 21 q 342 74 326 50 q 357 133 357 97 q 336 199 357 175 q 285 237 315 222 q 217 263 254 251 q 150 289 181 274 q 99 329 119 304 q 78 397 78 354 q 90 455 78 431 q 122 495 101 479 q 167 519 142 511 q 217 526 192 526 q 287 513 247 526 q 356 467 326 500 m 218 665 q 301 791 260 728 q 385 917 343 854 l 363 917 q 290 810 326 864 q 218 703 254 756 q 146 810 182 756 q 74 917 110 864 l 51 917 q 135 791 93 854 q 218 665 176 728 z "},"ş":{"ha":439,"x_min":58,"x_max":376,"o":"m 356 467 l 342 453 q 281 494 318 481 q 217 507 244 507 q 178 501 199 507 q 139 482 157 494 q 109 449 121 469 q 97 399 97 428 q 118 338 97 360 q 169 301 139 315 q 237 275 200 286 q 304 248 274 264 q 356 207 335 232 q 376 139 376 182 q 366 83 376 110 q 335 35 356 56 q 285 1 315 14 q 217 -11 256 -11 q 133 3 179 -11 q 58 54 88 18 q 66 60 63 57 q 74 67 69 64 q 100 43 82 54 q 139 24 118 32 q 181 13 160 17 q 218 8 201 8 q 259 15 235 8 q 305 35 283 21 q 342 74 326 50 q 357 133 357 97 q 336 199 357 175 q 285 237 315 222 q 217 263 254 251 q 150 289 181 274 q 99 329 119 304 q 78 397 78 354 q 90 455 78 431 q 122 495 101 479 q 167 519 142 511 q 217 526 192 526 q 287 513 247 526 q 356 467 326 500 m 197 0 l 217 0 l 217 -8 q 236 -59 217 -44 q 274 -85 256 -74 q 319 -131 306 -106 q 332 -176 332 -157 q 297 -278 332 -247 q 215 -310 261 -310 q 148 -290 179 -310 q 103 -229 117 -269 q 113 -226 108 -228 q 124 -224 118 -225 q 156 -272 132 -253 q 215 -290 181 -290 q 285 -262 258 -290 q 313 -190 313 -233 q 294 -131 313 -151 q 255 -95 276 -110 q 215 -65 233 -81 q 197 -22 197 -50 l 197 0 z "},"ť":{"ha":364,"x_min":25,"x_max":360,"o":"m 149 749 l 168 749 l 168 510 l 344 510 l 344 490 l 168 490 l 168 0 l 149 0 l 149 490 l 25 490 l 25 510 l 149 510 l 149 749 m 285 794 l 276 819 q 319 888 306 847 q 322 978 332 929 q 335 983 329 981 q 349 988 342 985 q 342 881 360 932 q 285 794 325 831 z "},"ź":{"ha":489,"x_min":40,"x_max":444,"o":"m 438 0 l 50 0 l 411 501 l 124 501 q 60 513 81 501 q 40 564 40 524 l 40 569 l 58 569 l 58 553 q 69 531 58 540 q 104 521 81 521 l 444 521 l 83 19 l 438 19 l 438 0 m 208 665 q 271 758 240 711 q 333 850 301 804 l 356 850 q 293 758 324 804 q 231 665 263 711 l 208 665 z "},"ž":{"ha":489,"x_min":40,"x_max":444,"o":"m 438 0 l 50 0 l 411 501 l 124 501 q 60 513 81 501 q 40 564 40 524 l 40 569 l 58 569 l 58 553 q 69 531 58 540 q 104 521 81 521 l 444 521 l 83 19 l 438 19 l 438 0 m 254 665 q 171 791 213 728 q 88 917 129 854 l 110 917 q 182 810 146 864 q 254 703 218 756 q 326 810 290 756 q 399 917 363 864 l 421 917 q 338 791 379 854 q 254 665 296 728 z "},"ż":{"ha":489,"x_min":40,"x_max":444,"o":"m 438 0 l 50 0 l 411 501 l 124 501 q 60 513 81 501 q 40 564 40 524 l 40 569 l 58 569 l 58 553 q 69 531 58 540 q 104 521 81 521 l 444 521 l 83 19 l 438 19 l 438 0 m 199 694 q 207 714 199 706 q 226 722 215 722 q 246 714 238 722 q 254 694 254 706 q 246 675 254 683 q 226 667 238 667 q 207 675 215 667 q 199 694 199 683 z "},"Ŕ":{"ha":788,"x_min":165,"x_max":740,"o":"m 460 468 l 740 0 l 715 0 l 438 468 l 460 468 m 185 465 l 344 465 q 478 492 425 465 q 562 558 531 518 q 606 642 593 597 q 618 722 618 686 q 597 816 618 774 q 540 889 576 858 q 453 936 503 919 q 346 953 404 953 l 185 953 l 185 465 m 165 0 l 165 972 l 360 972 q 449 959 400 972 q 539 916 497 946 q 609 838 581 886 q 638 717 638 789 q 620 615 638 664 q 567 529 603 567 q 474 469 531 492 q 340 446 418 446 l 185 446 l 185 0 l 165 0 m 376 1042 q 439 1134 408 1088 q 501 1226 469 1181 l 524 1226 q 461 1134 492 1181 q 399 1042 431 1088 l 376 1042 z "},"Ă":{"ha":889,"x_min":42,"x_max":847,"o":"m 231 442 l 660 442 l 660 461 l 231 461 l 231 442 m 847 0 q 646 508 740 254 q 444 1017 551 763 q 243 508 338 763 q 42 0 149 254 l 63 0 q 247 469 161 235 q 432 938 333 703 q 438 955 435 946 q 444 972 442 964 q 451 955 447 964 q 457 938 454 946 q 642 469 556 703 q 826 0 728 235 l 847 0 m 446 1042 q 359 1058 400 1042 q 288 1104 318 1075 q 239 1174 257 1133 q 219 1260 221 1214 l 240 1260 q 258 1184 242 1219 q 301 1121 274 1149 q 365 1077 328 1093 q 446 1061 401 1061 q 527 1077 490 1061 q 590 1121 564 1093 q 631 1184 617 1149 q 647 1260 646 1219 l 669 1260 q 651 1174 669 1214 q 603 1104 633 1133 q 532 1058 572 1075 q 446 1042 492 1042 z "},"Ĺ":{"ha":768,"x_min":165,"x_max":747,"o":"m 165 0 l 165 972 l 185 972 l 185 19 l 747 19 l 747 0 l 165 0 m 390 1042 q 453 1134 422 1088 q 515 1226 483 1181 l 538 1226 q 475 1134 506 1181 q 413 1042 444 1088 l 390 1042 z "},"Ć":{"ha":901,"x_min":85,"x_max":835,"o":"m 833 58 q 715 8 778 26 q 576 -11 651 -11 q 375 28 465 -11 q 220 135 285 68 q 120 291 156 201 q 85 481 85 381 q 124 678 85 586 q 230 838 163 769 q 388 944 297 906 q 581 983 478 983 q 715 965 651 983 q 835 914 778 947 q 829 906 832 910 q 824 897 826 901 q 709 947 771 929 q 581 964 647 964 q 395 926 482 964 q 244 823 308 889 q 142 669 179 757 q 104 479 104 581 q 138 299 104 385 q 232 149 171 214 q 379 47 293 85 q 571 8 465 8 q 705 26 643 8 q 821 75 767 43 l 833 58 m 504 1042 q 567 1134 536 1088 q 629 1226 597 1181 l 651 1226 q 589 1134 619 1181 q 526 1042 558 1088 l 504 1042 z "},"Č":{"ha":901,"x_min":85,"x_max":835,"o":"m 833 58 q 715 8 778 26 q 576 -11 651 -11 q 375 28 465 -11 q 220 135 285 68 q 120 291 156 201 q 85 481 85 381 q 124 678 85 586 q 230 838 163 769 q 388 944 297 906 q 581 983 478 983 q 715 965 651 983 q 835 914 778 947 q 829 906 832 910 q 824 897 826 901 q 709 947 771 929 q 581 964 647 964 q 395 926 482 964 q 244 823 308 889 q 142 669 179 757 q 104 479 104 581 q 138 299 104 385 q 232 149 171 214 q 379 47 293 85 q 571 8 465 8 q 705 26 643 8 q 821 75 767 43 l 833 58 m 568 1013 q 651 1138 610 1075 q 735 1264 693 1201 l 713 1264 q 640 1157 676 1211 q 568 1050 604 1103 q 496 1157 532 1103 q 424 1264 460 1211 l 401 1264 q 485 1138 443 1201 q 568 1013 526 1075 z "},"Ę":{"ha":844,"x_min":165,"x_max":854,"o":"m 165 0 l 165 972 l 742 972 l 742 953 l 185 953 l 185 500 l 688 500 l 688 481 l 185 481 l 185 19 l 761 19 l 761 0 l 165 0 m 760 0 l 740 0 l 740 -8 q 721 -59 740 -44 q 683 -85 701 -74 q 638 -131 651 -106 q 625 -176 625 -157 q 660 -278 625 -247 q 742 -310 696 -310 q 809 -290 778 -310 q 854 -229 840 -269 q 844 -226 849 -228 q 833 -224 839 -225 q 801 -272 825 -253 q 742 -290 776 -290 q 672 -262 699 -290 q 644 -190 644 -233 q 663 -131 644 -151 q 702 -95 681 -110 q 742 -65 724 -81 q 760 -22 760 -50 l 760 0 z "},"Ě":{"ha":844,"x_min":165,"x_max":761,"o":"m 165 0 l 165 972 l 742 972 l 742 953 l 185 953 l 185 500 l 688 500 l 688 481 l 185 481 l 185 19 l 761 19 l 761 0 l 165 0 m 508 1013 q 425 1138 467 1075 q 342 1264 383 1201 l 364 1264 q 436 1157 400 1211 q 508 1050 472 1103 q 581 1157 544 1103 q 653 1264 617 1211 l 675 1264 q 592 1138 633 1201 q 508 1013 550 1075 z "},"Ď":{"ha":988,"x_min":165,"x_max":900,"o":"m 165 972 l 364 972 q 613 927 511 972 q 779 811 715 882 q 872 654 843 740 q 900 486 900 568 q 861 285 900 375 q 756 131 822 194 q 600 34 689 68 q 411 0 511 0 l 165 0 l 165 972 m 419 19 q 597 52 513 19 q 744 145 681 85 q 845 292 808 206 q 882 486 882 379 q 855 647 882 565 q 767 797 828 729 q 610 908 707 865 q 376 951 514 951 l 185 951 l 185 19 l 419 19 m 454 1013 q 371 1138 413 1075 q 288 1264 329 1201 l 310 1264 q 382 1157 346 1211 q 454 1050 418 1103 q 526 1157 490 1103 q 599 1264 563 1211 l 621 1264 q 538 1138 579 1201 q 454 1013 496 1075 z "},"Đ":{"ha":997,"x_min":94,"x_max":910,"o":"m 94 556 l 485 556 l 485 536 l 94 536 l 94 556 m 175 972 l 374 972 q 623 927 521 972 q 789 811 725 882 q 881 654 853 740 q 910 486 910 568 q 871 285 910 375 q 765 131 832 194 q 610 34 699 68 q 421 0 521 0 l 175 0 l 175 972 m 429 19 q 606 52 522 19 q 754 145 690 85 q 855 292 818 206 q 892 486 892 379 q 865 647 892 565 q 777 797 838 729 q 620 908 717 865 q 386 951 524 951 l 194 951 l 194 19 l 429 19 z "},"Ń":{"ha":1122,"x_min":164,"x_max":957,"o":"m 957 972 l 957 -44 q 573 447 758 204 q 206 931 388 689 q 192 949 199 940 q 179 967 186 957 q 181 944 181 956 q 183 922 182 933 l 183 0 l 164 0 l 164 1017 q 358 767 264 890 q 544 523 453 644 q 728 281 636 401 q 915 39 819 161 q 928 21 922 29 q 942 3 935 13 q 940 25 940 14 q 938 47 939 36 l 938 972 l 957 972 m 554 1042 q 617 1134 586 1088 q 679 1226 647 1181 l 701 1226 q 639 1134 669 1181 q 576 1042 608 1088 l 554 1042 z "},"Ň":{"ha":1122,"x_min":164,"x_max":957,"o":"m 957 972 l 957 -44 q 573 447 758 204 q 206 931 388 689 q 192 949 199 940 q 179 967 186 957 q 181 944 181 956 q 183 922 182 933 l 183 0 l 164 0 l 164 1017 q 358 767 264 890 q 544 523 453 644 q 728 281 636 401 q 915 39 819 161 q 928 21 922 29 q 942 3 935 13 q 940 25 940 14 q 938 47 939 36 l 938 972 l 957 972 m 575 1013 q 658 1138 617 1075 q 742 1264 700 1201 l 719 1264 q 647 1157 683 1211 q 575 1050 611 1103 q 503 1157 539 1103 q 431 1264 467 1211 l 408 1264 q 492 1138 450 1201 q 575 1013 533 1075 z "},"Ő":{"ha":1164,"x_min":85,"x_max":1079,"o":"m 85 485 q 124 678 85 588 q 230 837 163 769 q 388 944 297 904 q 581 983 478 983 q 774 944 683 983 q 933 837 865 904 q 1040 678 1000 769 q 1079 485 1079 588 q 1040 292 1079 382 q 933 134 1000 201 q 774 28 865 67 q 581 -11 683 -11 q 388 28 478 -11 q 230 134 297 67 q 124 292 163 201 q 85 485 85 382 m 104 483 q 142 299 104 385 q 243 148 179 213 q 393 46 307 83 q 576 8 479 8 q 763 46 675 8 q 917 148 851 83 q 1022 299 983 213 q 1060 485 1060 386 q 1022 670 1060 583 q 918 822 983 757 q 766 926 853 888 q 581 964 679 964 q 395 926 482 964 q 244 822 308 888 q 142 669 179 757 q 104 483 104 582 m 413 1042 q 475 1134 444 1088 q 538 1226 506 1181 l 560 1226 q 497 1134 528 1181 q 435 1042 467 1088 l 413 1042 m 715 1042 q 778 1134 747 1088 q 840 1226 808 1181 l 863 1226 q 800 1134 831 1181 q 738 1042 769 1088 l 715 1042 z "},"Ř":{"ha":788,"x_min":165,"x_max":740,"o":"m 460 468 l 740 0 l 715 0 l 438 468 l 460 468 m 185 465 l 344 465 q 478 492 425 465 q 562 558 531 518 q 606 642 593 597 q 618 722 618 686 q 597 816 618 774 q 540 889 576 858 q 453 936 503 919 q 346 953 404 953 l 185 953 l 185 465 m 165 0 l 165 972 l 360 972 q 449 959 400 972 q 539 916 497 946 q 609 838 581 886 q 638 717 638 789 q 620 615 638 664 q 567 529 603 567 q 474 469 531 492 q 340 446 418 446 l 185 446 l 185 0 l 165 0 m 383 1013 q 300 1138 342 1075 q 217 1264 258 1201 l 239 1264 q 311 1157 275 1211 q 383 1050 347 1103 q 456 1157 419 1103 q 528 1264 492 1211 l 550 1264 q 467 1138 508 1201 q 383 1013 425 1075 z "},"Ů":{"ha":929,"x_min":153,"x_max":778,"o":"m 406 1129 q 426 1081 406 1101 q 474 1061 446 1061 q 522 1081 501 1061 q 542 1129 542 1101 q 522 1177 542 1157 q 474 1197 501 1197 q 426 1177 446 1197 q 406 1129 406 1157 m 386 1129 q 411 1192 386 1167 q 474 1217 436 1217 q 536 1192 511 1217 q 561 1129 561 1167 q 536 1067 561 1092 q 474 1042 511 1042 q 411 1067 436 1042 q 386 1129 386 1092 m 465 -11 q 341 10 399 -11 q 242 72 283 31 q 176 174 200 113 q 153 314 153 235 l 153 972 l 172 972 l 172 318 q 194 185 172 243 q 254 88 215 128 q 347 28 293 49 q 465 8 401 8 q 582 28 528 8 q 675 88 636 49 q 736 185 714 128 q 758 318 758 243 l 758 972 l 778 972 l 778 314 q 753 174 778 235 q 688 72 729 113 q 589 10 646 31 q 465 -11 532 -11 z "},"Ű":{"ha":929,"x_min":153,"x_max":778,"o":"m 465 -11 q 341 10 399 -11 q 242 72 283 31 q 176 174 200 113 q 153 314 153 235 l 153 972 l 172 972 l 172 318 q 194 185 172 243 q 254 88 215 128 q 347 28 293 49 q 465 8 401 8 q 582 28 528 8 q 675 88 636 49 q 736 185 714 128 q 758 318 758 243 l 758 972 l 778 972 l 778 314 q 753 174 778 235 q 688 72 729 113 q 589 10 646 31 q 465 -11 532 -11 m 286 1042 q 349 1134 318 1088 q 411 1226 379 1181 l 433 1226 q 371 1134 401 1181 q 308 1042 340 1088 l 286 1042 m 589 1042 q 651 1134 621 1088 q 714 1226 682 1181 l 736 1226 q 674 1134 704 1181 q 611 1042 643 1088 l 589 1042 z "},"Ţ":{"ha":692,"x_min":58,"x_max":633,"o":"m 633 972 l 633 953 l 356 953 l 356 0 l 336 0 l 336 953 l 58 953 l 58 972 l 633 972 m 358 -29 q 299 -172 328 -101 q 239 -315 269 -243 l 219 -315 q 273 -172 247 -243 q 326 -29 299 -101 l 358 -29 z "},"ŕ":{"ha":363,"x_min":106,"x_max":351,"o":"m 351 511 q 265 494 306 510 q 192 451 224 478 q 143 386 161 424 q 125 306 125 349 l 125 0 l 106 0 l 106 521 l 119 521 l 121 385 q 211 490 150 451 q 351 531 272 528 l 351 511 m 192 665 q 254 758 224 711 q 317 850 285 804 l 339 850 q 276 758 307 804 q 214 665 246 711 l 192 665 z "},"ă":{"ha":708,"x_min":63,"x_max":603,"o":"m 82 261 q 101 163 82 208 q 155 84 121 118 q 234 31 189 50 q 332 11 279 11 q 429 31 383 11 q 510 84 475 50 q 564 163 544 118 q 583 261 583 208 q 564 358 583 313 q 510 439 544 404 q 429 493 475 474 q 332 513 383 513 q 234 493 279 513 q 155 439 189 474 q 101 358 121 404 q 82 261 82 313 m 63 261 q 83 367 63 317 q 141 453 104 417 q 226 510 178 489 q 332 532 275 532 q 485 484 418 532 q 583 361 553 436 q 585 441 583 401 q 589 521 586 481 l 603 521 l 603 0 l 583 0 l 583 75 q 584 119 583 97 q 585 163 585 140 q 544 94 569 125 q 487 40 519 63 q 415 4 454 17 q 332 -8 375 -8 q 226 13 275 -8 q 141 70 178 33 q 83 156 104 107 q 63 261 63 204 m 369 694 q 283 711 324 694 q 211 757 242 728 q 163 826 181 786 q 143 913 144 867 l 164 913 q 181 837 165 872 q 224 774 197 801 q 288 730 251 746 q 369 714 325 714 q 451 730 414 714 q 514 774 488 746 q 555 837 540 801 q 571 913 569 872 l 593 913 q 575 826 593 867 q 526 757 557 786 q 456 711 496 728 q 369 694 415 694 z "},"ĺ":{"ha":242,"x_min":72,"x_max":219,"o":"m 131 0 l 111 0 l 111 1042 l 131 1042 l 131 0 m 72 1069 q 135 1162 104 1115 q 197 1254 165 1208 l 219 1254 q 157 1162 188 1208 q 94 1069 126 1115 l 72 1069 z "},"ć":{"ha":560,"x_min":63,"x_max":503,"o":"m 489 65 l 503 51 q 424 8 467 24 q 332 -8 381 -8 q 226 13 275 -8 q 141 70 178 33 q 83 156 104 107 q 63 261 63 204 q 83 367 63 317 q 141 453 104 417 q 226 510 178 489 q 332 532 275 532 q 424 516 381 532 q 503 472 468 500 q 496 465 500 468 q 489 457 492 461 q 417 498 457 483 q 332 513 376 513 q 234 493 279 513 q 155 439 189 474 q 101 358 121 404 q 82 261 82 313 q 101 163 82 208 q 155 84 121 118 q 234 31 189 50 q 332 11 279 11 q 417 26 376 11 q 489 65 457 40 m 285 665 q 347 758 317 711 q 410 850 378 804 l 432 850 q 369 758 400 804 q 307 665 339 711 l 285 665 z "},"č":{"ha":560,"x_min":63,"x_max":503,"o":"m 489 65 l 503 51 q 424 8 467 24 q 332 -8 381 -8 q 226 13 275 -8 q 141 70 178 33 q 83 156 104 107 q 63 261 63 204 q 83 367 63 317 q 141 453 104 417 q 226 510 178 489 q 332 532 275 532 q 424 516 381 532 q 503 472 468 500 q 496 465 500 468 q 489 457 492 461 q 417 498 457 483 q 332 513 376 513 q 234 493 279 513 q 155 439 189 474 q 101 358 121 404 q 82 261 82 313 q 101 163 82 208 q 155 84 121 118 q 234 31 189 50 q 332 11 279 11 q 417 26 376 11 q 489 65 457 40 m 332 665 q 415 791 374 728 q 499 917 457 854 l 476 917 q 404 810 440 864 q 332 703 368 756 q 260 810 296 756 q 188 917 224 864 l 165 917 q 249 791 207 854 q 332 665 290 728 z "},"ę":{"ha":607,"x_min":63,"x_max":567,"o":"m 518 64 q 434 11 482 31 q 332 -8 386 -8 q 226 13 275 -8 q 141 70 178 33 q 83 156 104 107 q 63 261 63 204 q 83 367 63 317 q 141 453 104 417 q 226 512 178 490 q 332 533 275 533 q 477 484 418 533 q 567 360 536 435 q 454 315 514 339 q 333 265 394 290 q 212 216 272 240 q 99 169 151 192 q 189 55 126 99 q 332 11 251 11 q 426 28 382 11 q 503 78 469 46 l 518 64 m 540 369 q 459 472 511 432 q 332 513 407 513 q 234 493 279 513 q 155 439 189 474 q 101 358 121 404 q 82 261 82 313 q 92 188 82 221 q 200 232 143 208 q 315 278 257 256 q 431 325 374 301 q 540 369 489 349 m 347 0 l 328 0 l 328 -8 q 308 -59 328 -44 q 271 -85 289 -74 q 226 -131 239 -106 q 213 -176 213 -157 q 248 -278 213 -247 q 329 -310 283 -310 q 397 -290 365 -310 q 442 -229 428 -269 q 431 -226 436 -228 q 421 -224 426 -225 q 388 -272 413 -253 q 329 -290 364 -290 q 259 -262 286 -290 q 232 -190 232 -233 q 250 -131 232 -151 q 290 -95 268 -110 q 329 -65 311 -81 q 347 -22 347 -50 l 347 0 z "},"ě":{"ha":607,"x_min":63,"x_max":567,"o":"m 518 64 q 434 11 482 31 q 332 -8 386 -8 q 226 13 275 -8 q 141 70 178 33 q 83 156 104 107 q 63 261 63 204 q 83 367 63 317 q 141 453 104 417 q 226 512 178 490 q 332 533 275 533 q 477 484 418 533 q 567 360 536 435 q 454 315 514 339 q 333 265 394 290 q 212 216 272 240 q 99 169 151 192 q 189 55 126 99 q 332 11 251 11 q 426 28 382 11 q 503 78 469 46 l 518 64 m 540 369 q 459 472 511 432 q 332 513 407 513 q 234 493 279 513 q 155 439 189 474 q 101 358 121 404 q 82 261 82 313 q 92 188 82 221 q 200 232 143 208 q 315 278 257 256 q 431 325 374 301 q 540 369 489 349 m 324 665 q 240 791 282 728 q 157 917 199 854 l 179 917 q 251 810 215 864 q 324 703 288 756 q 396 810 360 756 q 468 917 432 864 l 490 917 q 407 791 449 854 q 324 665 365 728 z "},"ď":{"ha":708,"x_min":63,"x_max":769,"o":"m 82 261 q 101 163 82 208 q 155 84 121 118 q 234 31 189 50 q 332 11 279 11 q 429 31 383 11 q 510 84 475 50 q 564 163 544 118 q 583 261 583 208 q 564 358 583 313 q 510 439 544 404 q 429 493 475 474 q 332 513 383 513 q 234 493 279 513 q 155 439 189 474 q 101 358 121 404 q 82 261 82 313 m 63 261 q 83 367 63 317 q 141 453 104 417 q 226 510 178 489 q 332 532 275 532 q 485 484 418 532 q 583 361 553 436 l 583 1042 l 603 1042 l 603 0 l 583 0 l 583 75 q 584 119 583 97 q 585 163 585 140 q 544 94 569 125 q 487 40 519 63 q 415 4 454 17 q 332 -8 375 -8 q 226 13 275 -8 q 141 70 178 33 q 83 156 104 107 q 63 261 63 204 m 694 794 l 686 819 q 728 888 715 847 q 732 978 742 929 q 745 983 739 981 q 758 988 751 985 q 752 881 769 932 q 694 794 735 831 z "},"đ":{"ha":708,"x_min":63,"x_max":696,"o":"m 306 856 l 696 856 l 696 875 l 306 875 l 306 856 m 82 261 q 101 163 82 208 q 155 84 121 118 q 234 31 189 50 q 332 11 279 11 q 429 31 383 11 q 510 84 475 50 q 564 163 544 118 q 583 261 583 208 q 564 358 583 313 q 510 439 544 404 q 429 493 475 474 q 332 513 383 513 q 234 493 279 513 q 155 439 189 474 q 101 358 121 404 q 82 261 82 313 m 63 261 q 83 367 63 317 q 141 453 104 417 q 226 510 178 489 q 332 532 275 532 q 485 484 418 532 q 583 361 553 436 l 583 1042 l 603 1042 l 603 0 l 583 0 l 583 75 q 584 119 583 97 q 585 163 585 140 q 544 94 569 125 q 487 40 519 63 q 415 4 454 17 q 332 -8 375 -8 q 226 13 275 -8 q 141 70 178 33 q 83 156 104 107 q 63 261 63 204 z "},"ń":{"ha":611,"x_min":106,"x_max":511,"o":"m 106 521 l 119 521 l 121 385 q 210 490 149 450 q 350 531 271 531 q 466 488 424 531 q 511 375 508 444 l 511 0 l 492 0 l 492 385 q 455 472 489 435 q 360 511 421 508 q 270 496 313 511 q 195 453 228 481 q 144 388 163 426 q 125 306 125 350 l 125 0 l 106 0 l 106 521 m 276 665 q 339 758 308 711 q 401 850 369 804 l 424 850 q 361 758 392 804 q 299 665 331 711 l 276 665 z "},"ň":{"ha":611,"x_min":106,"x_max":511,"o":"m 106 521 l 119 521 l 121 385 q 210 490 149 450 q 350 531 271 531 q 466 488 424 531 q 511 375 508 444 l 511 0 l 492 0 l 492 385 q 455 472 489 435 q 360 511 421 508 q 270 496 313 511 q 195 453 228 481 q 144 388 163 426 q 125 306 125 350 l 125 0 l 106 0 l 106 521 m 310 665 q 226 791 268 728 q 143 917 185 854 l 165 917 q 238 810 201 864 q 310 703 274 756 q 382 810 346 756 q 454 917 418 864 l 476 917 q 393 791 435 854 q 310 665 351 728 z "},"ő":{"ha":667,"x_min":63,"x_max":614,"o":"m 63 261 q 83 367 63 317 q 141 453 104 417 q 226 512 178 490 q 332 533 275 533 q 438 512 388 533 q 524 453 488 490 q 583 367 561 417 q 604 261 604 317 q 583 156 604 204 q 524 70 561 107 q 438 13 488 33 q 332 -8 388 -8 q 226 13 275 -8 q 141 70 178 33 q 83 156 104 107 q 63 261 63 204 m 82 261 q 101 163 82 208 q 155 84 121 118 q 234 31 189 50 q 332 11 279 11 q 429 31 383 11 q 510 84 475 50 q 564 163 544 118 q 583 261 583 208 q 564 358 583 313 q 510 439 544 404 q 429 493 475 474 q 332 513 383 513 q 234 493 279 513 q 155 439 189 474 q 101 358 121 404 q 82 261 82 313 m 164 665 q 226 758 196 711 q 289 850 257 804 l 311 850 q 249 758 279 804 q 186 665 218 711 l 164 665 m 467 665 q 529 758 499 711 q 592 850 560 804 l 614 850 q 551 758 582 804 q 489 665 521 711 l 467 665 z "},"ř":{"ha":363,"x_min":43,"x_max":376,"o":"m 351 511 q 265 494 306 510 q 192 451 224 478 q 143 386 161 424 q 125 306 125 349 l 125 0 l 106 0 l 106 521 l 119 521 l 121 385 q 211 490 150 451 q 351 531 272 528 l 351 511 m 210 665 q 126 791 168 728 q 43 917 85 854 l 65 917 q 138 810 101 864 q 210 703 174 756 q 282 810 246 756 q 354 917 318 864 l 376 917 q 293 791 335 854 q 210 665 251 728 z "},"ů":{"ha":611,"x_min":100,"x_max":506,"o":"m 242 651 q 262 603 242 624 q 310 583 282 583 q 358 603 338 583 q 378 651 378 624 q 358 699 378 679 q 310 719 338 719 q 262 699 282 719 q 242 651 242 679 m 222 651 q 247 714 222 689 q 310 739 272 739 q 372 714 347 739 q 397 651 397 689 q 372 589 397 614 q 310 564 347 564 q 247 589 272 564 q 222 651 222 614 m 506 0 l 492 0 l 490 136 q 401 30 463 69 q 261 -10 339 -10 q 145 33 188 -10 q 100 146 103 76 l 100 521 l 119 521 l 119 136 q 156 49 122 86 q 251 10 190 13 q 341 25 299 10 q 415 67 383 40 q 467 133 447 94 q 486 215 486 171 l 486 521 l 506 521 l 506 0 z "},"ű":{"ha":611,"x_min":100,"x_max":583,"o":"m 506 0 l 492 0 l 490 136 q 401 30 463 69 q 261 -10 339 -10 q 145 33 188 -10 q 100 146 103 76 l 100 521 l 119 521 l 119 136 q 156 49 122 86 q 251 10 190 13 q 341 25 299 10 q 415 67 383 40 q 467 133 447 94 q 486 215 486 171 l 486 521 l 506 521 l 506 0 m 133 665 q 196 758 165 711 q 258 850 226 804 l 281 850 q 218 758 249 804 q 156 665 188 711 l 133 665 m 436 665 q 499 758 468 711 q 561 850 529 804 l 583 850 q 521 758 551 804 q 458 665 490 711 l 436 665 z "},"ţ":{"ha":364,"x_min":25,"x_max":344,"o":"m 149 749 l 168 749 l 168 510 l 344 510 l 344 490 l 168 490 l 168 0 l 149 0 l 149 490 l 25 490 l 25 510 l 149 510 l 149 749 m 181 -29 q 121 -172 150 -101 q 61 -315 92 -243 l 42 -315 q 95 -172 69 -243 q 149 -29 121 -101 l 181 -29 z "},"Ħ":{"ha":1042,"x_min":69,"x_max":972,"o":"m 69 683 l 69 703 l 972 703 l 972 683 l 69 683 m 178 0 l 178 972 l 197 972 l 197 500 l 842 500 l 842 972 l 867 972 q 864 486 865 728 q 861 0 863 244 l 842 0 l 842 481 l 197 481 l 197 0 l 178 0 z "},"Ĥ":{"ha":1017,"x_min":165,"x_max":854,"o":"m 165 0 l 165 972 l 185 972 l 185 500 l 829 500 l 829 972 l 854 972 q 851 486 853 728 q 849 0 850 244 l 829 0 l 829 481 l 185 481 l 185 0 l 165 0 m 513 1293 q 596 1167 554 1231 q 679 1042 638 1104 l 657 1042 q 585 1149 621 1094 q 513 1256 549 1203 q 440 1149 476 1203 q 368 1042 404 1094 l 346 1042 q 429 1167 388 1104 q 513 1293 471 1231 z "},"İ":{"ha":350,"x_min":147,"x_max":203,"o":"m 165 972 l 185 972 l 185 0 l 165 0 l 165 972 m 147 1069 q 156 1089 147 1081 q 175 1097 164 1097 q 194 1089 186 1097 q 203 1069 203 1081 q 194 1050 203 1058 q 175 1042 186 1042 q 156 1050 164 1042 q 147 1069 147 1058 z "},"Ğ":{"ha":942,"x_min":85,"x_max":835,"o":"m 833 417 l 833 58 q 715 8 778 26 q 581 -11 651 -11 q 376 28 468 -11 q 220 134 285 67 q 120 292 156 201 q 85 485 85 382 q 124 678 85 588 q 230 837 163 769 q 388 944 297 904 q 581 983 478 983 q 715 965 651 983 q 835 914 778 947 l 824 897 q 709 947 771 929 q 581 964 647 964 q 395 926 482 964 q 244 822 308 888 q 142 669 179 757 q 104 483 104 582 q 138 299 104 385 q 233 148 171 213 q 381 46 294 83 q 576 8 468 8 q 701 24 642 8 q 814 71 761 40 l 814 397 l 575 397 l 575 417 l 833 417 m 549 1040 q 462 1057 503 1040 q 390 1103 421 1074 q 342 1172 360 1132 q 322 1258 324 1213 l 343 1258 q 360 1183 344 1218 q 403 1119 376 1147 q 467 1076 431 1092 q 549 1060 504 1060 q 630 1076 593 1060 q 693 1119 667 1092 q 734 1183 719 1147 q 750 1258 749 1218 l 772 1258 q 754 1172 772 1213 q 706 1103 736 1132 q 635 1057 675 1074 q 549 1040 594 1040 z "},"Ĵ":{"ha":353,"x_min":-68,"x_max":346,"o":"m -68 -197 l -68 -178 q 26 -153 -17 -175 q 101 -92 69 -132 q 151 3 133 -53 q 169 129 169 58 l 169 972 l 189 972 l 189 125 q 169 -12 189 47 q 113 -111 149 -71 q 31 -174 78 -151 q -68 -197 -15 -196 m 179 1293 q 263 1167 221 1231 q 346 1042 304 1104 l 324 1042 q 251 1149 288 1094 q 179 1256 215 1203 q 107 1149 143 1203 q 35 1042 71 1094 l 13 1042 q 96 1167 54 1104 q 179 1293 138 1231 z "},"ħ":{"ha":611,"x_min":29,"x_max":511,"o":"m 29 793 l 29 813 l 349 813 l 349 793 l 29 793 m 106 1042 l 125 1042 l 125 393 q 210 491 150 451 q 350 531 271 531 q 466 488 424 531 q 511 375 508 444 l 511 0 l 492 0 l 492 385 q 455 472 489 435 q 360 511 421 508 q 270 496 313 511 q 195 453 228 481 q 144 388 163 426 q 125 306 125 350 l 125 0 l 106 0 l 106 1042 z "},"ĥ":{"ha":611,"x_min":106,"x_max":511,"o":"m 106 1042 l 125 1042 l 125 393 q 210 491 150 451 q 350 531 271 531 q 466 488 424 531 q 511 375 508 444 l 511 0 l 492 0 l 492 385 q 455 472 489 435 q 360 511 421 508 q 270 496 313 511 q 195 453 228 481 q 144 388 163 426 q 125 306 125 350 l 125 0 l 106 0 l 106 1042 m 342 1293 q 425 1167 383 1231 q 508 1042 467 1104 l 486 1042 q 414 1149 450 1094 q 342 1256 378 1203 q 269 1149 306 1203 q 197 1042 233 1094 l 175 1042 q 258 1167 217 1104 q 342 1293 300 1231 z "},"ı":{"ha":231,"x_min":106,"x_max":125,"o":"m 125 0 l 106 0 l 106 521 l 125 521 l 125 0 z "},"ğ":{"ha":708,"x_min":63,"x_max":603,"o":"m 63 261 q 83 367 63 317 q 141 453 104 417 q 226 510 178 489 q 332 532 275 532 q 485 484 418 532 q 583 361 553 436 q 585 441 583 401 q 589 521 586 481 l 603 521 l 603 -11 q 591 -99 603 -56 q 549 -175 579 -142 q 466 -229 518 -208 q 333 -250 414 -250 q 283 -247 308 -250 q 228 -231 257 -243 q 167 -199 199 -219 q 100 -143 135 -178 l 113 -129 q 178 -183 147 -162 q 235 -213 208 -203 q 287 -227 263 -224 q 332 -231 311 -231 q 453 -212 406 -231 q 529 -162 501 -194 q 569 -87 557 -131 q 582 8 581 -43 q 582 19 582 15 q 582 28 582 22 q 583 45 582 35 q 583 75 583 56 q 583 90 583 76 q 584 118 583 103 q 585 147 585 133 q 585 163 585 160 q 544 94 569 125 q 487 40 519 63 q 415 4 454 17 q 332 -8 375 -8 q 226 13 275 -8 q 141 70 178 33 q 83 156 104 107 q 63 261 63 204 m 82 261 q 101 163 82 208 q 155 84 121 118 q 234 31 189 50 q 332 11 279 11 q 429 31 383 11 q 510 84 475 50 q 564 163 544 118 q 583 261 583 208 q 564 358 583 313 q 510 439 544 404 q 429 493 475 474 q 332 513 383 513 q 234 493 279 513 q 155 439 189 474 q 101 358 121 404 q 82 261 82 313 m 365 694 q 278 711 319 694 q 207 757 238 728 q 158 826 176 786 q 139 913 140 867 l 160 913 q 177 837 161 872 q 220 774 193 801 q 284 730 247 746 q 365 714 321 714 q 447 730 410 714 q 510 774 483 746 q 551 837 536 801 q 567 913 565 872 l 589 913 q 571 826 589 867 q 522 757 553 786 q 451 711 492 728 q 365 694 411 694 z "},"ĵ":{"ha":231,"x_min":-50,"x_max":283,"o":"m 46 -250 l 29 -237 q 85 -142 64 -199 q 106 -15 106 -86 l 106 521 l 125 521 l 125 -10 q 103 -149 125 -89 q 46 -250 82 -210 m 117 915 q 200 790 158 853 q 283 664 242 726 l 261 664 q 189 771 225 717 q 117 878 153 825 q 44 771 81 825 q -28 664 8 717 l -50 664 q 33 790 -8 726 q 117 915 75 853 z "},"Ċ":{"ha":901,"x_min":85,"x_max":835,"o":"m 833 58 q 715 8 778 26 q 576 -11 651 -11 q 375 28 465 -11 q 220 135 285 68 q 120 291 156 201 q 85 481 85 381 q 124 678 85 586 q 230 838 163 769 q 388 944 297 906 q 581 983 478 983 q 715 965 651 983 q 835 914 778 947 q 829 906 832 910 q 824 897 826 901 q 709 947 771 929 q 581 964 647 964 q 395 926 482 964 q 244 823 308 889 q 142 669 179 757 q 104 479 104 581 q 138 299 104 385 q 232 149 171 214 q 379 47 293 85 q 571 8 465 8 q 705 26 643 8 q 821 75 767 43 l 833 58 m 525 1069 q 533 1089 525 1081 q 553 1097 542 1097 q 572 1089 564 1097 q 581 1069 581 1081 q 572 1050 581 1058 q 553 1042 564 1042 q 533 1050 542 1042 q 525 1069 525 1058 z "},"Ĉ":{"ha":901,"x_min":85,"x_max":835,"o":"m 833 58 q 715 8 778 26 q 576 -11 651 -11 q 375 28 465 -11 q 220 135 285 68 q 120 291 156 201 q 85 481 85 381 q 124 678 85 586 q 230 838 163 769 q 388 944 297 906 q 581 983 478 983 q 715 965 651 983 q 835 914 778 947 q 829 906 832 910 q 824 897 826 901 q 709 947 771 929 q 581 964 647 964 q 395 926 482 964 q 244 823 308 889 q 142 669 179 757 q 104 479 104 581 q 138 299 104 385 q 232 149 171 214 q 379 47 293 85 q 571 8 465 8 q 705 26 643 8 q 821 75 767 43 l 833 58 m 572 1293 q 656 1167 614 1231 q 739 1042 697 1104 l 717 1042 q 644 1149 681 1094 q 572 1256 608 1203 q 500 1149 536 1203 q 428 1042 464 1094 l 406 1042 q 489 1167 447 1104 q 572 1293 531 1231 z "},"Ġ":{"ha":942,"x_min":85,"x_max":835,"o":"m 833 417 l 833 58 q 715 8 778 26 q 581 -11 651 -11 q 376 28 468 -11 q 220 134 285 67 q 120 292 156 201 q 85 485 85 382 q 124 678 85 588 q 230 837 163 769 q 388 944 297 904 q 581 983 478 983 q 715 965 651 983 q 835 914 778 947 l 824 897 q 709 947 771 929 q 581 964 647 964 q 395 926 482 964 q 244 822 308 888 q 142 669 179 757 q 104 483 104 582 q 138 299 104 385 q 233 148 171 213 q 381 46 294 83 q 576 8 468 8 q 701 24 642 8 q 814 71 761 40 l 814 397 l 575 397 l 575 417 l 833 417 m 525 1069 q 533 1089 525 1081 q 553 1097 542 1097 q 572 1089 564 1097 q 581 1069 581 1081 q 572 1050 581 1058 q 553 1042 564 1042 q 533 1050 542 1042 q 525 1069 525 1058 z "},"Ĝ":{"ha":942,"x_min":85,"x_max":835,"o":"m 833 417 l 833 58 q 715 8 778 26 q 581 -11 651 -11 q 376 28 468 -11 q 220 134 285 67 q 120 292 156 201 q 85 485 85 382 q 124 678 85 588 q 230 837 163 769 q 388 944 297 904 q 581 983 478 983 q 715 965 651 983 q 835 914 778 947 l 824 897 q 709 947 771 929 q 581 964 647 964 q 395 926 482 964 q 244 822 308 888 q 142 669 179 757 q 104 483 104 582 q 138 299 104 385 q 233 148 171 213 q 381 46 294 83 q 576 8 468 8 q 701 24 642 8 q 814 71 761 40 l 814 397 l 575 397 l 575 417 l 833 417 m 564 1293 q 647 1167 606 1231 q 731 1042 689 1104 l 708 1042 q 636 1149 672 1094 q 564 1256 600 1203 q 492 1149 528 1203 q 419 1042 456 1094 l 397 1042 q 481 1167 439 1104 q 564 1293 522 1231 z "},"Ŭ":{"ha":929,"x_min":153,"x_max":778,"o":"m 465 -11 q 341 10 399 -11 q 242 72 283 31 q 176 174 200 113 q 153 314 153 235 l 153 972 l 172 972 l 172 318 q 194 185 172 243 q 254 88 215 128 q 347 28 293 49 q 465 8 401 8 q 582 28 528 8 q 675 88 636 49 q 736 185 714 128 q 758 318 758 243 l 758 972 l 778 972 l 778 314 q 753 174 778 235 q 688 72 729 113 q 589 10 646 31 q 465 -11 532 -11 m 478 1040 q 391 1057 432 1040 q 319 1103 350 1074 q 271 1172 289 1132 q 251 1258 253 1213 l 272 1258 q 290 1183 274 1218 q 333 1119 306 1147 q 397 1076 360 1092 q 478 1060 433 1060 q 559 1076 522 1060 q 622 1119 596 1092 q 663 1183 649 1147 q 679 1258 678 1218 l 701 1258 q 683 1172 701 1213 q 635 1103 665 1132 q 564 1057 604 1074 q 478 1040 524 1040 z "},"Ŝ":{"ha":738,"x_min":71,"x_max":661,"o":"m 611 926 l 603 911 q 558 928 583 919 q 503 944 532 936 q 442 956 474 951 q 381 960 411 960 q 278 944 324 960 q 200 900 232 928 q 151 835 168 872 q 133 758 133 799 q 172 656 133 693 q 270 592 211 618 q 397 542 329 565 q 524 486 465 519 q 622 400 583 453 q 661 261 661 347 q 638 147 661 197 q 575 62 615 97 q 480 8 535 26 q 360 -11 425 -11 q 255 1 303 -11 q 170 31 207 14 q 108 64 133 47 q 71 88 83 81 l 82 106 q 133 74 103 90 q 201 42 164 57 q 279 18 238 28 q 364 8 321 8 q 465 24 415 8 q 554 70 515 39 q 617 149 593 101 q 642 260 642 196 q 603 392 642 342 q 505 474 564 442 q 378 528 446 506 q 251 577 310 550 q 153 645 192 604 q 114 754 114 686 q 134 842 114 801 q 189 914 154 883 q 271 961 224 944 q 372 978 318 978 q 428 974 397 978 q 492 964 460 971 q 555 947 524 957 q 611 926 586 938 m 378 1293 q 461 1167 419 1231 q 544 1042 503 1104 l 522 1042 q 450 1149 486 1094 q 378 1256 414 1203 q 306 1149 342 1203 q 233 1042 269 1094 l 211 1042 q 294 1167 253 1104 q 378 1293 336 1231 z "},"ċ":{"ha":560,"x_min":63,"x_max":503,"o":"m 489 65 l 503 51 q 424 8 467 24 q 332 -8 381 -8 q 226 13 275 -8 q 141 70 178 33 q 83 156 104 107 q 63 261 63 204 q 83 367 63 317 q 141 453 104 417 q 226 510 178 489 q 332 532 275 532 q 424 516 381 532 q 503 472 468 500 q 496 465 500 468 q 489 457 492 461 q 417 498 457 483 q 332 513 376 513 q 234 493 279 513 q 155 439 189 474 q 101 358 121 404 q 82 261 82 313 q 101 163 82 208 q 155 84 121 118 q 234 31 189 50 q 332 11 279 11 q 417 26 376 11 q 489 65 457 40 m 303 694 q 311 714 303 706 q 331 722 319 722 q 350 714 342 722 q 358 694 358 706 q 350 675 358 683 q 331 667 342 667 q 311 675 319 667 q 303 694 303 683 z "},"ĉ":{"ha":560,"x_min":63,"x_max":503,"o":"m 489 65 l 503 51 q 424 8 467 24 q 332 -8 381 -8 q 226 13 275 -8 q 141 70 178 33 q 83 156 104 107 q 63 261 63 204 q 83 367 63 317 q 141 453 104 417 q 226 510 178 489 q 332 532 275 532 q 424 516 381 532 q 503 472 468 500 q 496 465 500 468 q 489 457 492 461 q 417 498 457 483 q 332 513 376 513 q 234 493 279 513 q 155 439 189 474 q 101 358 121 404 q 82 261 82 313 q 101 163 82 208 q 155 84 121 118 q 234 31 189 50 q 332 11 279 11 q 417 26 376 11 q 489 65 457 40 m 319 915 q 403 790 361 853 q 486 664 444 726 l 464 664 q 392 771 428 717 q 319 878 356 825 q 247 771 283 825 q 175 664 211 717 l 153 664 q 236 790 194 726 q 319 915 278 853 z "},"ġ":{"ha":708,"x_min":63,"x_max":603,"o":"m 63 261 q 83 367 63 317 q 141 453 104 417 q 226 510 178 489 q 332 532 275 532 q 485 484 418 532 q 583 361 553 436 q 585 441 583 401 q 589 521 586 481 l 603 521 l 603 -11 q 591 -99 603 -56 q 549 -175 579 -142 q 466 -229 518 -208 q 333 -250 414 -250 q 283 -247 308 -250 q 228 -231 257 -243 q 167 -199 199 -219 q 100 -143 135 -178 l 113 -129 q 178 -183 147 -162 q 235 -213 208 -203 q 287 -227 263 -224 q 332 -231 311 -231 q 453 -212 406 -231 q 529 -162 501 -194 q 569 -87 557 -131 q 582 8 581 -43 q 582 19 582 15 q 582 28 582 22 q 583 45 582 35 q 583 75 583 56 q 583 90 583 76 q 584 118 583 103 q 585 147 585 133 q 585 163 585 160 q 544 94 569 125 q 487 40 519 63 q 415 4 454 17 q 332 -8 375 -8 q 226 13 275 -8 q 141 70 178 33 q 83 156 104 107 q 63 261 63 204 m 82 261 q 101 163 82 208 q 155 84 121 118 q 234 31 189 50 q 332 11 279 11 q 429 31 383 11 q 510 84 475 50 q 564 163 544 118 q 583 261 583 208 q 564 358 583 313 q 510 439 544 404 q 429 493 475 474 q 332 513 383 513 q 234 493 279 513 q 155 439 189 474 q 101 358 121 404 q 82 261 82 313 m 335 694 q 343 714 335 706 q 363 722 351 722 q 382 714 374 722 q 390 694 390 706 q 382 675 390 683 q 363 667 374 667 q 343 675 351 667 q 335 694 335 683 z "},"ĝ":{"ha":708,"x_min":63,"x_max":603,"o":"m 63 261 q 83 367 63 317 q 141 453 104 417 q 226 510 178 489 q 332 532 275 532 q 485 484 418 532 q 583 361 553 436 q 585 441 583 401 q 589 521 586 481 l 603 521 l 603 -11 q 591 -99 603 -56 q 549 -175 579 -142 q 466 -229 518 -208 q 333 -250 414 -250 q 283 -247 308 -250 q 228 -231 257 -243 q 167 -199 199 -219 q 100 -143 135 -178 l 113 -129 q 178 -183 147 -162 q 235 -213 208 -203 q 287 -227 263 -224 q 332 -231 311 -231 q 453 -212 406 -231 q 529 -162 501 -194 q 569 -87 557 -131 q 582 8 581 -43 q 582 19 582 15 q 582 28 582 22 q 583 45 582 35 q 583 75 583 56 q 583 90 583 76 q 584 118 583 103 q 585 147 585 133 q 585 163 585 160 q 544 94 569 125 q 487 40 519 63 q 415 4 454 17 q 332 -8 375 -8 q 226 13 275 -8 q 141 70 178 33 q 83 156 104 107 q 63 261 63 204 m 82 261 q 101 163 82 208 q 155 84 121 118 q 234 31 189 50 q 332 11 279 11 q 429 31 383 11 q 510 84 475 50 q 564 163 544 118 q 583 261 583 208 q 564 358 583 313 q 510 439 544 404 q 429 493 475 474 q 332 513 383 513 q 234 493 279 513 q 155 439 189 474 q 101 358 121 404 q 82 261 82 313 m 360 917 q 443 791 401 854 q 526 665 485 728 l 504 665 q 432 772 468 718 q 360 879 396 826 q 288 772 324 826 q 215 665 251 718 l 193 665 q 276 791 235 728 q 360 917 318 854 z "},"ŭ":{"ha":611,"x_min":78,"x_max":528,"o":"m 506 0 l 492 0 l 490 136 q 401 30 463 69 q 261 -10 339 -10 q 145 33 188 -10 q 100 146 103 76 l 100 521 l 119 521 l 119 136 q 156 49 122 86 q 251 10 190 13 q 341 25 299 10 q 415 67 383 40 q 467 133 447 94 q 486 215 486 171 l 486 521 l 506 521 l 506 0 m 304 694 q 217 711 258 694 q 146 757 176 728 q 97 826 115 786 q 78 913 79 867 l 99 913 q 116 837 100 872 q 159 774 132 801 q 223 730 186 746 q 304 714 260 714 q 385 730 349 714 q 449 774 422 746 q 490 837 475 801 q 506 913 504 872 l 528 913 q 510 826 528 867 q 461 757 492 786 q 390 711 431 728 q 304 694 350 694 z "},"ŝ":{"ha":439,"x_min":39,"x_max":376,"o":"m 356 467 l 342 453 q 281 494 318 481 q 217 507 244 507 q 178 501 199 507 q 139 482 157 494 q 109 449 121 469 q 97 399 97 428 q 118 338 97 360 q 169 301 139 315 q 237 275 200 286 q 304 248 274 264 q 356 207 335 232 q 376 139 376 182 q 366 83 376 110 q 335 35 356 56 q 285 1 315 14 q 217 -11 256 -11 q 133 3 179 -11 q 58 54 88 18 q 66 60 63 57 q 74 67 69 64 q 100 43 82 54 q 139 24 118 32 q 181 13 160 17 q 218 8 201 8 q 259 15 235 8 q 305 35 283 21 q 342 74 326 50 q 357 133 357 97 q 336 199 357 175 q 285 237 315 222 q 217 263 254 251 q 150 289 181 274 q 99 329 119 304 q 78 397 78 354 q 90 455 78 431 q 122 495 101 479 q 167 519 142 511 q 217 526 192 526 q 287 513 247 526 q 356 467 326 500 m 206 917 q 289 791 247 854 q 372 665 331 728 l 350 665 q 278 772 314 718 q 206 879 242 826 q 133 772 169 826 q 61 665 97 718 l 39 665 q 122 791 81 728 q 206 917 164 854 z "},"œ":{"ha":913,"x_min":63,"x_max":872,"o":"m 494 44 q 419 6 460 19 q 332 -8 378 -8 q 226 13 275 -8 q 141 70 178 33 q 83 156 104 107 q 63 261 63 204 q 83 367 63 317 q 141 453 104 417 q 226 512 178 490 q 332 533 275 533 q 417 519 376 533 q 492 482 458 506 l 475 468 q 408 501 444 489 q 332 513 372 513 q 234 493 279 513 q 155 439 189 474 q 101 358 121 404 q 82 261 82 313 q 101 163 82 208 q 155 84 121 118 q 234 31 189 50 q 332 11 279 11 q 408 23 372 11 q 475 56 444 35 l 494 44 m 824 64 q 740 11 788 31 q 638 -8 692 -8 q 532 13 581 -8 q 447 70 483 33 q 389 156 410 107 q 368 261 368 204 q 389 367 368 317 q 447 453 410 417 q 532 512 483 490 q 638 533 581 533 q 783 484 724 533 q 872 360 842 435 q 760 315 819 339 q 639 265 700 290 q 517 216 578 240 q 404 169 457 192 q 494 55 432 99 q 638 11 557 11 q 731 28 688 11 q 808 78 775 46 l 824 64 m 846 369 q 765 472 817 432 q 638 513 713 513 q 540 493 585 513 q 460 439 494 474 q 407 358 426 404 q 388 261 388 313 q 397 188 388 221 q 506 232 449 208 q 621 278 563 256 q 737 325 679 301 q 846 369 794 349 z "},"Œ":{"ha":1314,"x_min":85,"x_max":1231,"o":"m 704 4 q 581 -11 643 -11 q 388 28 478 -11 q 230 134 297 67 q 124 292 163 201 q 85 485 85 382 q 124 678 85 588 q 230 837 163 769 q 388 944 297 904 q 581 983 478 983 q 707 967 646 983 l 685 953 q 581 964 632 964 q 395 926 482 964 q 244 822 308 888 q 142 669 179 757 q 104 483 104 582 q 142 299 104 385 q 243 148 179 213 q 393 46 307 83 q 576 8 479 8 q 683 21 631 8 l 704 4 m 676 0 l 676 972 l 1211 972 l 1211 953 l 696 953 l 696 500 l 1157 500 l 1157 481 l 696 481 l 696 19 l 1231 19 l 1231 0 l 676 0 z "},"Ÿ":{"ha":825,"x_min":38,"x_max":786,"o":"m 422 364 l 422 0 l 403 0 l 403 364 q 220 668 311 517 q 38 972 129 819 l 61 972 q 229 694 144 832 q 396 414 314 556 l 414 378 q 422 396 418 388 q 429 414 425 404 l 763 972 l 786 972 l 422 364 m 499 1097 q 507 1117 499 1108 q 526 1125 515 1125 q 546 1117 538 1125 q 554 1097 554 1108 q 546 1078 554 1086 q 526 1069 538 1069 q 507 1078 515 1069 q 499 1097 499 1086 m 269 1097 q 278 1117 269 1108 q 297 1125 286 1125 q 317 1117 308 1125 q 325 1097 325 1108 q 317 1078 325 1086 q 297 1069 308 1069 q 278 1078 286 1069 q 269 1097 269 1086 z "},"Ẽ":{"ha":844,"x_min":165,"x_max":761,"o":"m 165 0 l 165 972 l 742 972 l 742 953 l 185 953 l 185 500 l 688 500 l 688 481 l 185 481 l 185 19 l 761 19 l 761 0 l 165 0 m 475 1097 q 436 1131 453 1122 q 400 1139 419 1139 q 374 1135 389 1139 q 346 1124 360 1132 q 322 1101 332 1115 q 308 1063 311 1086 q 299 1064 304 1064 q 290 1065 294 1064 q 303 1108 292 1090 q 330 1138 314 1126 q 365 1153 346 1149 q 404 1158 385 1158 q 455 1144 432 1158 q 500 1106 478 1129 q 539 1072 522 1081 q 575 1064 556 1064 q 601 1067 586 1064 q 629 1079 615 1071 q 653 1102 643 1088 q 667 1140 664 1117 q 676 1139 671 1139 q 685 1138 681 1139 q 672 1094 683 1113 q 645 1065 661 1076 q 610 1049 629 1054 q 571 1044 590 1044 q 520 1059 543 1044 q 475 1097 497 1074 z "},"Ŗ":{"ha":788,"x_min":165,"x_max":740,"o":"m 460 468 l 740 0 l 715 0 l 438 468 l 460 468 m 185 465 l 344 465 q 478 492 425 465 q 562 558 531 518 q 606 642 593 597 q 618 722 618 686 q 597 816 618 774 q 540 889 576 858 q 453 936 503 919 q 346 953 404 953 l 185 953 l 185 465 m 165 0 l 165 972 l 360 972 q 449 959 400 972 q 539 916 497 946 q 609 838 581 886 q 638 717 638 789 q 620 615 638 664 q 567 529 603 567 q 474 469 531 492 q 340 446 418 446 l 185 446 l 185 0 l 165 0 m 399 -29 q 339 -172 368 -101 q 279 -315 310 -243 l 260 -315 q 313 -172 288 -243 q 367 -29 339 -101 l 399 -29 z "},"Ĩ":{"ha":350,"x_min":-22,"x_max":372,"o":"m 165 972 l 185 972 l 185 0 l 165 0 l 165 972 m 163 1090 q 124 1124 140 1115 q 88 1132 107 1132 q 62 1128 76 1132 q 33 1117 47 1125 q 9 1094 19 1108 q -4 1056 -1 1079 q -13 1057 -8 1057 q -22 1058 -18 1057 q -10 1101 -21 1083 q 17 1131 1 1119 q 53 1147 33 1142 q 92 1151 72 1151 q 142 1137 119 1151 q 188 1099 165 1122 q 226 1065 210 1074 q 263 1057 243 1057 q 288 1060 274 1057 q 317 1072 303 1064 q 341 1095 331 1081 q 354 1133 351 1110 q 363 1132 358 1132 q 372 1131 368 1132 q 360 1088 371 1106 q 333 1058 349 1069 q 297 1042 317 1047 q 258 1038 278 1038 q 208 1052 231 1038 q 163 1090 185 1067 z "},"Ļ":{"ha":768,"x_min":165,"x_max":747,"o":"m 165 0 l 165 972 l 185 972 l 185 19 l 747 19 l 747 0 l 165 0 m 510 -29 q 450 -172 479 -101 q 390 -315 421 -243 l 371 -315 q 424 -172 399 -243 q 478 -29 450 -101 l 510 -29 z "},"Ē":{"ha":844,"x_min":165,"x_max":761,"o":"m 165 0 l 165 972 l 742 972 l 742 953 l 185 953 l 185 500 l 688 500 l 688 481 l 185 481 l 185 19 l 761 19 l 761 0 l 165 0 m 290 1042 l 290 1061 l 610 1061 l 610 1042 l 290 1042 z "},"Ģ":{"ha":942,"x_min":85,"x_max":835,"o":"m 833 417 l 833 58 q 715 8 778 26 q 581 -11 651 -11 q 376 28 468 -11 q 220 134 285 67 q 120 292 156 201 q 85 485 85 382 q 124 678 85 588 q 230 837 163 769 q 388 944 297 904 q 581 983 478 983 q 715 965 651 983 q 835 914 778 947 l 824 897 q 709 947 771 929 q 581 964 647 964 q 395 926 482 964 q 244 822 308 888 q 142 669 179 757 q 104 483 104 582 q 138 299 104 385 q 233 148 171 213 q 381 46 294 83 q 576 8 468 8 q 701 24 642 8 q 814 71 761 40 l 814 397 l 575 397 l 575 417 l 833 417 m 568 -29 q 508 -172 538 -101 q 449 -315 479 -243 l 429 -315 q 483 -172 457 -243 q 536 -29 508 -101 l 568 -29 z "},"Ŧ":{"ha":697,"x_min":61,"x_max":636,"o":"m 636 972 l 636 953 l 358 953 l 358 0 l 339 0 l 339 953 l 61 953 l 61 972 l 636 972 m 189 683 l 189 703 l 508 703 l 508 683 l 189 683 z "},"ŗ":{"ha":363,"x_min":75,"x_max":351,"o":"m 351 511 q 265 494 306 510 q 192 451 224 478 q 143 386 161 424 q 125 306 125 349 l 125 0 l 106 0 l 106 521 l 119 521 l 121 385 q 211 490 150 451 q 351 531 272 528 l 351 511 m 214 -29 q 154 -172 183 -101 q 94 -315 125 -243 l 75 -315 q 128 -172 103 -243 q 182 -29 154 -101 l 214 -29 z "},"ē":{"ha":607,"x_min":63,"x_max":567,"o":"m 518 64 q 434 11 482 31 q 332 -8 386 -8 q 226 13 275 -8 q 141 70 178 33 q 83 156 104 107 q 63 261 63 204 q 83 367 63 317 q 141 453 104 417 q 226 512 178 490 q 332 533 275 533 q 477 484 418 533 q 567 360 536 435 q 454 315 514 339 q 333 265 394 290 q 212 216 272 240 q 99 169 151 192 q 189 55 126 99 q 332 11 251 11 q 426 28 382 11 q 503 78 469 46 l 518 64 m 540 369 q 459 472 511 432 q 332 513 407 513 q 234 493 279 513 q 155 439 189 474 q 101 358 121 404 q 82 261 82 313 q 92 188 82 221 q 200 232 143 208 q 315 278 257 256 q 431 325 374 301 q 540 369 489 349 m 164 683 l 164 703 l 483 703 l 483 683 l 164 683 z "},"ģ":{"ha":708,"x_min":63,"x_max":603,"o":"m 63 261 q 83 367 63 317 q 141 453 104 417 q 226 510 178 489 q 332 532 275 532 q 485 484 418 532 q 583 361 553 436 q 585 441 583 401 q 589 521 586 481 l 603 521 l 603 -11 q 591 -99 603 -56 q 549 -175 579 -142 q 466 -229 518 -208 q 333 -250 414 -250 q 283 -247 308 -250 q 228 -231 257 -243 q 167 -199 199 -219 q 100 -143 135 -178 l 113 -129 q 178 -183 147 -162 q 235 -213 208 -203 q 287 -227 263 -224 q 332 -231 311 -231 q 453 -212 406 -231 q 529 -162 501 -194 q 569 -87 557 -131 q 582 8 581 -43 q 582 19 582 15 q 582 28 582 22 q 583 45 582 35 q 583 75 583 56 q 583 90 583 76 q 584 118 583 103 q 585 147 585 133 q 585 163 585 160 q 544 94 569 125 q 487 40 519 63 q 415 4 454 17 q 332 -8 375 -8 q 226 13 275 -8 q 141 70 178 33 q 83 156 104 107 q 63 261 63 204 m 82 261 q 101 163 82 208 q 155 84 121 118 q 234 31 189 50 q 332 11 279 11 q 429 31 383 11 q 510 84 475 50 q 564 163 544 118 q 583 261 583 208 q 564 358 583 313 q 510 439 544 404 q 429 493 475 474 q 332 513 383 513 q 234 493 279 513 q 155 439 189 474 q 101 358 121 404 q 82 261 82 313 m 339 704 q 399 847 369 776 q 458 990 428 918 l 478 990 q 424 847 450 918 q 371 704 399 776 l 339 704 z "},"ŧ":{"ha":364,"x_min":25,"x_max":349,"o":"m 149 749 l 168 749 l 168 510 l 344 510 l 344 490 l 168 490 l 168 0 l 149 0 l 149 490 l 25 490 l 25 510 l 149 510 l 149 749 m 29 683 l 29 703 l 349 703 l 349 683 l 29 683 z "},"Ā":{"ha":889,"x_min":42,"x_max":847,"o":"m 231 442 l 660 442 l 660 461 l 231 461 l 231 442 m 847 0 q 646 508 740 254 q 444 1017 551 763 q 243 508 338 763 q 42 0 149 254 l 63 0 q 247 469 161 235 q 432 938 333 703 q 438 955 435 946 q 444 972 442 964 q 451 955 447 964 q 457 938 454 946 q 642 469 556 703 q 826 0 728 235 l 847 0 m 285 1044 l 285 1064 l 604 1064 l 604 1044 l 285 1044 z "},"Į":{"ha":350,"x_min":53,"x_max":282,"o":"m 165 972 l 185 972 l 185 0 l 165 0 l 165 972 m 188 0 l 168 0 l 168 -8 q 149 -59 168 -44 q 111 -85 129 -74 q 66 -131 79 -106 q 53 -176 53 -157 q 88 -278 53 -247 q 169 -310 124 -310 q 237 -290 206 -310 q 282 -229 268 -269 q 272 -226 276 -228 q 261 -224 267 -225 q 228 -272 253 -253 q 169 -290 204 -290 q 99 -262 126 -290 q 72 -190 72 -233 q 90 -131 72 -151 q 130 -95 108 -110 q 169 -65 151 -81 q 188 -22 188 -50 l 188 0 z "},"ĩ":{"ha":231,"x_min":-82,"x_max":313,"o":"m 125 0 l 106 0 l 106 521 l 125 521 l 125 0 m 103 674 q 64 707 81 699 q 28 715 47 715 q 2 712 17 715 q -26 700 -12 708 q -51 677 -40 692 q -64 639 -61 663 q -73 640 -68 640 q -82 642 -78 640 q -69 685 -81 667 q -42 714 -58 703 q -7 730 -26 725 q 32 735 13 735 q 83 720 60 735 q 128 682 106 706 q 167 649 150 657 q 203 640 183 640 q 228 644 214 640 q 257 656 243 647 q 281 678 271 664 q 294 717 292 693 q 303 715 299 715 q 313 714 308 715 q 300 671 311 689 q 273 642 289 653 q 238 626 257 631 q 199 621 218 621 q 148 635 171 621 q 103 674 125 650 z "},"ļ":{"ha":242,"x_min":25,"x_max":164,"o":"m 131 0 l 111 0 l 111 1042 l 131 1042 l 131 0 m 164 -29 q 104 -172 133 -101 q 44 -315 75 -243 l 25 -315 q 78 -172 53 -243 q 132 -29 104 -101 l 164 -29 z "},"Ė":{"ha":844,"x_min":165,"x_max":761,"o":"m 165 0 l 165 972 l 742 972 l 742 953 l 185 953 l 185 500 l 688 500 l 688 481 l 185 481 l 185 19 l 761 19 l 761 0 l 165 0 m 453 1069 q 461 1089 453 1081 q 481 1097 469 1097 q 500 1089 492 1097 q 508 1069 508 1081 q 500 1050 508 1058 q 481 1042 492 1042 q 461 1050 469 1042 q 453 1069 453 1058 z "},"Ī":{"ha":350,"x_min":17,"x_max":336,"o":"m 165 972 l 185 972 l 185 0 l 165 0 l 165 972 m 17 1044 l 17 1064 l 336 1064 l 336 1044 l 17 1044 z "},"Ņ":{"ha":1122,"x_min":165,"x_max":958,"o":"m 958 972 l 958 -44 q 574 447 760 204 q 207 931 389 689 q 194 949 200 940 q 181 967 188 957 q 183 944 182 956 q 185 922 183 933 l 185 0 l 165 0 l 165 1017 q 360 767 265 890 q 546 523 454 644 q 729 281 638 401 q 917 39 821 161 q 930 21 924 29 q 943 3 936 13 q 941 25 942 14 q 939 47 940 36 l 939 972 l 958 972 m 550 -29 q 490 -172 519 -101 q 431 -315 461 -243 l 411 -315 q 465 -172 439 -243 q 518 -29 490 -101 l 550 -29 z "},"Ķ":{"ha":818,"x_min":165,"x_max":808,"o":"m 781 0 q 554 288 667 144 q 328 575 442 431 q 256 507 292 540 q 183 439 219 474 q 184 219 183 329 q 185 0 185 110 l 165 0 l 165 972 l 185 972 l 185 500 q 184 480 185 489 q 183 460 183 471 q 195 474 190 467 q 207 488 200 481 q 461 730 335 610 q 715 972 588 850 l 746 972 q 544 781 644 876 q 343 589 444 685 q 576 294 461 442 q 808 0 690 147 l 781 0 m 486 -29 q 426 -172 456 -101 q 367 -315 397 -243 l 347 -315 q 401 -172 375 -243 q 454 -29 426 -101 l 486 -29 z "},"ņ":{"ha":611,"x_min":106,"x_max":511,"o":"m 106 521 l 119 521 l 121 385 q 210 490 149 450 q 350 531 271 531 q 466 488 424 531 q 511 375 508 444 l 511 0 l 492 0 l 492 385 q 455 472 489 435 q 360 511 421 508 q 270 496 313 511 q 195 453 228 481 q 144 388 163 426 q 125 306 125 350 l 125 0 l 106 0 l 106 521 m 339 -29 q 279 -172 308 -101 q 219 -315 250 -243 l 200 -315 q 253 -172 228 -243 q 307 -29 279 -101 l 339 -29 z "},"ķ":{"ha":508,"x_min":106,"x_max":483,"o":"m 435 533 q 441 526 438 531 q 447 519 444 522 q 346 423 394 469 q 244 326 297 376 q 364 163 304 244 q 483 0 424 82 l 458 0 q 343 156 400 79 q 228 313 286 233 q 176 264 201 289 q 125 215 151 239 l 125 0 l 106 0 l 106 1042 l 125 1042 l 125 244 q 280 389 204 319 q 435 533 356 458 m 339 -29 q 279 -172 308 -101 q 219 -315 250 -243 l 200 -315 q 253 -172 228 -243 q 307 -29 279 -101 l 339 -29 z "},"Ō":{"ha":1164,"x_min":85,"x_max":1079,"o":"m 85 485 q 124 678 85 588 q 230 837 163 769 q 388 944 297 904 q 581 983 478 983 q 774 944 683 983 q 933 837 865 904 q 1040 678 1000 769 q 1079 485 1079 588 q 1040 292 1079 382 q 933 134 1000 201 q 774 28 865 67 q 581 -11 683 -11 q 388 28 478 -11 q 230 134 297 67 q 124 292 163 201 q 85 485 85 382 m 104 483 q 142 299 104 385 q 243 148 179 213 q 393 46 307 83 q 576 8 479 8 q 763 46 675 8 q 917 148 851 83 q 1022 299 983 213 q 1060 485 1060 386 q 1022 670 1060 583 q 918 822 983 757 q 766 926 853 888 q 581 964 679 964 q 395 926 482 964 q 244 822 308 888 q 142 669 179 757 q 104 483 104 582 m 425 1044 l 425 1064 l 744 1064 l 744 1044 l 425 1044 z "},"Ū":{"ha":929,"x_min":153,"x_max":778,"o":"m 465 -11 q 341 10 399 -11 q 242 72 283 31 q 176 174 200 113 q 153 314 153 235 l 153 972 l 172 972 l 172 318 q 194 185 172 243 q 254 88 215 128 q 347 28 293 49 q 465 8 401 8 q 582 28 528 8 q 675 88 636 49 q 736 185 714 128 q 758 318 758 243 l 758 972 l 778 972 l 778 314 q 753 174 778 235 q 688 72 729 113 q 589 10 646 31 q 465 -11 532 -11 m 326 1044 l 326 1064 l 646 1064 l 646 1044 l 326 1044 z "},"ō":{"ha":667,"x_min":63,"x_max":604,"o":"m 63 261 q 83 367 63 317 q 141 453 104 417 q 226 512 178 490 q 332 533 275 533 q 438 512 388 533 q 524 453 488 490 q 583 367 561 417 q 604 261 604 317 q 583 156 604 204 q 524 70 561 107 q 438 13 488 33 q 332 -8 388 -8 q 226 13 275 -8 q 141 70 178 33 q 83 156 104 107 q 63 261 63 204 m 82 261 q 101 163 82 208 q 155 84 121 118 q 234 31 189 50 q 332 11 279 11 q 429 31 383 11 q 510 84 475 50 q 564 163 544 118 q 583 261 583 208 q 564 358 583 313 q 510 439 544 404 q 429 493 475 474 q 332 513 383 513 q 234 493 279 513 q 155 439 189 474 q 101 358 121 404 q 82 261 82 313 m 174 683 l 174 703 l 493 703 l 493 683 l 174 683 z "},"ū":{"ha":611,"x_min":100,"x_max":506,"o":"m 506 0 l 492 0 l 490 136 q 401 30 463 69 q 261 -10 339 -10 q 145 33 188 -10 q 100 146 103 76 l 100 521 l 119 521 l 119 136 q 156 49 122 86 q 251 10 190 13 q 341 25 299 10 q 415 67 383 40 q 467 133 447 94 q 486 215 486 171 l 486 521 l 506 521 l 506 0 m 143 683 l 143 703 l 463 703 l 463 683 l 143 683 z "},"ā":{"ha":708,"x_min":63,"x_max":603,"o":"m 82 261 q 101 163 82 208 q 155 84 121 118 q 234 31 189 50 q 332 11 279 11 q 429 31 383 11 q 510 84 475 50 q 564 163 544 118 q 583 261 583 208 q 564 358 583 313 q 510 439 544 404 q 429 493 475 474 q 332 513 383 513 q 234 493 279 513 q 155 439 189 474 q 101 358 121 404 q 82 261 82 313 m 63 261 q 83 367 63 317 q 141 453 104 417 q 226 510 178 489 q 332 532 275 532 q 485 484 418 532 q 583 361 553 436 q 585 441 583 401 q 589 521 586 481 l 603 521 l 603 0 l 583 0 l 583 75 q 584 119 583 97 q 585 163 585 140 q 544 94 569 125 q 487 40 519 63 q 415 4 454 17 q 332 -8 375 -8 q 226 13 275 -8 q 141 70 178 33 q 83 156 104 107 q 63 261 63 204 m 207 683 l 207 703 l 526 703 l 526 683 l 207 683 z "},"Ų":{"ha":929,"x_min":153,"x_max":778,"o":"m 465 -11 q 341 10 399 -11 q 242 72 283 31 q 176 174 200 113 q 153 314 153 235 l 153 972 l 172 972 l 172 318 q 194 185 172 243 q 254 88 215 128 q 347 28 293 49 q 465 8 401 8 q 582 28 528 8 q 675 88 636 49 q 736 185 714 128 q 758 318 758 243 l 758 972 l 778 972 l 778 314 q 753 174 778 235 q 688 72 729 113 q 589 10 646 31 q 465 -11 532 -11 m 517 0 l 497 0 l 497 -8 q 478 -59 497 -44 q 440 -85 458 -74 q 395 -131 408 -106 q 382 -176 382 -157 q 417 -278 382 -247 q 499 -310 453 -310 q 566 -290 535 -310 q 611 -229 597 -269 q 601 -226 606 -228 q 590 -224 596 -225 q 558 -272 582 -253 q 499 -290 533 -290 q 428 -262 456 -290 q 401 -190 401 -233 q 419 -131 401 -151 q 459 -95 438 -110 q 499 -65 481 -81 q 517 -22 517 -50 l 517 0 z "},"ī":{"ha":231,"x_min":-44,"x_max":275,"o":"m 125 0 l 106 0 l 106 521 l 125 521 l 125 0 m -44 683 l -44 703 l 275 703 l 275 683 l -44 683 z "},"ų":{"ha":611,"x_min":100,"x_max":600,"o":"m 506 0 l 492 0 l 490 136 q 401 30 463 69 q 261 -10 339 -10 q 145 33 188 -10 q 100 146 103 76 l 100 521 l 119 521 l 119 136 q 156 49 122 86 q 251 10 190 13 q 341 25 299 10 q 415 67 383 40 q 467 133 447 94 q 486 215 486 171 l 486 521 l 506 521 l 506 0 m 506 0 l 486 0 l 486 -8 q 467 -59 486 -44 q 429 -85 447 -74 q 384 -131 397 -106 q 371 -176 371 -157 q 406 -278 371 -247 q 488 -310 442 -310 q 555 -290 524 -310 q 600 -229 586 -269 q 590 -226 594 -228 q 579 -224 585 -225 q 547 -272 571 -253 q 488 -290 522 -290 q 417 -262 444 -290 q 390 -190 390 -233 q 408 -131 390 -151 q 448 -95 426 -110 q 488 -65 469 -81 q 506 -22 506 -50 l 506 0 z "},"Ũ":{"ha":929,"x_min":153,"x_max":778,"o":"m 465 -11 q 341 10 399 -11 q 242 72 283 31 q 176 174 200 113 q 153 314 153 235 l 153 972 l 172 972 l 172 318 q 194 185 172 243 q 254 88 215 128 q 347 28 293 49 q 465 8 401 8 q 582 28 528 8 q 675 88 636 49 q 736 185 714 128 q 758 318 758 243 l 758 972 l 778 972 l 778 314 q 753 174 778 235 q 688 72 729 113 q 589 10 646 31 q 465 -11 532 -11 m 475 1090 q 436 1124 453 1115 q 400 1132 419 1132 q 374 1128 389 1132 q 346 1117 360 1125 q 322 1094 332 1108 q 308 1056 311 1079 q 299 1057 304 1057 q 290 1058 294 1057 q 303 1101 292 1083 q 330 1131 314 1119 q 365 1147 346 1142 q 404 1151 385 1151 q 455 1137 432 1151 q 500 1099 478 1122 q 539 1065 522 1074 q 575 1057 556 1057 q 601 1060 586 1057 q 629 1072 615 1064 q 653 1095 643 1081 q 667 1133 664 1110 q 676 1132 671 1132 q 685 1131 681 1132 q 672 1088 683 1106 q 645 1058 661 1069 q 610 1042 629 1047 q 571 1038 590 1038 q 520 1052 543 1038 q 475 1090 497 1067 z "},"ũ":{"ha":611,"x_min":100,"x_max":510,"o":"m 506 0 l 492 0 l 490 136 q 401 30 463 69 q 261 -10 339 -10 q 145 33 188 -10 q 100 146 103 76 l 100 521 l 119 521 l 119 136 q 156 49 122 86 q 251 10 190 13 q 341 25 299 10 q 415 67 383 40 q 467 133 447 94 q 486 215 486 171 l 486 521 l 506 521 l 506 0 m 300 674 q 261 707 278 699 q 225 715 244 715 q 199 712 214 715 q 171 700 185 708 q 147 677 157 692 q 133 639 136 663 q 124 640 129 640 q 115 642 119 640 q 128 685 117 667 q 155 714 139 703 q 190 730 171 725 q 229 735 210 735 q 280 720 257 735 q 325 682 303 706 q 364 649 347 657 q 400 640 381 640 q 426 644 411 640 q 454 656 440 647 q 478 678 468 664 q 492 717 489 693 q 501 715 496 715 q 510 714 506 715 q 497 671 508 689 q 470 642 486 653 q 435 626 454 631 q 396 621 415 621 q 345 635 368 621 q 300 674 322 650 z "},"ė":{"ha":607,"x_min":63,"x_max":567,"o":"m 518 64 q 434 11 482 31 q 332 -8 386 -8 q 226 13 275 -8 q 141 70 178 33 q 83 156 104 107 q 63 261 63 204 q 83 367 63 317 q 141 453 104 417 q 226 512 178 490 q 332 533 275 533 q 477 484 418 533 q 567 360 536 435 q 454 315 514 339 q 333 265 394 290 q 212 216 272 240 q 99 169 151 192 q 189 55 126 99 q 332 11 251 11 q 426 28 382 11 q 503 78 469 46 l 518 64 m 540 369 q 459 472 511 432 q 332 513 407 513 q 234 493 279 513 q 155 439 189 474 q 101 358 121 404 q 82 261 82 313 q 92 188 82 221 q 200 232 143 208 q 315 278 257 256 q 431 325 374 301 q 540 369 489 349 m 296 694 q 304 714 296 706 q 324 722 313 722 q 343 714 335 722 q 351 694 351 706 q 343 675 351 683 q 324 667 335 667 q 304 675 313 667 q 296 694 296 683 z "},"į":{"ha":231,"x_min":-10,"x_max":219,"o":"m 88 694 q 96 714 88 706 q 115 722 104 722 q 135 714 126 722 q 143 694 143 706 q 135 675 143 683 q 115 667 126 667 q 96 675 104 667 q 88 694 88 683 m 125 0 l 106 0 l 106 521 l 125 521 l 125 0 m 125 0 l 106 0 l 106 -8 q 86 -59 106 -44 q 49 -85 67 -74 q 3 -131 17 -106 q -10 -176 -10 -157 q 26 -278 -10 -247 q 107 -310 61 -310 q 174 -290 143 -310 q 219 -229 206 -269 q 209 -226 214 -228 q 199 -224 204 -225 q 166 -272 190 -253 q 107 -290 142 -290 q 37 -262 64 -290 q 10 -190 10 -233 q 28 -131 10 -151 q 67 -95 46 -110 q 107 -65 89 -81 q 125 -22 125 -50 l 125 0 z "},"…":{"ha":708,"x_min":100,"x_max":608,"o":"m 100 28 q 108 47 100 39 q 128 56 117 56 q 147 47 139 56 q 156 28 156 39 q 147 8 156 17 q 128 0 139 0 q 108 8 117 0 q 100 28 100 17 m 326 28 q 335 47 326 39 q 354 56 343 56 q 374 47 365 56 q 382 28 382 39 q 374 8 382 17 q 354 0 365 0 q 335 8 343 0 q 326 28 326 17 m 553 28 q 561 47 553 39 q 581 56 569 56 q 600 47 592 56 q 608 28 608 39 q 600 8 608 17 q 581 0 592 0 q 561 8 569 0 q 553 28 553 17 z "},"‰":{"ha":1265,"x_min":76,"x_max":1207,"o":"m 518 156 q 528 104 518 128 q 557 63 539 81 q 599 35 575 46 q 651 25 624 25 q 703 35 679 25 q 746 63 728 46 q 774 104 764 81 q 785 156 785 128 q 774 206 785 182 q 746 249 764 231 q 703 277 728 267 q 651 288 679 288 q 599 277 624 288 q 557 249 575 267 q 528 206 539 231 q 518 156 518 182 m 651 6 q 592 17 619 6 q 543 49 564 29 q 510 97 522 69 q 499 157 499 125 q 510 215 499 188 q 543 263 522 243 q 592 295 564 283 q 651 307 619 307 q 710 295 682 307 q 758 263 738 283 q 792 215 779 243 q 804 157 804 188 q 792 97 804 125 q 758 49 779 69 q 710 17 738 29 q 651 6 682 6 m 96 539 q 106 488 96 511 q 135 447 117 464 q 177 419 153 429 q 229 408 201 408 q 281 419 257 408 q 324 447 306 429 q 352 488 342 464 q 363 539 363 511 q 352 590 363 565 q 324 632 342 614 q 281 660 306 650 q 229 671 257 671 q 177 660 201 671 q 135 632 153 650 q 106 590 117 614 q 96 539 96 565 m 229 389 q 169 401 197 389 q 121 433 142 413 q 88 481 100 453 q 76 540 76 508 q 88 599 76 571 q 121 647 100 626 q 169 678 142 667 q 229 690 197 690 q 288 678 260 690 q 336 647 315 667 q 369 599 357 626 q 382 540 382 571 q 369 481 382 508 q 336 433 357 453 q 288 401 315 413 q 229 389 260 389 m 215 0 q 422 347 319 175 q 629 694 525 519 l 651 694 q 444 347 547 519 q 238 0 342 175 l 215 0 m 921 156 q 931 104 921 128 q 960 63 942 81 q 1002 35 978 46 q 1054 25 1026 25 q 1106 35 1082 25 q 1149 63 1131 46 q 1177 104 1167 81 q 1188 156 1188 128 q 1177 206 1188 182 q 1149 249 1167 231 q 1106 277 1131 267 q 1054 288 1082 288 q 1002 277 1026 288 q 960 249 978 267 q 931 206 942 231 q 921 156 921 182 m 1054 6 q 994 17 1022 6 q 946 49 967 29 q 913 97 925 69 q 901 157 901 125 q 913 215 901 188 q 946 263 925 243 q 994 295 967 283 q 1054 307 1022 307 q 1113 295 1085 307 q 1161 263 1140 283 q 1194 215 1182 243 q 1207 157 1207 188 q 1194 97 1207 125 q 1161 49 1182 69 q 1113 17 1140 29 q 1054 6 1085 6 z "},"ˆ":{"ha":625,"x_min":156,"x_max":489,"o":"m 322 917 q 406 791 364 854 q 489 665 447 728 l 467 665 q 394 772 431 718 q 322 879 358 826 q 250 772 286 826 q 178 665 214 718 l 156 665 q 239 791 197 728 q 322 917 281 854 z "},"˜":{"ha":824,"x_min":238,"x_max":632,"o":"m 422 674 q 383 707 400 699 q 347 715 367 715 q 322 712 336 715 q 293 700 307 708 q 269 677 279 692 q 256 639 258 663 q 247 640 251 640 q 238 642 242 640 q 250 685 239 667 q 277 714 261 703 q 313 730 293 725 q 351 735 332 735 q 402 720 379 735 q 447 682 425 706 q 486 649 469 657 q 522 640 503 640 q 548 644 533 640 q 576 656 563 647 q 601 678 590 664 q 614 717 611 693 q 623 715 618 715 q 632 714 628 715 q 619 671 631 689 q 592 642 608 653 q 557 626 576 631 q 518 621 538 621 q 467 635 490 621 q 422 674 444 650 z "},"ﬁ":{"ha":624,"x_min":40,"x_max":518,"o":"m 518 0 l 499 0 l 499 521 l 518 521 l 518 0 m 40 501 l 40 521 l 131 521 l 131 719 q 151 856 131 796 q 206 956 171 915 q 288 1017 242 996 q 388 1042 335 1039 l 388 1022 q 297 1001 340 1022 q 222 942 254 981 q 169 848 189 903 q 150 725 150 793 l 150 521 l 511 521 l 511 501 l 150 501 l 150 0 l 131 0 l 131 501 l 40 501 z "},"ﬂ":{"ha":629,"x_min":40,"x_max":518,"o":"m 518 0 l 499 0 l 499 1042 l 518 1042 l 518 0 m 40 497 l 40 517 l 131 517 l 131 719 q 151 856 131 796 q 206 956 171 915 q 288 1017 242 996 q 388 1042 335 1039 l 388 1022 q 297 1001 340 1022 q 222 942 254 981 q 169 848 189 903 q 150 725 150 793 l 150 517 l 331 517 l 331 497 l 150 497 l 150 0 l 131 0 l 131 497 l 40 497 m 388 1042 l 508 1042 l 508 1022 l 388 1022 l 388 1042 z "},"˚":{"ha":588,"x_min":233,"x_max":408,"o":"m 253 651 q 273 603 253 624 q 321 583 293 583 q 369 603 349 583 q 389 651 389 624 q 369 699 389 679 q 321 719 349 719 q 273 699 293 719 q 253 651 253 679 m 233 651 q 258 714 233 689 q 321 739 283 739 q 383 714 358 739 q 408 651 408 689 q 383 589 408 614 q 321 564 358 564 q 258 589 283 564 q 233 651 233 614 z "},"⁄":{"ha":431,"x_min":13,"x_max":418,"o":"m 13 0 q 206 524 110 264 q 399 1049 301 785 l 418 1049 q 225 524 321 785 q 32 0 129 264 l 13 0 z "},"ƒ":{"ha":399,"x_min":-85,"x_max":410,"o":"m 172 497 l 172 82 q 152 -55 172 4 q 97 -154 132 -114 q 15 -217 61 -194 q -85 -240 -32 -239 l -85 -221 q 6 -200 -37 -221 q 81 -140 49 -179 q 133 -47 114 -101 q 153 76 153 8 l 153 497 l 63 497 l 63 517 l 153 517 l 153 719 q 173 856 153 796 q 228 956 193 915 q 310 1017 264 996 q 410 1042 357 1039 l 410 1022 q 319 1001 363 1022 q 244 942 276 981 q 192 848 211 903 q 172 725 172 793 l 172 517 l 353 517 l 353 497 l 172 497 z "},"†":{"ha":456,"x_min":100,"x_max":356,"o":"m 218 101 l 218 793 l 238 793 l 238 101 l 218 101 m 100 589 l 100 608 l 356 608 l 356 589 l 100 589 z "},"‡":{"ha":575,"x_min":79,"x_max":497,"o":"m 497 408 l 497 389 l 79 389 l 79 408 l 497 408 m 278 101 l 278 793 l 297 793 l 297 101 l 278 101 m 160 589 l 160 608 l 415 608 l 415 589 l 160 589 z "},"™":{"ha":810,"x_min":65,"x_max":679,"o":"m 276 1051 l 276 1043 l 174 1043 l 174 692 l 168 692 l 168 1043 l 65 1043 l 65 1051 l 276 1051 m 346 1067 q 390 1000 369 1031 q 431 940 411 969 q 471 883 451 911 q 513 824 490 854 q 542 867 524 840 q 582 926 560 894 q 629 994 604 958 q 679 1067 654 1031 l 679 692 l 672 692 l 672 1022 l 672 1044 q 590 922 629 982 q 513 808 550 863 q 472 865 496 831 q 425 935 449 900 q 382 999 401 969 q 354 1044 363 1029 l 354 1022 l 354 692 l 346 692 l 346 1067 z "},"−":{"ha":728,"x_min":114,"x_max":614,"o":"m 614 258 l 114 258 l 114 278 l 614 278 l 614 258 z "},"∫":{"ha":406,"x_min":42,"x_max":364,"o":"m 193 872 q 203 969 193 935 q 231 1017 214 1003 q 269 1034 247 1032 q 313 1036 290 1036 l 364 1036 l 364 1017 l 285 1017 q 227 981 242 1017 q 213 861 213 944 l 213 8 q 204 -117 213 -74 q 181 -181 196 -161 q 143 -203 165 -200 q 93 -206 121 -206 l 42 -206 l 42 -186 l 121 -186 q 178 -150 164 -186 q 193 -31 193 -114 l 193 872 z "},"∏":{"ha":582,"x_min":168,"x_max":414,"o":"m 188 -69 l 168 -69 l 168 1042 l 414 1042 l 414 -69 l 394 -69 l 394 1022 l 188 1022 l 188 -69 z "},"π":{"ha":475,"x_min":49,"x_max":418,"o":"m 139 425 l 139 0 l 119 0 l 119 425 l 49 425 l 49 444 l 418 444 l 418 425 l 365 425 l 365 0 l 346 0 l 346 425 l 139 425 z "},"€":{"ha":772,"x_min":68,"x_max":689,"o":"m 68 546 l 522 546 l 522 526 l 68 526 l 68 546 m 69 399 l 522 399 l 522 379 l 69 379 l 69 399 m 689 38 q 522 -10 611 -10 q 378 27 446 -10 q 261 126 311 64 q 183 273 211 189 q 154 454 154 357 q 174 601 154 521 q 239 750 194 681 q 356 867 283 819 q 532 914 428 914 q 625 900 588 914 q 669 881 663 886 l 661 867 q 531 894 599 894 q 391 865 456 894 q 278 777 326 835 q 203 638 231 719 q 175 456 175 557 q 204 272 175 354 q 282 132 233 190 q 394 42 331 74 q 525 10 458 10 q 672 49 601 10 l 689 38 z "},"≤":{"ha":813,"x_min":92,"x_max":700,"o":"m 700 328 l 700 306 q 396 481 547 393 q 92 657 244 569 q 396 833 244 744 q 700 1008 547 921 l 700 986 q 414 822 557 903 q 128 657 271 740 q 414 492 271 574 q 700 328 557 411 m 646 133 l 146 133 l 146 153 l 646 153 l 646 133 z "},"≥":{"ha":808,"x_min":126,"x_max":736,"o":"m 128 328 q 414 492 271 411 q 700 657 557 574 q 414 822 557 740 q 128 986 271 903 l 128 1008 q 432 833 281 921 q 736 657 583 744 q 432 481 583 569 q 128 306 281 393 l 128 328 m 126 153 l 626 153 l 626 133 l 126 133 l 126 153 z "},"≠":{"ha":889,"x_min":88,"x_max":790,"o":"m 104 11 q 401 366 251 188 q 697 722 550 544 l 708 711 q 412 356 561 535 q 115 0 263 176 l 104 11 m 790 228 l 790 208 l 88 208 l 88 228 l 790 228 m 790 497 l 790 478 l 88 478 l 88 497 l 790 497 z "},"≈":{"ha":628,"x_min":118,"x_max":514,"o":"m 303 288 q 264 321 281 313 q 228 329 247 329 q 202 326 217 329 q 174 314 188 322 q 149 291 160 306 q 136 253 139 276 q 127 254 132 254 q 118 256 122 254 q 131 299 119 281 q 158 328 142 317 q 193 344 174 339 q 232 349 213 349 q 283 334 260 349 q 328 296 306 319 q 367 263 350 271 q 403 254 383 254 q 428 258 414 254 q 457 269 443 261 q 481 292 471 278 q 494 331 492 307 q 503 329 499 329 q 513 328 508 329 q 500 285 511 303 q 473 256 489 267 q 438 240 457 244 q 399 235 418 235 q 348 249 371 235 q 303 288 325 264 m 304 496 q 265 529 282 521 q 229 538 249 538 q 203 534 218 538 q 175 522 189 531 q 151 499 161 514 q 138 461 140 485 q 128 463 133 463 q 119 464 124 463 q 132 507 121 489 q 159 536 143 525 q 194 552 175 547 q 233 557 214 557 q 284 542 261 557 q 329 504 307 528 q 368 471 351 479 q 404 463 385 463 q 430 466 415 463 q 458 478 444 469 q 483 501 472 486 q 496 539 493 515 q 505 538 500 538 q 514 536 510 538 q 501 493 513 511 q 474 464 490 475 q 439 448 458 453 q 400 443 419 443 q 349 458 372 443 q 304 496 326 472 z "},"∑":{"ha":621,"x_min":104,"x_max":558,"o":"m 131 -58 l 539 -58 l 558 -78 l 104 -78 l 263 482 l 104 1042 l 558 1042 l 539 1022 l 131 1022 l 282 482 l 131 -58 z "},"Ω":{"ha":958,"x_min":107,"x_max":853,"o":"m 560 19 l 843 19 l 843 0 l 560 0 l 560 19 m 108 19 l 407 19 l 407 0 l 108 0 l 108 19 m 560 19 q 660 69 611 39 q 748 145 710 100 q 810 251 786 190 q 833 393 833 313 q 807 571 833 494 q 733 697 781 647 q 622 772 686 747 q 483 797 558 797 q 344 774 408 797 q 231 701 279 750 q 156 576 183 651 q 128 400 128 501 q 152 256 128 318 q 216 149 176 194 q 306 72 256 103 q 407 19 356 40 l 407 0 q 287 60 342 25 q 192 143 232 94 q 130 254 153 192 q 107 399 107 317 q 126 539 107 465 q 191 674 146 613 q 308 776 236 736 q 485 817 381 817 q 658 776 588 817 q 772 672 729 735 q 834 535 815 610 q 853 394 853 461 q 832 250 853 313 q 772 140 811 188 q 680 58 733 92 q 560 0 626 24 l 560 19 z "},"√":{"ha":767,"x_min":64,"x_max":721,"o":"m 64 521 l 201 521 l 376 151 l 699 832 l 721 832 l 376 86 l 188 501 l 64 501 l 64 521 z "},"∆":{"ha":586,"x_min":82,"x_max":504,"o":"m 293 1014 l 504 397 l 482 397 l 293 949 l 104 397 l 82 397 l 293 1014 m 97 417 l 492 417 l 492 397 l 97 397 l 97 417 z "},"◊":{"ha":578,"x_min":78,"x_max":500,"o":"m 78 550 l 289 1014 l 500 550 l 289 86 l 78 550 m 100 550 l 289 151 l 478 550 l 289 949 l 100 550 z "},"∞":{"ha":661,"x_min":113,"x_max":549,"o":"m 343 417 q 352 390 343 401 q 376 368 361 378 q 409 353 390 358 q 446 349 428 349 q 509 372 489 349 q 529 417 529 396 q 509 461 529 438 q 446 485 489 485 q 409 480 428 485 q 376 465 390 475 q 352 443 361 456 q 343 417 343 431 m 324 417 q 361 481 324 457 q 446 504 399 504 q 524 476 499 504 q 549 417 549 449 q 524 357 549 385 q 446 329 499 329 q 361 353 399 329 q 324 417 324 376 m 324 417 q 315 443 324 431 q 291 465 306 456 q 258 480 276 475 q 221 485 239 485 q 158 461 178 485 q 138 417 138 438 q 158 372 138 396 q 221 349 178 349 q 258 353 239 349 q 291 368 276 358 q 315 390 306 378 q 324 417 324 401 m 343 417 q 306 353 343 376 q 221 329 268 329 q 140 357 168 329 q 113 417 113 385 q 140 476 113 449 q 221 504 168 504 q 306 481 268 504 q 343 417 343 457 z "}}}
